/* XPM */
static char *_fecfc21f44b4ccac0cca99a279e2fe2EbE51Lb17k9y0qp0[] = {
/* columns rows colors chars-per-pixel */
"32 27 170 2 ",
"   c None",
".  c #763F4F",
"X  c #5C595D",
"o  c #5F555C",
"O  c #63555C",
"+  c #7F685D",
"@  c #5C536E",
"#  c #575673",
"$  c #566D6C",
"%  c #756E64",
"&  c #717868",
"*  c #786174",
"=  c #9B6137",
"-  c #B77E29",
";  c #A86937",
":  c #BE743A",
">  c #C27B33",
",  c #C6773E",
"<  c #D07C3F",
"1  c #8E4F47",
"2  c #9C4B4D",
"3  c #8E5344",
"4  c #9D544B",
"5  c #975746",
"6  c #934C59",
"7  c #905253",
"8  c #A35D45",
"9  c #A7544F",
"0  c #AA5B4D",
"q  c #AE564D",
"w  c #B3564F",
"e  c #B15F4A",
"r  c #AC5553",
"t  c #AE5853",
"y  c #B15C51",
"u  c #AB6549",
"i  c #B2614B",
"p  c #BB664E",
"a  c #BB6B4B",
"s  c #B56846",
"d  c #A7665D",
"f  c #8F4E60",
"g  c #C56F4A",
"h  c #CC7347",
"j  c #CA734D",
"k  c #CA7C43",
"l  c #D27247",
"z  c #D77E4A",
"x  c #D07348",
"c  c #C47752",
"v  c #2F8C7D",
"b  c #29917E",
"n  c #5C886F",
"m  c #5A846F",
"M  c #5C8B74",
"N  c #5D8773",
"B  c #63826C",
"V  c #7F886F",
"C  c #5ABA79",
"Z  c #68B66A",
"A  c #BA831D",
"S  c #BD8126",
"D  c #D8B31E",
"F  c #C38623",
"G  c #C68D22",
"H  c #CE8D26",
"J  c #C7862A",
"K  c #D38F27",
"L  c #D48E2D",
"P  c #CF9124",
"I  c #D9932B",
"U  c #DB9829",
"Y  c #CD8434",
"T  c #CF8830",
"R  c #D6863C",
"E  c #D98A39",
"W  c #DE913A",
"Q  c #E2992B",
"!  c #E69634",
"~  c #E8973C",
"^  c #F59F3C",
"/  c #D3A320",
"(  c #E5A72B",
")  c #EBA12F",
"_  c #EDAA3D",
"`  c #EDA53F",
"'  c #F3A234",
"]  c #FAA535",
"[  c #FDAB36",
"{  c #F5A23B",
"}  c #FBA53A",
"|  c #F4AA3E",
" . c #FEAB39",
".. c #F4AE30",
"X. c #FFB535",
"o. c #FFB935",
"O. c #FFEF1F",
"+. c #FFF11F",
"@. c #EBC224",
"#. c #E5C62A",
"$. c #E9CA27",
"%. c #F1C52F",
"&. c #FFCC2E",
"*. c #F1CF29",
"=. c #EFD023",
"-. c #F4D522",
";. c #FEDB26",
":. c #F7D429",
">. c #F8D827",
",. c #F9C83A",
"<. c #FFE524",
"1. c #FFEB21",
"2. c #FFF020",
"3. c #BDAF4F",
"4. c #BAAA56",
"5. c #DC864D",
"6. c #DF884F",
"7. c #D78145",
"8. c #E0894E",
"9. c #EB9543",
"0. c #E6904A",
"q. c #C9AF4D",
"w. c #D0AE4B",
"e. c #CFB04A",
"r. c #E3AD43",
"t. c #FEAF4B",
"y. c #FFBE4F",
"u. c #FAAC59",
"i. c #FDAF53",
"p. c #FFBD50",
"a. c #FEB35B",
"s. c #FDB357",
"d. c #FFCA43",
"f. c #FFC447",
"g. c #4C6983",
"h. c #1B9F87",
"j. c #2E8B8B",
"k. c #16A98C",
"l. c #05AA91",
"z. c #10AE95",
"x. c #03BC96",
"c. c #08BE98",
"v. c #13BF93",
"b. c #12BD9B",
"n. c #1BBC97",
"m. c #39BC84",
"M. c #36BB83",
"N. c #459386",
"B. c #00C19A",
"V. c #0AC49E",
"C. c #00C89E",
"Z. c #17C399",
"A. c #26C194",
"S. c #0AC9A7",
"D. c #16CBA8",
"F. c #29CAA9",
"G. c #29D0AF",
"H. c #2BD4B2",
"J. c #3CD3B5",
"K. c #51C999",
"L. c #4CD8BC",
"P. c #5DD8C0",
"I. c #64E2CC",
"U. c #7DEDD7",
"Y. c #8EECD9",
"T. c #97EFDD",
"R. c #98F1E1",
"E. c #A0F4E3",
"W. c #B8F9EC",
"Q. c #C3FCF1",
/* pixels */
"            y y y y y y y y y y y y y y y y y y y y y           ",
"          A , j j c j j j j j j j j j j j j j j j j h S         ",
"          U R z 7.7.7.7.z z z z z 5.z z 5.z 7.7.z z 7.I         ",
"           .9.6.8.8.8.6.6.6.6.6.8.6.6.6.8.6.6.6.6.6.8. .        ",
"           .t.a.a.a.a.a.s.a.a.a.u.a.a.a.a.a.a.a.a.u.i.t.        ",
"          ;.f.a.a.a.a.a.a.a.a.a.a.a.a.a.a.a.a.a.a.u.y.;.        ",
"          1.d.a.a.a.a.a.a.a.a.a.a.a.a.a.a.a.a.a.a.a.f.<.        ",
"          1.f.a.a.a.a.a.a.a.a.a.a.a.a.a.a.a.a.a.a.a.p.<.        ",
"          1.,.s.u.u.u.u.u.u.u.u.u.u.u.u.u.u.u.u.u.a.f.<.        ",
"          1.<.,.5.5.5.5.5.5.5.5.5.5.5.5.5.5.5.5.5.r.<.<.        ",
"          <.O.;.%.%.%.%.%.%.%.%.%.%.%.%.%.%.%.%.%.:.1.<.        ",
"          O.<.O.+.+.1.O.+.1.1.1.2.1.1.2.2.2.2.2.1.1.1.1.        ",
"          :.;.;.=.#.:.*.#.-.<.O.<.1.<.>.#.$.:.#.$.;.;.;.        ",
"        Z.q.[ ) - 3 W , 3 G -.1.<.<.<./ = 0 { 5 ; U  . .        ",
"      B.  | Q > u 9 9.z 8 S ..o.X.X.o.P ; g ^ i 8 : I }         ",
"B.x.L.I.A.r.> 5 t y Y W R G ' ! ( &.[ G Y W L i y 4 ; { C B.    ",
"B.B.L.R.Z.w.k i h h L ! ' G } / D @.[ H Q ] L k h a a ` M.G.J.  ",
"  B.    v.w.] r.{ ^ ^ ^ ! S { &.@.K ] J L ^ ^ ^ ^ { ] | M.I.Y.B.",
"          } W - p p p g 0 1 ~ X.[ [ } 5 4 p p p p : K ` m.S.    ",
"           .7.r y y y w r 9 g h h l l q r y y y y e , }         ",
"          [ c . 2 2 % N n & 7 % M N N n 7 7 2 2 2 6 d } Z       ",
"G.D.B.    3.4.# O O k.D.H.F.$ b C.S.H.H.N.X X X @ @ * 4.K.D.B.  ",
"Q.    B.V.Z.V.v O k.    Q.W.F.      W.Q.L.c.b.b.B.j.g.n.T.    B.",
"      F.T.R.Y.  k.          V.          F.G.R.E.  l.z.B.      B.",
"                B.          B.                      C.B.        ",
"                B.          B.                        B.        ",
"                  B.                                            "
};
