/* XPM */
static char *coin1674347645[] = {
/* columns rows colors chars-per-pixel */
"64 64 109 2 ",
"   c None",
".  c #976B00",
"X  c #9B6E01",
"o  c #9E7100",
"O  c #A27500",
"+  c #A67900",
"@  c #AA7D00",
"#  c #A97B08",
"$  c #AE8101",
"%  c #B28401",
"&  c #B68900",
"*  c #BA8D00",
"=  c #BB8E09",
"-  c #BF9200",
";  c #BE9109",
":  c #BD9909",
">  c #C39500",
",  c #CB9703",
"<  c #C69901",
"1  c #CA9B01",
"2  c #C0920A",
"3  c #C89D08",
"4  c #C4A103",
"5  c #CDA303",
"6  c #CDAC00",
"7  c #C7A208",
"8  c #CAA709",
"9  c #CFA809",
"0  c #D3A502",
"q  c #D7A802",
"w  c #DBAB01",
"e  c #D4AA0B",
"r  c #DBAD09",
"t  c #D6B201",
"y  c #DCB401",
"u  c #DCBD00",
"i  c #D5B30A",
"p  c #DCB408",
"a  c #DDBC0A",
"s  c #DABB17",
"d  c #E3B402",
"f  c #E7B801",
"g  c #EBBB01",
"h  c #E3B509",
"j  c #EDBE08",
"k  c #F0BF00",
"l  c #DEC40A",
"z  c #E3C006",
"x  c #EEC303",
"c  c #E5CC06",
"v  c #ECCA07",
"b  c #E1C40C",
"n  c #ECC60A",
"m  c #E1CC0A",
"M  c #EBCC08",
"N  c #F3C302",
"B  c #F9C700",
"V  c #F7C906",
"C  c #FECD04",
"Z  c #F3C40A",
"A  c #F2CD09",
"S  c #FACD0A",
"D  c #E7D106",
"F  c #EAD600",
"G  c #EDD308",
"H  c #F5D302",
"J  c #FFD103",
"K  c #F6DB04",
"L  c #FDDC03",
"P  c #F6D40B",
"I  c #FFD409",
"U  c #FEDC0A",
"Y  c #FCDD12",
"T  c #FFD41C",
"R  c #FFDD18",
"E  c #FEE303",
"W  c #FEEB04",
"Q  c #FEE50A",
"!  c #FFEC0A",
"~  c #FFF205",
"^  c #FFFE05",
"/  c #FFF30A",
"(  c #FFFC0A",
")  c #FAE415",
"_  c #FFEF12",
"`  c #FFF512",
"'  c #FFFA13",
"]  c #DFC238",
"[  c #EDCF2E",
"{  c #EDD52A",
"}  c #F0DA28",
"|  c #FFDE3B",
" . c #FFFF2B",
".. c #FFFF37",
"X. c #E6C441",
"o. c #EDD240",
"O. c #EFDB5B",
"+. c #FCEB5B",
"@. c #FFFC54",
"#. c #FFFF5C",
"$. c #F1DC6E",
"%. c #FFFA63",
"&. c #FEF576",
"*. c #FFFE78",
"=. c #FFFF81",
"-. c #FFFB88",
";. c #FEF7A3",
":. c #FFFFA9",
">. c #FFFFB1",
/* pixels */
"                                                                                                                                ",
"                                                                                                                                ",
"                                                                                                                                ",
"                                                                                                                                ",
"                                                                                                                                ",
"                                                                                                                                ",
"                                                                                                                                ",
"                                                                                                                                ",
"                                                                                                                                ",
"                                                                                                                                ",
"                                                                                                                                ",
"                                                                                                                                ",
"                                                                                                                                ",
"                                                                                                                                ",
"                                                                                                                                ",
"                                                                                                                                ",
"                                                                                                                                ",
"                                                                                                                                ",
"                                                      e n P Y Q ) U S j h e                                                     ",
"                                                  n P _ @.=...( ( / / Q U I Z e                                                 ",
"                                              : A ! %.:.;.O.b a a a b n U U U Z r                                               ",
"                                            7 M / ' +.] 9 e a l m m i = 2 r I S V h %                                           ",
"                                          % v ! / M 9 i { *. .^ ^ ( / S r 2 = r j V h                                           ",
"                                        % p K ~ a 8 [ -.>.*.` ) n p h I U I q # 3 h V e                                         ",
"                                        e f ! c 8 ) #.#.` E U M G 3 0 S S C U h # 0 r k 2                                       ",
"                                      2 f j C 7 E ^ ^ ! U U [ } I 3 9 C S C I C h # q r w &                                     ",
"                                      e d V & t ^ ^ E U Q P $.T V , 5 C C J C j k # * q r 2                                     ",
"                                    % q q r X W ^ L U L H D h C C 3 0 S C J N j j q O 3 0 <                                     ",
"                                    & 0 , % w ^ J C C C c 6 > I V , 0 J J B g j j k % % 1 <                                     ",
"                                    , > , O E ~ C C C t y , s R C < 0 J B j g g g k , O < 3                                     ",
"                                    5 > * + E L C J C B B C ] | C < 1 N g g g g k k q X & ,                                     ",
"                                    5 > & @ F N B C C J J J z E B , 1 g g g g g g g q O @ 1                                     ",
"                                    5 * % @ u g g g g N x N t E B < < g g g g g g d 1 o @ ,                                     ",
"                                    , > % + q d g d g f f f t L N < , g g g g d w w < X @ >                                     ",
"                                    * > % O 0 q g f f f g d t E N < < g g d w q q q & O @ <                                     ",
"                                    $ , @ O & q d g f f f f t L k , > d w q q q w 1 O @ % <                                     ",
"                                    @ < % @ X < 1 w g g g d t K g > - q q q w q 1 * O @ * -                                     ",
"                                      - - @ O % < > 5 w d w 6 K g < * q q q 0 1 < O @ $ < &                                     ",
"                                      $ < $ @ o - < - > 4 5 4 H g < * 0 1 1 < < & o @ & <                                       ",
"                                        - > @ + o - < > - - 4 K d * & > > > < & o @ $ 1 $                                       ",
"                                          * * @ O o % > > > - f 1 @ & < < > $ . @ $ - &                                         ",
"                                          . > & @ + o + % - - - > * > * $ o o @ @ * *                                           ",
"                                            O - & $ @ o o o @ @ @ @ O o o o @ @ & &                                             ",
"                                              X * & % @ @ o o o o o O + @ $ $ - &                                               ",
"                                                  & * * & % @ $ @ @ $ % & & & %                                                 ",
"                                                      + % & * & * & & & % $                                                     ",
"                                                                                                                                ",
"                                                                                                                                ",
"                                                                                                                                ",
"                                                                                                                                ",
"                                                                                                                                ",
"                                                                                                                                ",
"                                                                                                                                ",
"                                                                                                                                ",
"                                                                                                                                ",
"                                                                                                                                ",
"                                                                                                                                ",
"                                                                                                                                ",
"                                                                                                                                ",
"                                                                                                                                ",
"                                                                                                                                ",
"                                                                                                                                ",
"                                                                                                                                ",
"                                                                                                                                "
};
