/* XPM */
static char *_d88cf08373745caedd3c3ba17ee9c5aSv52Jb1AzXZgOaY1[] = {
/* columns rows colors chars-per-pixel */
"19 21 208 2 ",
"   c None",
".  c #2C1630",
"X  c #1C283B",
"o  c #28232C",
"O  c #2C212D",
"+  c #2D222D",
"@  c #2F232C",
"#  c #2E222D",
"$  c #2F232D",
"%  c #2C292E",
"&  c #32222E",
"*  c #34212F",
"=  c #34222F",
"-  c #36222E",
";  c #33242F",
":  c #35272D",
">  c #3C212F",
",  c #34292D",
"<  c #342E2C",
"1  c #382F2C",
"2  c #3F3629",
"3  c #312230",
"DX c #6DF7B1",
"5  c #362231",
"6  c #352630",
"7  c #392132",
"8  c #382432",
"9  c #372932",
"0  c #352C33",
"q  c #372E33",
"w  c #382A32",
"e  c #392C33",
"r  c #3B2A36",
"t  c #392D36",
"y  c #3C2F35",
"u  c #3C2D36",
"i  c #3D2E36",
"p  c #3F2F37",
"a  c #353132",
"s  c #343335",
"d  c #393234",
"f  c #3C3035",
"g  c #3C3536",
"h  c #3F3438",
"j  c #3F3A3B",
"k  c #441A38",
"l  c #431C39",
"z  c #461C39",
"x  c #4D1A3D",
"c  c #4F1A3D",
"v  c #4D193E",
"b  c #591E37",
"n  c #50153E",
"m  c #571D39",
"M  c #501A3D",
"N  c #611A3E",
"B  c #40212F",
"V  c #462330",
"C  c #422430",
"Z  c #422431",
"A  c #4C2D34",
"S  c #562230",
"D  c #5A2B35",
"F  c #5C2934",
"G  c #5E2834",
"H  c #5F253D",
"J  c #4A3036",
"K  c #413739",
"L  c #49363D",
"P  c #42383A",
"I  c #43393A",
"U  c #43393B",
"Y  c #443A3B",
"T  c #443B3B",
"R  c #46383C",
"E  c #47393D",
"W  c #423F3D",
"Q  c #463C3C",
"!  c #473E3D",
"~  c #4D3C3B",
"^  c #4B3B3C",
"/  c #4B393E",
"(  c #4E3A3C",
")  c #4F3A3C",
"_  c #4E3B3C",
"`  c #56363C",
"'  c #612233",
"]  c #612333",
"[  c #6E2136",
"{  c #7B2335",
"}  c #7C2038",
"|  c #6E333C",
" . c #6A393C",
".. c #7C323B",
"X. c #38531F",
"o. c #3F7F13",
"O. c #3B721B",
"+. c #175F3B",
"@. c #2F4431",
"#. c #226E30",
"$. c #541741",
"%. c #5B1744",
"&. c #531841",
"*. c #581D47",
"=. c #630F4A",
"-. c #6B1941",
";. c #631648",
":. c #69124A",
">. c #721E51",
",. c #771954",
"<. c #721F54",
"1. c #781C54",
"2. c #4F2241",
"3. c #4D2440",
"4. c #542344",
"5. c #562746",
"6. c #592544",
"7. c #523442",
"8. c #5B3341",
"9. c #6B264B",
"0. c #69254D",
"q. c #7D2947",
"w. c #75244F",
"e. c #7A214F",
"r. c #6C2151",
"t. c #792050",
"y. c #094F47",
"u. c #822234",
"i. c #8E2F3A",
"p. c #922337",
"a. c #912435",
"s. c #9C2137",
"d. c #9A2338",
"f. c #972F3D",
"g. c #9E2A39",
"h. c #992E3E",
"j. c #84333D",
"k. c #80343C",
"l. c #82343C",
"z. c #84343C",
"x. c #91323C",
"c. c #9B313C",
"v. c #A52C3E",
"b. c #A82839",
"n. c #B6243C",
"m. c #BB213E",
"M. c #D6233D",
"N. c #D3263E",
"B. c #D5263E",
"V. c #D8253E",
"C. c #D8253F",
"Z. c #DF243C",
"A. c #DF243E",
"S. c #E3233E",
"D. c #E8223E",
"F. c #E9233E",
"G. c #EC243D",
"H. c #F1223E",
"J. c #F3243E",
"K. c #800D56",
"L. c #810D56",
"P. c #820C58",
"I. c #87095D",
"U. c #8B0C59",
"Y. c #880F5B",
"T. c #890F5B",
"R. c #9C0E5C",
"E. c #A6134F",
"W. c #AB1749",
"Q. c #AE0F57",
"!. c #BB0F58",
"~. c #BA0C5D",
"^. c #A91550",
"/. c #AC1155",
"(. c #AA1556",
"). c #8E2A43",
"_. c #8A2A46",
"`. c #BF2640",
"'. c #C71F41",
"]. c #CF1F43",
"[. c #C8184C",
"{. c #DC1F44",
"}. c #DA194B",
"|. c #DC1550",
" X c #E01E45",
".X c #E72041",
"XX c #E52241",
"oX c #EA2042",
"OX c #38931E",
"+X c #36A416",
"@X c #258A2A",
"#X c #609717",
"$X c #799B12",
"%X c #45A10B",
"&X c #43AB0E",
"*X c #4BBA07",
"=X c #47B709",
"-X c #50BC07",
";X c #63C705",
":X c #7ED702",
">X c #8EDE02",
",X c #8FE101",
"<X c #A0EC00",
"1X c #A7ED00",
"2X c #A8ED00",
"3X c #A8EE00",
"4X c #A9EF00",
"5X c #AAF100",
/* pixels */
"DXDXDXDXDXDXDXDXDX& & DXDXDXDX1X1X1X1X",
"DXDXDXDXDXDXDXDXDXDX& DXDXDXDX4X1X1X1X",
"DXDXDXDX& & & DXDXDXDX. 2 $X4X5X1X1X1X",
"DXDXDXDX& 6 w 9 DXDXDXX @.#X>X<X1X4X1X",
"DXDXDXDXDXDXK y ;     y.+.OX;X,X4XDXDX",
"DXDXDXDXDXDX! h e 8DX #.@X+X*X:XDXDXDX",
"DXDXDXDXDXDXDXY Y r < O.&X=X*XDXDXDXDX",
"DXDXDXDXDXDXDXg Y y , X.o.%XDXDXDXDXDX",
"DXDXDXDXDXDX- y U y 3 ; 2 DXDXDXDXDXDX",
"DXDXDXDXDX4.;.6./ d 5 n =.*.DXDXDXDXDX",
"DXDX) ~ ) 9.T.>.L a 7 :.T.0./ / )DXDX ",
"+ G i.c.h._.w.5.t % & 2.r.r.e.).x. .W ",
"+ ' m.XXS.v.` f Z B > A 8.<.R.[.`.| j ",
"+ m E.|.oXb.J F p.s.d.v.h._.1.(.(.] s ",
"+ x L./.'.p.B { B.F.S.F.N...7.,.L.M + ",
"DXl &.N [ S > u.S.J.G.oXC...7.A $.k DX",
"DXDX& & & + - } ]. X{.XXB.j.Y 0 & DXDX",
"DXDXDXDXDXo - -.Q.~.!.}.V.j.Y s DXDXDX",
"DXDXDXDXDXDX5 %.P.I.U.W.n...! DXDXDXDX",
"DXDXDXDXDXDXDXz x x x b ' D DXDXDXDXDX",
"DXDXDXDXDXDXDXDX+ & @ @ + DXDXDXDXDXDX"
};
