/* XPM */
static char *result[] = {
/* columns rows colors chars-per-pixel */
"64 60 187 2 ",
"   c #262316",
".  c #292317",
"X  c #272418",
"o  c #2A2419",
"O  c #2F291E",
"+  c #2F2917",
"@  c #312D16",
"#  c #33261B",
"$  c #3B261D",
"%  c #332A1E",
"&  c #39291E",
"*  c #373413",
"=  c #302721",
"-  c #332C22",
";  c #3C2C23",
":  c #373225",
">  c #3A3426",
",  c #3A3429",
"<  c #3E392A",
"1  c #43271F",
"2  c #41291F",
"3  c #433E13",
"4  c #452720",
"5  c #4A2721",
"6  c #442C23",
"7  c #4C2B23",
"8  c #532A23",
"9  c #5C2A26",
"0  c #463027",
"q  c #4B3027",
"w  c #47332A",
"e  c #4A352B",
"r  c #4A3C2F",
"t  c #53352C",
"y  c #433D32",
"u  c #423530",
"i  c #533A31",
"p  c #5C3D35",
"a  c #612B27",
"s  c #662B28",
"d  c #6C2C2A",
"f  c #742D2C",
"g  c #7D2D2F",
"h  c #62342D",
"j  c #6D352F",
"k  c #643730",
"l  c #643A33",
"z  c #6B3932",
"x  c #6C3B35",
"c  c #7B3331",
"v  c #783D37",
"b  c #524C12",
"n  c #5D5511",
"m  c #454135",
"M  c #4A4439",
"N  c #4D4839",
"B  c #544D3D",
"V  c #62413A",
"C  c #68453E",
"Z  c #75443F",
"A  c #544D43",
"S  c #5B574D",
"D  c #6D4742",
"F  c #734A45",
"G  c #62594B",
"H  c #645C52",
"J  c #685E56",
"K  c #6C6359",
"L  c #6F695E",
"P  c #6A6055",
"I  c #6F6B62",
"U  c #736C63",
"Y  c #7A6F66",
"T  c #7D736A",
"R  c #777167",
"E  c #822E2F",
"W  c #842E31",
"Q  c #8A2F32",
"!  c #863031",
"~  c #8B3133",
"^  c #823835",
"/  c #823E39",
"(  c #933035",
")  c #9B3237",
"_  c #9D3438",
"`  c #963B3B",
"'  c #9C3B3D",
"]  c #A43339",
"[  c #AB343B",
"{  c #B4353D",
"}  c #BA363F",
"|  c #BB383F",
" . c #B5383F",
".. c #89413D",
"X. c #92413E",
"o. c #BE3740",
"O. c #BB3A41",
"+. c #B13C41",
"@. c #C13741",
"#. c #C43942",
"$. c #CD3B45",
"%. c #D03C46",
"&. c #D23F48",
"*. c #824B46",
"=. c #834D49",
"-. c #854945",
";. c #9B4342",
":. c #85524E",
">. c #9E514E",
",. c #8F5955",
"<. c #895551",
"1. c #9A5957",
"2. c #A54645",
"3. c #B54D4E",
"4. c #B44346",
"5. c #A95756",
"6. c #B35655",
"7. c #B95B5B",
"8. c #9E615E",
"9. c #83776D",
"0. c #83786F",
"q. c #847C73",
"w. c #8C7E74",
"e. c #A76563",
"r. c #AB6665",
"t. c #B16A69",
"y. c #B66867",
"u. c #BF7172",
"i. c #CD434A",
"p. c #C6484D",
"a. c #D4434B",
"s. c #D9464E",
"d. c #D9484F",
"f. c #DC4C52",
"g. c #D64C51",
"h. c #C35656",
"j. c #C85455",
"k. c #DC5459",
"l. c #D85055",
"z. c #E14F56",
"x. c #E15257",
"c. c #E3555A",
"v. c #E5595D",
"b. c #E85C5F",
"n. c #D85D61",
"m. c #E65E63",
"M. c #E95E61",
"N. c #CA6263",
"B. c #C36C6D",
"V. c #C86869",
"C. c #D66567",
"Z. c #C57374",
"A. c #D57C7E",
"S. c #D47275",
"D. c #EA6166",
"F. c #E5666B",
"G. c #EC6669",
"H. c #EE696D",
"J. c #EF6D71",
"K. c #F16F73",
"L. c #E47478",
"P. c #F17276",
"I. c #F57A7E",
"U. c #F47479",
"Y. c #8C837A",
"T. c #8F857B",
"R. c #95887E",
"E. c #968975",
"W. c #A39576",
"Q. c #E27F82",
"!. c #F47D82",
"~. c #958A81",
"^. c #9C938A",
"/. c #9F9B93",
"(. c #A59C92",
"). c #A89F96",
"_. c #ACA59D",
"`. c #B0A89F",
"'. c #DC8083",
"]. c #E38387",
"[. c #F98287",
"{. c #FA868B",
"}. c #FD8C92",
"|. c #F68D93",
" X c #FF9096",
".X c #FF939A",
"XX c None",
/* pixels */
"XXXXXXXXXXXXXXXXXXXXXXXXXXXXXXXXXXXXXXXXXXXXXXXXXXXXXXXXXXXXXXXXXXXXXXXXXXXXXXXXXXXXXXXXXXXXXXXXXXXXXXXXXXXXXXXXXXXXXXXXXXXXXXXX",
"XXXXXXXXXXXXXXXXXXXXXXXXXXXXXXXXXXXXXXXXXXXXXXXXXXXXXXXXXXXXXXXXXXXXXXXXXXXXXXXXXXXXXXXXXXXXXXXXXXXXXXXXXXXXXXXXXXXXXXXXXXXXXXXX",
"XXXXXXXXXXXXXXXXXXXXXXXXXXXXXXXXXXXXXXXXXXXXXXXXXXXXXXXXXXXXXXXXXXXXXXXXXXXXXXXXXXXXXXXXXXXXXXXXXXXXXXXXXXXXXXXXXXXXXXXXXXXXXXXX",
"XXXXXXXXXXXXXXXXXXXXXXXXXXXXXXXXXXXXXXXXXXXXXXXXXXXXXXXXXXXXXXXXXXXXXXXXXXXXXXXXXXXXXXXXXXXXXXXXXXXXXXXXXXXXXXXXXXXXXXXXXXXXXXXX",
"XXXXXXXXXXXXXXXXXXXXXXXXXXXXXXXXXXXXXXXXXXXXXXXXXXXXXXXXXXXXXXXXXXXXXXXXXXXXXXXXXXXXXXXXXXXXXXXXXXXXXXXXXXXXXXXXXXXXXXXXXXXXXXXX",
"XXXXXXXXXXXXXXXXXXXXXXXXXXXXXXXXXXXXXXXXXXXXXXXXXXXXXXXXXXXXXXXXXXXXXXXXXXXXXXXXXXXXXXXXXXXXXXXXXXXXXXXXXXXXXXXXXXXXXXXXXXXXXXXX",
"XXXXXXXXXXXXXXXXXXXXXXXXXXXXXXXXXXXXXXXXXXXXXXXXXXXXXXXXXXXXXXXXXXXXXXXXXXXXXXXXXXXXXXXXXXXXXXXXXXXXXXXXXXXXXXXXXXXXXXXXXXXXXXXX",
"XXXXXXXXXXXXXXXXXXXXXXXXXXXXXXXXXXXXXXXXXXXXXXXXXXXXXXXXXXXXXXXXXXXXXXXXXXXXXXXXXXXXXXXXXXXXXXXXXXXXXXXXXXXXXXXXXXXXXXXXXXXXXXXX",
"XXXXXXXXXXXXXXXXXXXXXXXXXXXXXXXXXXXXXXXXXXXXXXXXXXXXXXXXXXXXXXXXXXXXXXXXXXXXXXXXXXXXXXXXXXXXXXXXXXXXXXXXXXXXXXXXXXXXXXXXXXXXXXXX",
"XXXXXXXXXXXXXXXXXXXXXXXXXXXXXXXXXXXXXXXXXXXXXXXXXXXXXXXXXXXXXXXXXXXXXXXXXXXXXXXXXXXXXXXXXXXXXXXXXXXXXXXXXXXXXXXXXXXXXXXXXXXXXXXX",
"XXXXXXXXXXXXXXXXXXXXXXXXXXXXXXXXXXXXXXXXXXXXXXXXXXXXXXXXXXXXXXXXXXXXXXXXXXXXXXXXXXXXXXXXXXXXXXXXXXXXXXXXXXXXXXXXXXXXXXXXXXXXXXXX",
"XXXXXXXXXXXXXXXXXXXXXXXXXXXXXXXXXXXXXXXXXXXXXXXXXXXXXXXXXXXXXXXXXXXXXXXXXXXXXXXXXXXXXXXXXXXXXXXXXXXXXXXXXXXXXXXXXXXXXXXXXXXXXXXX",
"XXXXXXXXXXXXXXXXXXXXXXXXXXXXXXXXXXXXXXXX      XXXXXXXXXXXXXXXXXXXXXXXXXXXXXXXXXXXXXXXXXXXXXXXXXXXXXXXXXXXXXXXXXXXXXXXXXXXXXXXXXX",
"XXXXXXXXXXXXXXXXXXXXXXXXXXXXXX    X % > w e 0 6 & X     XXXXXXXXXXXXXXXXXXXXXXXXXXXXXXXXXXXXXXXXXXXXXXXXXXXXXXXXXXXXXXXXXXXXXXXX",
"XXXXXXXXXXXXXXXXXXXXXXXXXX  o 6 Z 5.V.S.C.N.N.C.h.;.l & o XXXXXXXXXXXXXXXXXXXXXXXXXXXXXXXXXXXXXXXXXXXXXXXXXXXXXXXXXXXXXXXXXXXXXX",
"XXXXXXXXXXXXXXXXXXXXXX  O l r.L.U.F.2.k 6 ; 7 z z h C >.7 X XXXXXXXXXXXXXXXXXXXXXXXXXXXXXXXXXXXXXXXXXXXXXXXXXXXXXXXXXXXXXXXXXXXX",
"XXXXXXXXXXXXXXXXXXXX  e r.A.>.v v t + # a s 1 o # 1 o -.j.&   XXXXXXXXXXXXXXXXXXXXXXXXXXXXXXXXXXXXXXXXXXXXXXXXXXXXXXXXXXXXXXXXXX",
"XXXXXXXXXXXXXXXXXXo C A.Z.e # 1 1 1 f { %.$.} ) ] W # *.G.h   XXXXXXXXXXXXXXXXXXXXXXXXXXXXXXXXXXXXXXXXXXXXXXXXXXXXXXXXXXXXXXXXXX",
"XXXXXXXXXXXXXXXX  C ].:.; 1 _ @.} @.$.| @.} { { ~ $ 0 S.6.$ o XXXXXXXXXXXXXXXXXXXXXXXXXXXXXXXXXXXXXXXXXXXXXXXXXXXXXXXXXXXXXXXXXX",
"XXXXXXXXXXXXXXXXo 7.7.# 1 ! _ ! f ! [ [ ] ( ( g # 6 B.B.7 + o XXXXXXXXXXXXXXXXXXXXXXXXXXXXXXXXXXXXXXXXXXXXXXXXXXXXXXXXXXXXXXXXXX",
"XXXXXXXXXXXXXXXXo h ;.& 1 1 # % % o 4 9 1 # # # 0 1.<.- 1 f # XXXXXXXXXXXXXXXXXXXXXXXXXXXXXXXXXXXXXXXXXXXXXXXXXXXXXXXXXXXXXXXXXX",
"XXXXXXXXXXXXXXXXo - % & + 2 k 1.y.5.0   4 z h 6 7 ; & d [ [ $   XXXXXXXXXXXXXXXXXXXXXXXXXXXXXXXXXXXXXXXXXXXXXXXXXXXXXXXXXXXXXXXX",
"XXXXXXXXXXXXXXXX% t.8.p ; % ; 0 6 q & X & # # # 5 f _ f 9 ~ 8   XXXXXXXXXXXXXXXXXXXXXXXXXXXXXXXXXXXXXXXXXXXXXXXXXXXXXXXXXXXXXXXX",
"XXXXXXXXXXXXXXXXO Z..X|.Q.u.5.F *.=.<.F c ~ ' +.p.F.*.@ 3 $ d + XXXXXXXXXXXXXXXXXXXXXXXXXXXXXXXXXXXXXXXXXXXXXXXXXXXXXXXXXXXXXXXX",
"XXXXXXXXXXXXXXXXo t..X X X.X X X X X}.K.M.F.6.2.k.}.F * b $ _ 1 o XXXXXXXXXXXXXXXXXXXXXXXXXXXXXXXXXXXXXXXXXXXXXXXXXXXXXXXXXXXXXX",
"XXXXXXXXXXXXXXXX  r..X].Z.N.D.J.}. X}.G.[.r.% @ t n.7.8 1 f ( 8 o o XXXXXXXXXXXXXXXXXXXXXXXXXXXXXXXXXXXXXXXXXXXXXXXXXXXXXXXXXXXX",
"XXXXXXXXXXXXXXXX  ,.A.e % % f i.K.I.{.D.!.D 3 n #  .c.$.] 9 @ w % o   XXXXXXXXXXXXXXXXXXXXXXXXXXXXXXXXXXXXXXXXXXXXXXXXXXXXXXXXXX",
"XXXXXXXXXXXXXXXX  F ,.% e.,.% c c.P.!.H.H.*.+ @ 9 o.k.4.2 + G W.N $ 1 o XXXXXXXXXXXXXXXXXXXXXXXXXXXXXXXXXXXXXXXXXXXXXXXXXXXXXXXX",
"XXXXXXXXXXXXXXXX  i 1.% 5.6.z 4.c.K.M.H.J.k.` ~ O.g.4.& > % % y % g Q o XXXXXXXXXXXXXXXXXXXXXXXXXXXXXXXXXXXXXXXXXXXXXXXXXXXXXXXX",
"XXXXXXXXXXXXXXXXXX; u.i 1 8 d a.v.P.G.K.H.M.d.a.c.g.8 < E.r 2 / X.#.) O XXXXXXXXXXXXXXXXXXXXXXXXXXXXXXXXXXXXXXXXXXXXXXXXXXXXXXXX",
"XXXXXXXXXXXXXXXXXXo e.B.5 # 8 Q f.H.I.G.[.H.v.D.M.j.4 > B @ X.x.a.$.~ o XXXXXXXXXXXXXXXXXXXXXXXXXXXXXXXXXXXXXXXXXXXXXXXXXXXXXXXX",
"XXXXXXXXXXXXXXXXXX  V F.j./ t j g.H.[.H.H.D.D.H.M.v.3.h 7 ^ i.a.$.@.s   XXXXXXXXXXXXXXXXXXXXXXXXXXXXXXXXXXXXXXXXXXXXXXXXXXXXXXXX",
"XXXXXXXXXXXXXXXXXXXX# 2.d.f.k.v.b.M.M.x.v.b.M.v.v.M.f.&.%.%.%.$.#.) $   XXXXXXXXXXXXXXXXXXXXXXXXXXXXXXXXXXXXXXXXXXXXXXXXXXXXXXXX",
"XXXXXXXXXXXXXXXXXXXX  4 { %.c.b.b.M.v.a.f.v.v.s.a.x.&.%.$.$.$.o.] 8 o XXXXXXo o o XXXXXXXXXXXXXXXXXXXXXXXXXXXXXXXXXXXXXXXXXXXXXX",
"XXXXXXXXXXXXXXXXXXXXXXo 9 { $.k.x.f.x.x.z.v.x.f.s.g.%.%.$.#.o.( 1 o XXXX  o o   o XXXXXXXXXXXXXXXXXXXXXXXXXXXXXXXXXXXXXXXXXXXXXX",
"XXXXXXXXXXXXXXXXXXXXXXXXo 8 ] @.&.$.$.&.s.s.s.&.%.%.%.$.o._ s $ o XXX - M - o o XXXXXXXXXXXXXXXXXXXXXXXXXXXXXXXXXXXXXXXXXXXXXXXX",
"XXXXXXXXXXXXXXXXXXXXXXXXXXo $ f _ { O.} { { o.} o.{ ) g 8 # X X XX  y R M o XXXXXXXXXXXXXXXXXXXXXXXXXXXXXXXXXXXXXXXXXXXXXXXXXXXX",
"XXXXXXXXXXXXXXXXXXXXXXXXXXXXX o # 5 s d f d d 9 5 $ # $ 8 $ X X   , ~.H   XXXXXXXXXXXXXXXXXXXXXXXXXXXXXXXXXXXXXXXXXXXXXXXXXXXXXX",
"XXXXXXXXXXXXXXXXXXXXXXXXXXXXXXXXX   X X o X O i k v ' 3.a.] $ X   L ~.<   XXXXXXo X o o o o XXXXXXXXXXXXXXXXXXXXXXXXXXXXXXXXXXXX",
"XXXXXXXXXXXXXXXXXXXXXXXXXXXXXXXXXXXXXX. # 4 # 6.x.&.o.#.&.%.Q # X Y.Y %     O : O o   o XXXXXXXXXXXXXXXXXXXXXXXXXXXXXXXXXXXXXXXX",
"XXXXXXXXXXXXXXXXXXXXXXXXXXXXXXXXXXXXX i 3._ # ` O.a ; 5 ( [ d o , ^.0.A A U R M o o XXXXXXXXXXXXXXXXXXXXXXXXXXXXXXXXXXXXXXXXXXXX",
"XXXXXXXXXXXXXXXXXXXXXXXXXXXXXXXXXX  t S.g.W o ) 9 o - X o = y I /._.R.)._.U , X XXXXXXXXXXXXXXXXXXXXXXXXXXXXXXXXXXXXXXXXXXXXXXXX",
"XXXXXXXXXXXXXXXXXXXXXXXXXXXXXXXXXXO t.J.@.8 4 ( $ o O : S w.(.`.(.T.w.q.y X XXXXXXXXXXXXXXXXXXXXXXXXXXXXXXXXXXXXXXXXXXXXXXXXXXXX",
"XXXXXXXXXXXXXXXXXXXXXXXXXXXXXXXX  w L.k.[ $ o 1 o < K R.^.R.w.9.Y J U q.>     XXXX  o XXXXXXXXXXXXXXXXXXXXXXXXXXXXXXXXXXXXXXXXXX",
"XXXXXXXXXXXXXXXXXXXXXXXXXXXXXXXX  p L.O.f o # y J T.R.9.J H A r , & M q.9.H A M M y - X X XXXXXXXXXXXXXXXXXXXXXXXXXXXXXXXXXXXXXX",
"XXXXXXXXXXXXXXXXXXXXXXXXXXXXXXXX  h a.9 o o U ^.w.Y G y : - O X X # # y H T 9.L H m O o o XXXXXXXXXXXXXXXXXXXXXXXXXXXXXXXXXXXXXX",
"XXXXXXXXXXXXXXXXXXXXXXXXXXXXXXXX  1 | [ f # y M , = X X - = o o o $ X X O O o X     XXXXXXXXXXXXXXXXXXXXXXXXXXXXXXXXXXXXXXXXXXXX",
"XXXXXXXXXXXXXXXXXXXXXXXXXXXXXXXXXXo 9 _ Q $ X X o ; = o u = X X o X XXXXXXXXXXXXXXXXXXXXXXXXXXXXXXXXXXXXXXXXXXXXXXXXXXXXXXXXXXXX",
"XXXXXXXXXXXXXXXXXXXXXXXXXXXXXXXXXXXXo # O # o o X - =   o X o X o XXXXXXXXXXXXXXXXXXXXXXXXXXXXXXXXXXXXXXXXXXXXXXXXXXXXXXXXXXXXXX",
"XXXXXXXXXXXXXXXXXXXXXXXXXXXXXXXXXXXXXX  e u./ 5 $ X # w l ^ f O XXXXXXXXXXXXXXXXXXXXXXXXXXXXXXXXXXXXXXXXXXXXXXXXXXXXXXXXXXXXXXXX",
"XXXXXXXXXXXXXXXXXXXXXXXXXXXXXXXXXXXXXX  F }.m.o.g X t Q.!.z.] # XXXXXXXXXXXXXXXXXXXXXXXXXXXXXXXXXXXXXXXXXXXXXXXXXXXXXXXXXXXXXXXX",
"XXXXXXXXXXXXXXXXXXXXXXXXXXXXXXXXXXXXXX  j H.k.#.Q o 6 n.D.s.] # XXXXXXXXXXXXXXXXXXXXXXXXXXXXXXXXXXXXXXXXXXXXXXXXXXXXXXXXXXXXXXXX",
"XXXXXXXXXXXXXXXXXXXXXXXXXXXXXXXXXXXXXX  2 [ O.] a o o c +._ 9 o XXXXXXXXXXXXXXXXXXXXXXXXXXXXXXXXXXXXXXXXXXXXXXXXXXXXXXXXXXXXXXXX",
"XXXXXXXXXXXXXXXXXXXXXXXXXXXXXXXXXXXXXXXXo $ 5 1 o o o o $ o o o XXXXXXXXXXXXXXXXXXXXXXXXXXXXXXXXXXXXXXXXXXXXXXXXXXXXXXXXXXXXXXXX",
"XXXXXXXXXXXXXXXXXXXXXXXXXXXXXXXXXXXXXXXXXX      XXXXXXXXXXXXXXXXXXXXXXXXXXXXXXXXXXXXXXXXXXXXXXXXXXXXXXXXXXXXXXXXXXXXXXXXXXXXXXXX",
"XXXXXXXXXXXXXXXXXXXXXXXXXXXXXXXXXXXXXXXXXXXXXXXXXXXXXXXXXXXXXXXXXXXXXXXXXXXXXXXXXXXXXXXXXXXXXXXXXXXXXXXXXXXXXXXXXXXXXXXXXXXXXXXX",
"XXXXXXXXXXXXXXXXXXXXXXXXXXXXXXXXXXXXXXXXXXXXXXXXXXXXXXXXXXXXXXXXXXXXXXXXXXXXXXXXXXXXXXXXXXXXXXXXXXXXXXXXXXXXXXXXXXXXXXXXXXXXXXXX",
"XXXXXXXXXXXXXXXXXXXXXXXXXXXXXXXXXXXXXXXXXXXXXXXXXXXXXXXXXXXXXXXXXXXXXXXXXXXXXXXXXXXXXXXXXXXXXXXXXXXXXXXXXXXXXXXXXXXXXXXXXXXXXXXX",
"XXXXXXXXXXXXXXXXXXXXXXXXXXXXXXXXXXXXXXXXXXXXXXXXXXXXXXXXXXXXXXXXXXXXXXXXXXXXXXXXXXXXXXXXXXXXXXXXXXXXXXXXXXXXXXXXXXXXXXXXXXXXXXXX",
"XXXXXXXXXXXXXXXXXXXXXXXXXXXXXXXXXXXXXXXXXXXXXXXXXXXXXXXXXXXXXXXXXXXXXXXXXXXXXXXXXXXXXXXXXXXXXXXXXXXXXXXXXXXXXXXXXXXXXXXXXXXXXXXX"
};
