/* XPM */
static char *result[] = {
/* columns rows colors chars-per-pixel */
"64 60 189 2 ",
"   c #262316",
".  c #282317",
"X  c #2A2419",
"o  c #2E291D",
"O  c #302C16",
"+  c #33261B",
"@  c #3C251D",
"#  c #33291E",
"$  c #3B291F",
"%  c #373315",
"&  c #342D23",
"*  c #3B2C22",
"=  c #363023",
"-  c #393327",
";  c #393328",
":  c #3E392E",
">  c #43271F",
",  c #472720",
"<  c #4A2720",
"1  c #452D23",
"2  c #4C2922",
"3  c #542A24",
"4  c #5C2A26",
"5  c #4B342B",
"6  c #413C2C",
"7  c #473228",
"8  c #52332A",
"9  c #5B332B",
"0  c #51342B",
"q  c #443D33",
"w  c #493937",
"e  c #533A31",
"r  c #5A3A32",
"t  c #533B37",
"y  c #622A27",
"u  c #652B28",
"i  c #6C2D2A",
"p  c #742D2C",
"a  c #7B2E2E",
"s  c #66342E",
"d  c #603B33",
"f  c #6D3C35",
"g  c #773934",
"h  c #484312",
"j  c #575011",
"k  c #605711",
"l  c #4C453B",
"z  c #4A4439",
"x  c #504A3F",
"c  c #68433D",
"v  c #70433D",
"b  c #4F4B40",
"n  c #534E44",
"m  c #5A5046",
"M  c #575349",
"N  c #5D554A",
"B  c #545247",
"V  c #6E4640",
"C  c #7B4A45",
"Z  c #7A4E49",
"A  c #754842",
"S  c #635A4B",
"D  c #635C52",
"F  c #695F55",
"G  c #6C624B",
"H  c #676359",
"J  c #6C6159",
"K  c #6F695F",
"L  c #726859",
"P  c #7C7158",
"I  c #6F6A61",
"U  c #736A60",
"Y  c #786C63",
"T  c #7D7870",
"R  c #7B746C",
"E  c #812F2F",
"W  c #842F30",
"Q  c #8B2F32",
"!  c #833131",
"~  c #8C3133",
"^  c #853C39",
"/  c #933135",
"(  c #9B3136",
")  c #9D3438",
"_  c #A43339",
"`  c #AD343C",
"'  c #A33E3F",
"]  c #B3363D",
"[  c #B9363F",
"{  c #B33A3F",
"}  c #83403B",
"|  c #A43F40",
" . c #BE3740",
".. c #BE3940",
"X. c #C23741",
"o. c #C43943",
"O. c #CD3B45",
"+. c #D13C46",
"@. c #D13F48",
"#. c #924743",
"$. c #984C49",
"%. c #8A524E",
"&. c #9B524F",
"*. c #8B5652",
"=. c #965C59",
"-. c #985754",
";. c #854945",
":. c #A24443",
">. c #A34C4A",
",. c #AA4849",
"<. c #BB4D4D",
"1. c #B54849",
"2. c #A85655",
"3. c #B35655",
"4. c #AB605F",
"5. c #85796F",
"6. c #847B71",
"7. c #887C73",
"8. c #A36261",
"9. c #AA6564",
"0. c #AD6867",
"q. c #BB6D6D",
"w. c #B76261",
"e. c #CA4149",
"r. c #C9474C",
"t. c #D4434B",
"y. c #D9464E",
"u. c #D34A4F",
"i. c #DA484F",
"p. c #CD4C52",
"a. c #D24E53",
"s. c #DD4C52",
"d. c #CB5558",
"f. c #C95455",
"g. c #D25356",
"h. c #DF5056",
"j. c #D6575A",
"k. c #E14D54",
"l. c #E05156",
"z. c #E25459",
"x. c #E6595D",
"c. c #E85C5F",
"v. c #E75D62",
"b. c #E95E61",
"n. c #CB696B",
"m. c #CE6162",
"M. c #DF6466",
"N. c #D26B6D",
"B. c #D76569",
"V. c #C47273",
"C. c #CF7779",
"Z. c #D97476",
"A. c #D97B7D",
"S. c #EC6569",
"D. c #EE696D",
"F. c #E56467",
"G. c #F16B6F",
"H. c #EF6C71",
"J. c #E46B70",
"K. c #F16D71",
"L. c #EE767A",
"P. c #E37376",
"I. c #F17276",
"U. c #F3777B",
"Y. c #988B6E",
"T. c #8E837A",
"R. c #8E8277",
"E. c #95897E",
"W. c #93857B",
"Q. c #F67D82",
"!. c #F97E83",
"~. c #948B82",
"^. c #998C81",
"/. c #9C9087",
"(. c #9B948C",
"). c #A2978F",
"_. c #A69D94",
"`. c #ABA49C",
"'. c #AFAAA3",
"]. c #B2ACA5",
"[. c #EC878C",
"{. c #E68085",
"}. c #FA8A8F",
"|. c #F68287",
" X c #F28B90",
".X c #FD8D93",
"XX c #FF9197",
"oX c #FF939A",
"OX c None",
/* pixels */
"OXOXOXOXOXOXOXOXOXOXOXOXOXOXOXOXOXOXOXOXOXOXOXOXOXOXOXOXOXOXOXOXOXOXOXOXOXOXOXOXOXOXOXOXOXOXOXOXOXOXOXOXOXOXOXOXOXOXOXOXOXOXOXOX",
"OXOXOXOXOXOXOXOXOXOXOXOXOXOXOXOXOXOXOXOXOXOXOXOXOXOXOXOXOXOXOXOXOXOXOXOXOXOXOXOXOXOXOXOXOXOXOXOXOXOXOXOXOXOXOXOXOXOXOXOXOXOXOXOX",
"OXOXOXOXOXOXOXOXOXOXOXOXOXOXOXOXOXOXOXOXOXOXOXOXOXOXOXOXOXOXOXOXOXOXOXOXOXOXOXOXOXOXOXOXOXOXOXOXOXOXOXOXOXOXOXOXOXOXOXOXOXOXOXOX",
"OXOXOXOXOXOXOXOXOXOXOXOXOXOXOXOXOXOXOXOXOXOXOXOXOXOXOXOXOXOXOXOXOXOXOXOXOXOXOXOXOXOXOXOXOXOXOXOXOXOXOXOXOXOXOXOXOXOXOXOXOXOXOXOX",
"OXOXOXOXOXOXOXOXOXOXOXOXOXOXOXOXOXOXOXOXOXOXOXOXOXOXOXOXOXOXOXOXOXOXOXOXOXOXOXOXOXOXOXOXOXOXOXOXOXOXOXOXOXOXOXOXOXOXOXOXOXOXOXOX",
"OXOXOXOXOXOXOXOXOXOXOXOXOXOXOXOXOXOXOXOXOXOXOXOXOXOXOXOXOXOXOXOXOXOXOXOXOXOXOXOXOXOXOXOXOXOXOXOXOXOXOXOXOXOXOXOXOXOXOXOXOXOXOXOX",
"OXOXOXOXOXOXOXOXOXOXOXOXOXOXOXOXOXOXOXOXOXOXOXOXOXOXOXOXOXOXOXOXOXOXOXOXOXOXOXOXOXOXOXOXOXOXOXOXOXOXOXOXOXOXOXOXOXOXOXOXOXOXOXOX",
"OXOXOXOXOXOXOXOXOXOXOXOXOXOXOXOXOXOXOXOXOXOXOXOXOXOXOXOXOXOXOXOXOXOXOXOXOXOXOXOXOXOXOXOXOXOXOXOXOXOXOXOXOXOXOXOXOXOXOXOXOXOXOXOX",
"OXOXOXOXOXOXOXOXOXOXOXOXOXOXOXOXOXOXOXOXOXOXOXOXOXOXOXOXOXOXOXOXOXOXOXOXOXOXOXOXOXOXOXOXOXOXOXOXOXOXOXOXOXOXOXOXOXOXOXOXOXOXOXOX",
"OXOXOXOXOXOXOXOXOXOXOXOXOXOXOXOXOXOXOXOXOXOXOXOXOXOXOXOXOXOXOXOXOXOXOXOXOXOXOXOXOXOXOXOXOXOXOXOXOXOXOXOXOXOXOXOXOXOXOXOXOXOXOXOX",
"OXOXOXOXOXOXOXOXOXOXOXOXOXOXOXOXOXOXOXOXOXOXOXOXOXOXOXOXOXOXOXOXOXOXOXOXOXOXOXOXOXOXOXOXOXOXOXOXOXOXOXOXOXOXOXOXOXOXOXOXOXOXOXOX",
"OXOXOXOXOXOXOXOXOXOXOXOXOXOXOXOXOXOXOXOXOXOXOXOXOXOXOXOXOXOXOXOXOXOXOXOXOXOXOXOXOXOXOXOXOXOXOXOXOXOXOXOXOXOXOXOXOXOXOXOXOXOXOXOX",
"OXOXOXOXOXOXOXOXOXOXOXOXOXOXOXOXOXOXOXOXOXOXOXOXOXOXOXOXOXOXOXOXOXOXOXOXOXOXOXOXOXOXOXOXOXOXOXOXOXOXOXOXOXOXOXOXOXOXOXOXOXOXOXOX",
"OXOXOXOXOXOXOXOXOXOXOXOXOXOXOX  . X X X .     . OXOXOXOXOXOXOXOXOXOXOXOXOXOXOXOXOXOXOXOXOXOXOXOXOXOXOXOXOXOXOXOXOXOXOXOXOXOXOXOX",
"OXOXOXOXOXOXOXOXOXOXOXOX. X * r ;.&.2.3.>.} r $ . OXOXOXOXOXOXOXOXOXOXOXOXOXOXOXOXOXOXOXOXOXOXOXOXOXOXOXOXOXOXOXOXOXOXOXOXOXOXOX",
"OXOXOXOXOXOXOXOXOXOX  + r -.n.N.3.$.} ,.v 9 v 3.s . OXOXOXOXOXOXOXOXOXOXOXOXOXOXOXOXOXOXOXOXOXOXOXOXOXOXOXOXOXOXOXOXOXOXOXOXOXOX",
"OXOXOXOXOXOXOXOX  o r w.L.J.#.1 X X . . + > . $.j.1 . OXOXOXOXOXOXOXOXOXOXOXOXOXOXOXOXOXOXOXOXOXOXOXOXOXOXOXOXOXOXOXOXOXOXOXOXOX",
"OXOXOXOXOXOXOX  1 8.Z.m.1.9 . 2 ~ _ ~ a ( E . -.F.8   OXOXOXOXOXOXOXOXOXOXOXOXOXOXOXOXOXOXOXOXOXOXOXOXOXOXOXOXOXOXOXOXOXOXOXOXOX",
"OXOXOXOXOXOX  5 V.q.0 # # @ p ..+.o.[ [ ( , 1 Z.>.+ . OXOXOXOXOXOXOXOXOXOXOXOXOXOXOXOXOXOXOXOXOXOXOXOXOXOXOXOXOXOXOXOXOXOXOXOXOX",
"OXOXOXOXOX  5 A.V.* < ~ _ { O.[ [ ] ] _ 3 & 3.q.* 2 > . OXOXOXOXOXOXOXOXOXOXOXOXOXOXOXOXOXOXOXOXOXOXOXOXOXOXOXOXOXOXOXOXOXOXOXOX",
"OXOXOXOXOX& V.9.* @ _  ._ / _ ` ( p 3 , X A =.* < _ y . OXOXOXOXOXOXOXOXOXOXOXOXOXOXOXOXOXOXOXOXOXOXOXOXOXOXOXOXOXOXOXOXOXOXOXOX",
"OXOXOXOX  c L.9 + p a < X . + > @ + 5 3 7 5 + u ) _ W X OXOXOXOXOXOXOXOXOXOXOXOXOXOXOXOXOXOXOXOXOXOXOXOXOXOXOXOXOXOXOXOXOXOXOXOX",
"OXOXOXOX  1 ,.g + + + 2 %.2.C * X 9 9 * + 2 / / > + y 2 . OXOXOXOXOXOXOXOXOXOXOXOXOXOXOXOXOXOXOXOXOXOXOXOXOXOXOXOXOXOXOXOXOXOXOX",
"OXOXOXOX. . o $ + . 1 f A f 8 + . + > i ) p.J.e h j @ ~ 1 X OXOXOXOXOXOXOXOXOXOXOXOXOXOXOXOXOXOXOXOXOXOXOXOXOXOXOXOXOXOXOXOXOXOX",
"OXOXOXOX. - 8.*.c e e 7 7 0 V *.2.1.p.d.<.F.}.Z O % 3 _ y . . . OXOXOXOXOXOXOXOXOXOXOXOXOXOXOXOXOXOXOXOXOXOXOXOXOXOXOXOXOXOXOXOX",
"OXOXOXOXOX# C.oX.X X X[.|. XXX.XK.K.Z.e + u g.m.! E W , = % . X . OXOXOXOXOXOXOXOXOXOXOXOXOXOXOXOXOXOXOXOXOXOXOXOXOXOXOXOXOXOXOX",
"OXOXOXOXOX. 8.oXXXoX.XQ.!..XXX.XH.!.0.O k O ( k.i.) @ 6 Y.L X i @ OXOXOXOXOXOXOXOXOXOXOXOXOXOXOXOXOXOXOXOXOXOXOXOXOXOXOXOXOXOXOX",
"OXOXOXOXOX  Z XX[.8.;.) u.H.U.}.D.K.4.X % + ( s.1.> . & 6 # 3 [ 4   OXOXOXOXOXOXOXOXOXOXOXOXOXOXOXOXOXOXOXOXOXOXOXOXOXOXOXOXOXOX",
"OXOXOXOXOX  e [.C # ; o 4 p.S.Q.H.D.F.^ u / e.a.4 6 G . 9 ^ 1.O.u   OXOXOXOXOXOXOXOXOXOXOXOXOXOXOXOXOXOXOXOXOXOXOXOXOXOXOXOXOXOX",
"OXOXOXOXOXOX& q.7 c Q.%.9 e.S.D.b.I.b.z.@.y.z.:.X S P o 1.k.+.[ y   OXOXOXOXOXOXOXOXOXOXOXOXOXOXOXOXOXOXOXOXOXOXOXOXOXOXOXOXOXOX",
"OXOXOXOXOXOX  *.A * ,.s g i.S.K.D.D.U.F.h.x.b.<.2 O # s r.+.+.] , X OXOXOXOXOXOXOXOXOXOXOXOXOXOXOXOXOXOXOXOXOXOXOXOXOXOXOXOXOXOX",
"OXOXOXOXOXOX  e V.6 @ > p { l.D.Q.D.|.D.b.H.b.c.g.| :.O.+.O.o.Q o OXOXOXOXOXOXOXOXOXOXOXOXOXOXOXOXOXOXOXOXOXOXOXOXOXOXOXOXOXOXOX",
"OXOXOXOXOXOXOXo 0.n.s $ + 3 u.D.Q.S.b.c.v.b.x.x.y.+.+.+.+.o._ 2   OXOXOXOXOXOXOXOXOXOXOXOXOXOXOXOXOXOXOXOXOXOXOXOXOXOXOXOXOXOXOX",
"OXOXOXOXOXOXOX  e B.h.f.<.f.x.c.c.s.h.c.c.s.@.s.@.+.+.O.o._ 3 X OXOXOXOXOXOXOXOXOXOXOXOXOXOXOXOXOXOXOXOXOXOXOXOXOXOXOXOXOXOXOXOX",
"OXOXOXOXOXOXOXOX. g O.t.z.c.b.b.c.s.y.l.z.s.y.s.@.+.O. ./ < . OXOXOXOXOXOXOXOXOXOXOXOXOXOXOXOXOXOXOXOXOXOXOXOXOXOXOXOXOXOXOXOXOX",
"OXOXOXOXOXOXOXOX. . p ..+.h.x.s.s.h.l.z.l.y.+.+.O.O._ i * . OXOXOXOXOXOXOXOXOXOXOXOXOXOXOXOXOXOXOXOXOXOXOXOXOXOXOXOXOXOXOXOXOXOX",
"OXOXOXOXOXOXOXOXOX. X u _ o.t.O.O.O.o.o.X.X. .` / y + X   OXOXOXOXOXOXOXOXOXOXOXOXOXOXOXOXOXOXOXOXOXOXOXOXOXOXOXOXOXOXOXOXOXOXOX",
"OXOXOXOXOXOXOXOXOXOX. . @ i / ` ` ` ` _ ( E y > + , g Q ,   X OXOXOXOXOXOXOXOXOXOXOXOXOXOXOXOXOXOXOXOXOXOXOXOXOXOXOXOXOXOXOXOXOX",
"OXOXOXOXOXOXOXOXOXOXOXOX  . o * < > > > + & 5 f :.p.k.y. .,     OXOXOXOXOXOXOXOXOXOXOXOXOXOXOXOXOXOXOXOXOXOXOXOXOXOXOXOXOXOXOXOX",
"OXOXOXOXOXOXOXOXOXOXOXOXOXOX. X o & X   t V.P.v.i.o. .O.O.| ,   OXOXOXOXOXOXOXOXOXOXOXOXOXOXOXOXOXOXOXOXOXOXOXOXOXOXOXOXOXOXOXOX",
"OXOXOXOXOXOXOXOXOXOXOXOXOX. 5 =.V.n.:.4 7 N.c.t.a , , a  .` 3     . . . OXOXOXOXOXOXOXOXOXOXOXOXOXOXOXOXOXOXOXOXOXOXOXOXOXOXOXOX",
"OXOXOXOXOXOXOXOXOXOXOXOX. A P.I.x.t.[ u * d.y.Q o & & o 3 * ; b x = X . X X OXOXOXOXOXOXOXOXOXOXOXOXOXOXOXOXOXOXOXOXOXOXOXOXOXOX",
"OXOXOXOXOXOXOXOXOXOXOX. 4 g.g.e.] a > X g g.O.4 o t w + . F ~.I z & X . . OXOXOXOXOXOXOXOXOXOXOXOXOXOXOXOXOXOXOXOXOXOXOXOXOXOXOX",
"OXOXOXOXOXOXOXOXOXOXOXX _ ` 2 p <     X , 3 3 @ o & o . F ).D o   OXOXOXOXOXOXOXOXOXOXOXOXOXOXOXOXOXOXOXOXOXOXOXOXOXOXOXOXOXOXOX",
"OXOXOXOXOXOXOXOXOXOXOXX / ] ,   z D N N N M B M b q : n (.J &     OXOXOXOXOXOXOXOXOXOXOXOXOXOXOXOXOXOXOXOXOXOXOXOXOXOXOXOXOXOXOX",
"OXOXOXOXOXOXOXOXOXOXOX. < / 3 & K R.W.^.E.^./.).`.`.'.]./.J X       OXOXOXOXOXOXOXOXOXOXOXOXOXOXOXOXOXOXOXOXOXOXOXOXOXOXOXOXOXOX",
"OXOXOXOXOXOXOXOXOXOXOX. . + X . # - z m m N J Y 5.W.^.E.E._.~.T D z X   . X . OXOXOXOXOXOXOXOXOXOXOXOXOXOXOXOXOXOXOXOXOXOXOXOXOX",
"OXOXOXOXOXOXOXOXOXOXOXOXOX  OXOXOXOX. . X o & q l N F K 7.R U D b 6 o . . X X X OXOXOXOXOXOXOXOXOXOXOXOXOXOXOXOXOXOXOXOXOXOXOXOX",
"OXOXOXOXOXOXOXOXOXOXOXOXOXOXOXOXOXOXOX. X X . . . X & N T.:     . .   X X OXOXOXOXOXOXOXOXOXOXOXOXOXOXOXOXOXOXOXOXOXOXOXOXOXOXOX",
"OXOXOXOXOXOXOXOXOXOXOXOXOXOXOXOXOXOXOXX *.-., + X X . q 7.D . . OXOXOXOXOXOXOXOXOXOXOXOXOXOXOXOXOXOXOXOXOXOXOXOXOXOXOXOXOXOXOXOX",
"OXOXOXOXOXOXOXOXOXOXOXOXOXOXOXOXOXOXOX# C.!.e./ 1   . o n R.I ; . OXOXOXOXOXOXOXOXOXOXOXOXOXOXOXOXOXOXOXOXOXOXOXOXOXOXOXOXOXOXOX",
"OXOXOXOXOXOXOXOXOXOXOXOXOXOXOXOXOXOXOX* d.b.t.` ,   + 3 + z K 6.D ; X OXOXOXOXOXOXOXOXOXOXOXOXOXOXOXOXOXOXOXOXOXOXOXOXOXOXOXOXOX",
"OXOXOXOXOXOXOXOXOXOXOXOXOXOXOXOXOXOXOXX W [ [ ~ X . o i i X . ; x l & . X OXOXOXOXOXOXOXOXOXOXOXOXOXOXOXOXOXOXOXOXOXOXOXOXOXOXOX",
"OXOXOXOXOXOXOXOXOXOXOXOXOXOXOXOXOXOXOX. X , 2 # . OXOX. @ X . .     . . . OXOXOXOXOXOXOXOXOXOXOXOXOXOXOXOXOXOXOXOXOXOXOXOXOXOXOX",
"OXOXOXOXOXOXOXOXOXOXOXOXOXOXOXOXOXOXOXOXOX  . . OXOXOXOXOXOXOXOXOXOXOXOXOXOXOXOXOXOXOXOXOXOXOXOXOXOXOXOXOXOXOXOXOXOXOXOXOXOXOXOX",
"OXOXOXOXOXOXOXOXOXOXOXOXOXOXOXOXOXOXOXOXOXOXOXOXOXOXOXOXOXOXOXOXOXOXOXOXOXOXOXOXOXOXOXOXOXOXOXOXOXOXOXOXOXOXOXOXOXOXOXOXOXOXOXOX",
"OXOXOXOXOXOXOXOXOXOXOXOXOXOXOXOXOXOXOXOXOXOXOXOXOXOXOXOXOXOXOXOXOXOXOXOXOXOXOXOXOXOXOXOXOXOXOXOXOXOXOXOXOXOXOXOXOXOXOXOXOXOXOXOX",
"OXOXOXOXOXOXOXOXOXOXOXOXOXOXOXOXOXOXOXOXOXOXOXOXOXOXOXOXOXOXOXOXOXOXOXOXOXOXOXOXOXOXOXOXOXOXOXOXOXOXOXOXOXOXOXOXOXOXOXOXOXOXOXOX",
"OXOXOXOXOXOXOXOXOXOXOXOXOXOXOXOXOXOXOXOXOXOXOXOXOXOXOXOXOXOXOXOXOXOXOXOXOXOXOXOXOXOXOXOXOXOXOXOXOXOXOXOXOXOXOXOXOXOXOXOXOXOXOXOX",
"OXOXOXOXOXOXOXOXOXOXOXOXOXOXOXOXOXOXOXOXOXOXOXOXOXOXOXOXOXOXOXOXOXOXOXOXOXOXOXOXOXOXOXOXOXOXOXOXOXOXOXOXOXOXOXOXOXOXOXOXOXOXOXOX"
};
