/* XPM */
static char *f051f1fefdef4863a33943c934031f10c8acgSAhBfJPCd7f[] = {
/* columns rows colors chars-per-pixel */
"64 60 192 2 ",
"   c None",
".  c #251F13",
"X  c #262216",
"o  c #282317",
"O  c #2F2A17",
"+  c #272418",
"@  c #2A2419",
"#  c #2E291C",
"$  c #312B17",
"%  c #33261B",
"&  c #3B261D",
"*  c #322A1E",
"=  c #3B291F",
"-  c #2F2A20",
";  c #332C21",
":  c #3C2C22",
">  c #363125",
",  c #3F3025",
"<  c #3B352A",
"1  c #3E392E",
"2  c #43271F",
"3  c #462720",
"4  c #4A2721",
"5  c #442D23",
"6  c #4C2B23",
"7  c #542A24",
"8  c #5C2A26",
"9  c #433026",
"0  c #453229",
"q  c #4C352B",
"w  c #423C2C",
"e  c #55332A",
"r  c #5B332B",
"t  c #57382F",
"y  c #453E33",
"u  c #4A3933",
"i  c #5C3D36",
"p  c #563B33",
"a  c #622A27",
"s  c #652C29",
"d  c #6B2C2A",
"f  c #732C2C",
"g  c #7B2E2E",
"h  c #64352E",
"j  c #77322F",
"k  c #683A34",
"l  c #743C36",
"z  c #7B3D37",
"x  c #4E4912",
"c  c #534C11",
"v  c #595311",
"b  c #4A4334",
"n  c #4D453B",
"m  c #4E483D",
"M  c #5F4038",
"N  c #68453E",
"B  c #79433E",
"V  c #534C42",
"C  c #565147",
"Z  c #5D554C",
"A  c #5A5146",
"S  c #6F4842",
"D  c #744943",
"F  c #784D47",
"G  c #635A4B",
"H  c #7F504B",
"J  c #645D53",
"K  c #695E55",
"L  c #6A614A",
"P  c #6A655C",
"I  c #6D695F",
"U  c #71665D",
"Y  c #756D64",
"T  c #757067",
"R  c #7B746A",
"E  c #77736A",
"W  c #852F31",
"Q  c #8A2F32",
"!  c #833332",
"~  c #8E3234",
"^  c #833A37",
"/  c #893C3A",
"(  c #873E3A",
")  c #933134",
"_  c #9A3236",
"`  c #9F3338",
"'  c #933938",
"]  c #9D3C3D",
"[  c #A43339",
"{  c #AC343B",
"}  c #A43B3F",
"|  c #B3353D",
" . c #B9373F",
".. c #BE3740",
"X. c #B63E42",
"o. c #BD3941",
"O. c #C43942",
"+. c #CC3B45",
"@. c #C13640",
"#. c #D13C46",
"$. c #D13F48",
"%. c #814A46",
"&. c #994B48",
"*. c #84534E",
"=. c #89514D",
"-. c #865451",
";. c #8C5753",
":. c #915A56",
">. c #9C5F5D",
",. c #975350",
"<. c #A14745",
"1. c #A44B49",
"2. c #A94E4C",
"3. c #AC4143",
"4. c #B14D4C",
"5. c #BF4348",
"6. c #AA504E",
"7. c #AC5553",
"8. c #A45C5A",
"9. c #A65957",
"0. c #B35858",
"q. c #83766C",
"w. c #857B71",
"e. c #AA6362",
"r. c #BD6A6B",
"t. c #B46A6A",
"y. c #BF7071",
"u. c #C6474C",
"i. c #D4434B",
"p. c #D9474F",
"a. c #D5484F",
"s. c #C34E51",
"d. c #DB4B52",
"f. c #D04A50",
"g. c #C9595B",
"h. c #D55155",
"j. c #DC555B",
"k. c #D9595B",
"l. c #E04F55",
"z. c #E15257",
"x. c #E35559",
"c. c #E65A5D",
"v. c #E85C5F",
"b. c #C75E62",
"n. c #E45D61",
"m. c #E95D61",
"M. c #C66667",
"N. c #DD6266",
"B. c #D66668",
"V. c #CF6F71",
"C. c #C27374",
"Z. c #CB7476",
"A. c #CF787A",
"S. c #D27477",
"D. c #DC7274",
"F. c #D47B7E",
"G. c #DC7C7F",
"H. c #EB6265",
"J. c #EC6569",
"K. c #EE6A6E",
"L. c #E56167",
"P. c #ED6D71",
"I. c #E46C71",
"U. c #F06F73",
"Y. c #F27377",
"T. c #F37579",
"R. c #F57B7F",
"E. c #E57578",
"W. c #908367",
"Q. c #8C837A",
"!. c #8D8277",
"~. c #92857B",
"^. c #96897E",
"/. c #A19374",
"(. c #DA7F82",
"). c #ED7D81",
"_. c #F57D82",
"`. c #F97D82",
"'. c #998D84",
"]. c #9B938A",
"[. c #9C9087",
"{. c #A0948A",
"}. c #A49B93",
"|. c #AEA59D",
" X c #B4ACA4",
".X c #E78589",
"XX c #FA8489",
"oX c #F3898E",
"OX c #FD8E93",
"+X c #F68D93",
"@X c #FD9197",
"#X c #FF939A",
/* pixels */
"                                                                                                                                ",
"                                                                                                                                ",
"                                                                                                                                ",
"                                                                                                                                ",
"                                                                                                                                ",
"                                                                                                                                ",
"                                                                                                                                ",
"                                                                                                                                ",
"                                                                                                                                ",
"                                                                                                                                ",
"                                                                                                                                ",
"                                                                                                                                ",
"                                                X + + X                                                                         ",
"                                          X o * 9 0 9 5 : # @ X X                                                               ",
"                                      X : S e.Z.F.S.D.E.D.M.8.D 0 @ X                                                           ",
"                                    o i A.A.t.=.q 0 l 4.4.6.7.g.M.0.h # +                                                       ",
"                                    + ,.g.0 @ % a d 2 @ @ @ @ O 6 1.L.2.6 o                                                     ",
"                                  @ + 6 ( % a W | O. .~ W ) [ g = @ h &.1.t @                                                   ",
"                                  @ F q & % % 2 2 a W O.+.O.#.+.{ 7 % @ : &.e o                                                 ",
"                                  : .XA.p @ & r t , @ s { | | |  .| ` g @ B 2.@                                                 ",
"                                X M +X#X.XH * 6 ,.M.%.% 7 d g _ [ _ f 2 @ 9.h.=                                                 ",
"                                X :.#X@X@X@Xy.i % 9 B 9 @ % & & 2 & @ e e.E.&.%                                                 ",
"                                @ C.oXA..XXX@XoXr.S 9 @ @ e l r = k 8.S.M.l % +                                                 ",
"                                9 C.i * 9 <.H.XX#XOXG.8.8 2 % % % 0 u , * & & @                                                 ",
"                              X i >.# :.N &  .K.OX@XXXJ.j.s.} ~ j f f g ) [ 7 +                                                 ",
"                              X N >.% b.r.= z c.Y.OXY.Y.).9.&.h.L.N.^ 8 g [ 2 +                                                 ",
"                              X *.C.% f 6 ( u.v.R.R.v.R.-.# O z _.t.# x $ d &                                                   ",
"                              X =.I.r @ 8 O.l.Y.J.J.J.D.: c x 4 k.9.O v $ d & +                                                 ",
"                              X k j.4.e & ) x.K.J.U.U.n.k O O f i.f.g 2 d { 4 +                                                 ",
"                              + 4 O.d.h.B ] c.T.Y.K.U.c.u._ _ O.d.d.| W d a 2 @                                                 ",
"                              + % [ +.c.v.v.v.R.T.Y.XXc.i.p.l.d.3.h & o w b # @ @                                               ",
"                                @ f O.d.v.v.v.v.c.H.H.v.K.c.c.^ & w b @ G /.w o @                                               ",
"                                + & [ $.z.x.m.d.$.m.m.n.J.m.n.8 $ W.L @ % > $ a &                                               ",
"                                  @ 7 { +.#.d.z.d.x.x.m.z.m.m.4.5 ; $ l 4.^ ' { & +                                             ",
"                                    @ 8 { O.+.i.z.c.x.d.$.z.d.$.3.~ ] f.p.i.#.) %                                               ",
"                                    + @ 4 _ | ..O.i.p.d.p.d.+.#.#.i.#.#.#.+.{ 7 +                                               ",
"                                        + & 8 Q _ | @.+.+.+.+.+.#.+.+.+.O.| 8 o @                                               ",
"                                          + + @ % a Q [ ..@.+.O.O.@.| { Q 4 @ o                                                 ",
"                                          @ @ d 8 + % & 4 8 a f f s 7 2 @ @                                                     ",
"                                          + 9 s._ % s f 8 7 3 : O o + @                   X + @ @ @ @                           ",
"                                        @ X D L.X.& 3 4 4 ) @...s . & @               @ < n y # @ @ @                           ",
"                                        @ X :.P.@.7 . ; - ; ` O.Q % 8 %           @ ; I Q.Z > + +                               ",
"                                        + X *.T.$.f - u u - s Q 4 o a 4           @ E ].m @ X                                   ",
"                                        + X i ).5.4 . . - . % % . . & % + . + . . V ].Z @                                       ",
"                                        @ # % 0.o.s f 3 + ; w < y V C C J I T T E }.~.n . . . +                                 ",
"                                        X ; - 6 X.O.X.4 > Q.].!.~.'.'.'.].{.}.|. X}.'.Q.T P Z 1 * @ @ @ X @                     ",
"                                        . @ ; @ 3 7 4 + ; b m A G K Z G K Y Y q.w.q.^.].Q.I C 1 # @ @ + @ @                     ",
"                                        @ ; - + + . - + - - . + @ % # # ; < < u n K w.1 + . . +                                 ",
"                                      X 9 r.k # + # - . * # + @ @ 4 & o @ + + @ @ m !.C @                                       ",
"                                      X =.OXh.) 4 + % ; % 5 3 @ @ @ +           @ ; K !.J ; o .                                 ",
"                                      @ 7.`.d.@.s X q Z.V.f.[ %                   @ * V R w.P y # +                             ",
"                                      @ / i.+.| 6 + : k.J.p.{ &                     + @ @ < m V < @ @ @                         ",
"                                      @ & g ) f % @ @ j | ` 8 @                           X X X o @ @                           ",
"                                        @ @ @ @ +   @ @ % # @ @                                                                 ",
"                                                                                                                                ",
"                                                                                                                                ",
"                                                                                                                                ",
"                                                                                                                                ",
"                                                                                                                                ",
"                                                                                                                                "
};
