/* XPM */
static char *_8950f3e747143a6e92f23392c35bb86PRIu4NhxXNZt85qS[] = {
/* columns rows colors chars-per-pixel */
"64 60 195 2 ",
"   c None",
".  c #262316",
"X  c #292417",
"o  c #272418",
"O  c #2A2519",
"+  c #2E291D",
"@  c #2E2A17",
"#  c #302B17",
"$  c #32251B",
"%  c #3C261D",
"&  c #322A1E",
"*  c #3C291F",
"=  c #3A3614",
"-  c #342C22",
";  c #3B2C22",
":  c #3B2E2C",
">  c #373125",
",  c #3A3427",
"<  c #3E382C",
"1  c #3B352B",
"2  c #42271E",
"3  c #4A271F",
"4  c #462720",
"5  c #492720",
"6  c #442C22",
"7  c #4D2A23",
"8  c #532923",
"9  c #5B2A25",
"0  c #552722",
"q  c #423026",
"w  c #453329",
"e  c #4C342B",
"r  c #403A2F",
"t  c #51342B",
"y  c #5C332B",
"u  c #443D32",
"i  c #483836",
"p  c #5C3C34",
"a  c #513F3D",
"s  c #622A27",
"d  c #652C29",
"f  c #6C2D2A",
"g  c #752D2C",
"h  c #7B2E2E",
"j  c #62352D",
"k  c #6C312D",
"l  c #75312E",
"z  c #6A3A33",
"x  c #673B33",
"c  c #733A34",
"v  c #7B3C37",
"b  c #7B3834",
"n  c #625A11",
"m  c #46402F",
"M  c #474136",
"N  c #4C443A",
"B  c #5F4038",
"V  c #65433C",
"C  c #6B443D",
"Z  c #72443E",
"A  c #544E44",
"S  c #5B5343",
"D  c #5C564C",
"F  c #6D4741",
"G  c #7B4D48",
"H  c #61574D",
"J  c #635C52",
"K  c #6D644D",
"L  c #6B6459",
"P  c #6D655B",
"I  c #71675C",
"U  c #746C63",
"Y  c #786F66",
"T  c #7C756C",
"R  c #767067",
"E  c #7D7970",
"W  c #802E2F",
"Q  c #842E30",
"!  c #8A2F32",
"~  c #843131",
"^  c #8C3334",
"/  c #8D3C3A",
"(  c #803D38",
")  c #943135",
"_  c #9B3137",
"`  c #943738",
"'  c #933839",
"]  c #9D3B3D",
"[  c #A43339",
"{  c #AB343B",
"}  c #AA393D",
"|  c #B3353D",
" . c #BA363F",
".. c #B6383F",
"X. c #80433E",
"o. c #9C403F",
"O. c #A93E40",
"+. c #BE3740",
"@. c #BC3B42",
"#. c #B73C42",
"$. c #C53942",
"%. c #CD3B45",
"&. c #C83B45",
"*. c #D13C46",
"=. c #D23E48",
"-. c #8C4E4A",
";. c #884643",
":. c #924642",
">. c #934E4A",
",. c #8F524E",
"<. c #83524E",
"1. c #8E5551",
"2. c #975A57",
"3. c #A54A4A",
"4. c #AC4C4C",
"5. c #A54646",
"6. c #B24E4D",
"7. c #BD504F",
"8. c #AC5453",
"9. c #A85D5B",
"0. c #B35656",
"q. c #B25857",
"w. c #9E605D",
"e. c #83766C",
"r. c #85786E",
"t. c #897E74",
"y. c #837C73",
"u. c #A36361",
"i. c #AD6867",
"p. c #B26A6A",
"a. c #BB6666",
"s. c #CD444B",
"d. c #C44B4E",
"f. c #D5444C",
"g. c #D9464E",
"h. c #CC4D51",
"j. c #C14C52",
"k. c #DD4C53",
"l. c #C35C5E",
"z. c #C45758",
"x. c #D45657",
"c. c #DF5056",
"v. c #D95559",
"b. c #DD585B",
"n. c #E15157",
"m. c #E3565B",
"M. c #E65A5E",
"N. c #E85C5F",
"B. c #CC5F60",
"V. c #DD5F62",
"C. c #E75E64",
"Z. c #EA5E61",
"A. c #CC6364",
"S. c #C66768",
"D. c #D76668",
"F. c #CC6F70",
"G. c #C57273",
"H. c #CA7778",
"J. c #D47B7D",
"K. c #D47678",
"L. c #EA6265",
"P. c #ED656A",
"I. c #EE6A6D",
"U. c #E26468",
"Y. c #EF6D71",
"T. c #F06F73",
"R. c #E47376",
"E. c #E67A7E",
"W. c #E8797E",
"Q. c #F37479",
"!. c #F1797E",
"~. c #8F8367",
"^. c #8E8178",
"/. c #93867B",
"(. c #96897E",
"). c #A39576",
"_. c #DB7E81",
"`. c #F77E83",
"'. c #F97F84",
"]. c #998D83",
"[. c #928D85",
"{. c #9C938B",
"}. c #A1968C",
"|. c #A39B93",
" X c #ACA299",
".X c #B2A9A1",
"XX c #EF888D",
"oX c #FB8186",
"OX c #FA868C",
"+X c #FC8A8F",
"@X c #FD8E94",
"#X c #F68D92",
"$X c #FC9096",
"%X c #FF9399",
"&X c #FF949A",
/* pixels */
"                                                                                                                                ",
"                                                                                                                                ",
"                                                                                                                                ",
"                                                                                                                                ",
"                                                                                                                                ",
"                                                                                                                                ",
"                                                                                                                                ",
"                                                                                                                                ",
"                                                                                                                                ",
"                                                                                                                                ",
"                                                                                                                                ",
"                                                                                                                                ",
"                                        o o . . . .                                                                             ",
"                                o o X & q t B V p w * + o o                                                                     ",
"                            . X e G q.F.R.R.D.D.l.A.l.0.v 6 X .                                                                 ",
"                          o e u.J.a.q.z.6.c 6 * & 6 v 5.5.:.C $ O                                                               ",
"                        & <.J.K.x & $ $ + O 8 f f 5 . O + $ -.:.+                                                               ",
"                      X 1.E.C & % ^ [ ) ! { $.*.%. .Q ! W $ p V.y o                                                             ",
"                      + q.4.O 8 Q [ [ { $.&. . . .| | [ 0 O 2.L.j X                                                             ",
"                    X . 6 v * 2 4 % $ O 3 ! [ ) ) ) Q 2 $ ,.W.o.+ X                                                             ",
"                    . w p $ + + 6 z ,.-.e + % $ $ $ $ w 9.G.Z $ % O                                                             ",
"                    . V XXp.V * $ t Z >.;.* O j v y 7 p B & * h g O                                                             ",
"                    . V %X&X#XJ.w.C e ; * $ $ $ & $ $ % 8 h _ ..W X                                                             ",
"                    . V @X&X@X%X%X@XXX_.J.G.3.` ` _ } d.7.d % 8 h +                                                             ",
"                    . V $XJ.i.a.U.Q.+X%X%XQ.P.I.l.5.x.oXu.# n # d % .                                                           ",
"                    . V H.q & + f f.Q.oX$XI.'.G.> @ j D.a.& = & ! f O                                                           ",
"                    . V 2.+ p.2.& h m.Q.+XL.Q.G = n $ } b.` k h ! 9 O O                                                         ",
"                    . p u.$ 4.8.z O.M.I.I.I.I.-.O # 7  .c.f.) 7 & r $ O X                                                       ",
"                      w H.e 3 7 b g.L.Q.N.T.P.v.` Q } f.h.k @ O K ).u $ $ X                                                     ",
"                      & H.q.2 $ d #.N.I.T.I.I.M.f.f.n.h.d > S + & , + h d X                                                     ",
"                      . ,.C.j.z 2 / m.!.oXI.+XL.M.M.Z.' . K ~.& z ( / $.h o                                                     ",
"                      o 7 @.g.m.x.b.M.I.I.L.L.M.P.P.N.7.7 > + 7 h.k.=.$.s o                                                     ",
"                        X h &.k.N.N.N.N.k.k.M.C.M.Z.C.C.j.' ^ @.f.%.%.[ 2 X                                                     ",
"                        O % _ %.c.M.m.M.k.f.m.M.k.=.n.g.*.=.=.*.%.%. .s .                                                       ",
"                          O 4 _ $.f.=.f.k.m.m.m.k.g.k.=.*.*.%.%.$.| g $ X                                                       ",
"                            X % W | $.$.&.%.=.f.=.=.*.*.*.%.$.+.) 9 O X                                                         ",
"                              o O 5 h _ { { | +.+.+.$.+.+.) h 0 $ X                                                             ",
"                                  O O $ 4 8 9 s d 9 8 7 ; $ o . X                                                               ",
"                                      O . . . 6 w 7 8 d Q ) 0 o X                                                               ",
"                                      X 6 9 $ G b.s.#.+.*.*.O.% X X                                                             ",
"                                    O F z.+.4 d &.g 4 ; h $.$.f X X                                                             ",
"                                  X F _.k.! + ^ Q o > - $ Q #.9 X O           o O                                               ",
"                                  ; K.C. .8 % ) 0 - a i + 4 8 O X X O   . + < 1 - X X X                                         ",
"                                . C !.f._ $ O % $ + - - O o O O O o o - J y.L < + X X X                                         ",
"                                o ;.v.Q 5 + ; o - + O X - O - : O O + T {.D + .                                                 ",
"                                O ~ +.7 O O O o $ $ O o O O O O . . A {.H O                                                     ",
"                                . 7 +.| d o A Y H J P U Y U U T T y.|.y.u . .                                                   ",
"                                  O 5 g 0 O J t.t././.t.t.[.].|.|..X}.].T H A u - O X O X                                       ",
"                                    O o & ; + + , u N N A H J U e.r.r.].|.[.T J M - O X O X O                                   ",
"                                      X 1.K.] 0 $ . $ ; - & - < u N Y Y > X o . o X O O X                                       ",
"                                      O a.'.g. .0 . e K.F.o.f + O O H t.> o                                                     ",
"                                      + 5.n.=.| 7 O 2 A.P.g.| % O O u T T u . .                                                 ",
"                                      X 9 _ [ Q $ X X l #.[ s X     X < I t.P M + X                                             ",
"                                        O $ % + X   X X $ + X X       O + , A L N - X X                                         ",
"                                            o                             . . X + + X X                                         ",
"                                                                                                                                ",
"                                                                                                                                ",
"                                                                                                                                ",
"                                                                                                                                ",
"                                                                                                                                "
};
