/* XPM */
static char *result[] = {
/* columns rows colors chars-per-pixel */
"64 60 191 2 ",
"   c #262316",
".  c #282317",
"X  c #2F2A17",
"o  c #272418",
"O  c #2B2519",
"+  c #2F291E",
"@  c #302C16",
"#  c #34261B",
"$  c #3A261D",
"%  c #33291D",
"&  c #3B291E",
"*  c #3E3A14",
"=  c #302721",
"-  c #342B22",
";  c #3C2C23",
":  c #3A2D2A",
">  c #363125",
",  c #3A3326",
"<  c #3B342B",
"1  c #3E3A2C",
"2  c #43261E",
"3  c #44281F",
"4  c #462720",
"5  c #4A2721",
"6  c #432D23",
"7  c #4B2B23",
"8  c #532923",
"9  c #5B2A25",
"0  c #592F29",
"q  c #453329",
"w  c #4C342B",
"e  c #473529",
"r  c #54352C",
"t  c #5C332B",
"y  c #503027",
"u  c #433D32",
"i  c #463834",
"p  c #513830",
"a  c #5B3A32",
"s  c #612A27",
"d  c #642B29",
"f  c #6C2C2A",
"g  c #742D2C",
"h  c #7A2E2E",
"j  c #6E332E",
"k  c #65372F",
"l  c #78312F",
"z  c #653B34",
"x  c #7B3330",
"c  c #773B36",
"v  c #7A3A35",
"b  c #675E10",
"n  c #6A6010",
"m  c #4A4234",
"M  c #4B453B",
"N  c #4E483E",
"B  c #474034",
"V  c #5B543F",
"C  c #534B39",
"Z  c #64423B",
"A  c #6A423C",
"S  c #74453F",
"D  c #4F4C41",
"F  c #534C42",
"G  c #5B5349",
"H  c #6D4741",
"J  c #784D47",
"K  c #7F514C",
"L  c #625B51",
"P  c #6A5F56",
"I  c #6A6359",
"U  c #72675E",
"Y  c #746A52",
"T  c #6A624B",
"R  c #6F6A60",
"E  c #716C63",
"W  c #7A7268",
"Q  c #767066",
"!  c #812F2F",
"~  c #822E30",
"^  c #882F32",
"/  c #843231",
"(  c #8C3233",
")  c #873B38",
"_  c #933135",
"`  c #9B3136",
"'  c #963A3A",
"]  c #A33339",
"[  c #AC343B",
"{  c #A63B3E",
"}  c #B4353D",
"|  c #B9363F",
" . c #B2383F",
".. c #89423D",
"X. c #AC3E41",
"o. c #BD3640",
"O. c #B93B42",
"+. c #C43942",
"@. c #CC3B45",
"#. c #D13C46",
"$. c #D23F48",
"%. c #854642",
"&. c #924E4B",
"*. c #994542",
"=. c #81514C",
"-. c #9B514E",
";. c #8E5754",
":. c #975956",
">. c #A14C4A",
",. c #AD4345",
"<. c #BC4E4E",
"1. c #B64949",
"2. c #AA5655",
"3. c #BD5354",
"4. c #BC5A5A",
"5. c #9D605E",
"6. c #84795E",
"7. c #A3615F",
"8. c #85796F",
"9. c #857967",
"0. c #867C73",
"q. c #897C72",
"w. c #AC6564",
"e. c #A56362",
"r. c #BD6364",
"t. c #B46B6A",
"y. c #B36463",
"u. c #BF7171",
"i. c #C24147",
"p. c #C24449",
"a. c #CE434A",
"s. c #D6444C",
"d. c #DA464E",
"f. c #D5494F",
"g. c #D9484F",
"h. c #CC4D53",
"j. c #D24B51",
"k. c #DC4C52",
"l. c #C75759",
"z. c #DC5256",
"x. c #DD5358",
"c. c #D3585A",
"v. c #E04E54",
"b. c #E15157",
"n. c #E2565A",
"m. c #E6595D",
"M. c #E85B5F",
"N. c #D45F61",
"B. c #E75C62",
"V. c #EA5E61",
"C. c #CB6365",
"Z. c #C46A6A",
"A. c #C26060",
"S. c #D86568",
"D. c #D76F72",
"F. c #C97476",
"G. c #DD7276",
"H. c #D67A7D",
"J. c #D67779",
"K. c #EB6266",
"L. c #ED676B",
"P. c #EE696D",
"I. c #E56569",
"U. c #EE6C70",
"Y. c #F16D72",
"T. c #E47679",
"R. c #F17277",
"E. c #F3757A",
"W. c #8D8278",
"Q. c #92867B",
"!. c #DE7D80",
"~. c #E67F83",
"^. c #F97D82",
"/. c #958C83",
"(. c #998D84",
"). c #969189",
"_. c #9C948B",
"`. c #9D9187",
"'. c #A79D94",
"]. c #A7A29A",
"[. c #B0A89F",
"{. c #AFAAA3",
"}. c #DE8083",
"|. c #E58386",
" X c #EC878B",
".X c #F7858A",
"XX c #F28B91",
"oX c #FE8D93",
"OX c #FD9196",
"+X c #FF9399",
"@X c None",
/* pixels */
"@X@X@X@X@X@X@X@X@X@X@X@X@X@X@X@X@X@X@X@X@X@X@X@X@X@X@X@X@X@X@X@X@X@X@X@X@X@X@X@X@X@X@X@X@X@X@X@X@X@X@X@X@X@X@X@X@X@X@X@X@X@X@X@X",
"@X@X@X@X@X@X@X@X@X@X@X@X@X@X@X@X@X@X@X@X@X@X@X@X@X@X@X@X@X@X@X@X@X@X@X@X@X@X@X@X@X@X@X@X@X@X@X@X@X@X@X@X@X@X@X@X@X@X@X@X@X@X@X@X",
"@X@X@X@X@X@X@X@X@X@X@X@X@X@X@X@X@X@X@X@X@X@X@X@X@X@X@X@X@X@X@X@X@X@X@X@X@X@X@X@X@X@X@X@X@X@X@X@X@X@X@X@X@X@X@X@X@X@X@X@X@X@X@X@X",
"@X@X@X@X@X@X@X@X@X@X@X@X@X@X@X@X@X@X@X@X@X@X@X@X@X@X@X@X@X@X@X@X@X@X@X@X@X@X@X@X@X@X@X@X@X@X@X@X@X@X@X@X@X@X@X@X@X@X@X@X@X@X@X@X",
"@X@X@X@X@X@X@X@X@X@X@X@X@X@X@X@X@X@X@X@X@X@X@X@X@X@X@X@X@X@X@X@X@X@X@X@X@X@X@X@X@X@X@X@X@X@X@X@X@X@X@X@X@X@X@X@X@X@X@X@X@X@X@X@X",
"@X@X@X@X@X@X@X@X@X@X@X@X@X@X@X@X@X@X@X@X@X@X@X@X@X@X@X@X@X@X@X@X@X@X@X@X@X@X@X@X@X@X@X@X@X@X@X@X@X@X@X@X@X@X@X@X@X@X@X@X@X@X@X@X",
"@X@X@X@X@X@X@X@X@X@X@X@X@X@X@X@X@X@X@X@X@X@X@X@X@X@X@X@X@X@X@X@X@X@X@X@X@X@X@X@X@X@X@X@X@X@X@X@X@X@X@X@X@X@X@X@X@X@X@X@X@X@X@X@X",
"@X@X@X@X@X@X@X@X@X@X@X@X@X@X@X@X@X@X@X@X@X@X@X@X@X@X@X@X@X@X@X@X@X@X@X@X@X@X@X@X@X@X@X@X@X@X@X@X@X@X@X@X@X@X@X@X@X@X@X@X@X@X@X@X",
"@X@X@X@X@X@X@X@X@X@X@X@X@X@X@X@X@X@X@X@X@X@X@X@X@X@X@X@X@X@X@X@X@X@X@X@X@X@X@X@X@X@X@X@X@X@X@X@X@X@X@X@X@X@X@X@X@X@X@X@X@X@X@X@X",
"@X@X@X@X@X@X@X@X@X@X@X@X@X@X@X@X@X@X@X@X@X@X@X@X@X@X@X@X@X@X@X@X@X@X@X@X@X@X@X@X@X@X@X@X@X@X@X@X@X@X@X@X@X@X@X@X@X@X@X@X@X@X@X@X",
"@X@X@X@X@X@X@X@X@X@X@X@X@X@X@X@X@X@X@X@X@X@X@X@X@X@X@X@X@X@X@X@X@X@X@X@X@X@X@X@X@X@X@X@X@X@X@X@X@X@X@X@X@X@X@X@X@X@X@X@X@X@X@X@X",
"@X@X@X@X@X@X@X@X@X@X@X@X@X@X@X@X@X@X@X@X@X@X@X@X@X@X@X@X@X@X@X@X@X@X@X@X@X@X@X@X@X@X@X@X@X@X@X@X@X@X@X@X@X@X@X@X@X@X@X@X@X@X@X@X",
"@X@X@X@X@X@X@X@X@X@X@X@X@X@X@X@X@X@X@X@X          @X@X@X@X@X@X@X@X@X@X@X@X@X@X@X@X@X@X@X@X@X@X@X@X@X@X@X@X@X@X@X@X@X@X@X@X@X@X@X",
"@X@X@X@X@X@X@X@X@X@X@X@X@X@X@X@X    + & q r Z z w 6 # .   @X@X@X@X@X@X@X@X@X@X@X@X@X@X@X@X@X@X@X@X@X@X@X@X@X@X@X@X@X@X@X@X@X@X@X",
"@X@X@X@X@X@X@X@X@X@X@X@X@X    % a &.r.D.G.S.C.A.C.C.3...w O . @X@X@X@X@X@X@X@X@X@X@X@X@X@X@X@X@X@X@X@X@X@X@X@X@X@X@X@X@X@X@X@X@X",
"@X@X@X@X@X@X@X@X@X@X@X@X  + J F.D.S.S.3.v q % $ 3 c ....%.%.$ . @X@X@X@X@X@X@X@X@X@X@X@X@X@X@X@X@X@X@X@X@X@X@X@X@X@X@X@X@X@X@X@X",
"@X@X@X@X@X@X@X@X@X@X@Xo p u.|.K ; $ 2 % . 8 f f 3 O # $ . &.>.X @X@X@X@X@X@X@X@X@X@X@X@X@X@X@X@X@X@X@X@X@X@X@X@X@X@X@X@X@X@X@X@X",
"@X@X@X@X@X@X@X@X@X@X. A H.e.a # f / h g ] +.#.@.| ` ` ~ O S K.t o @X@X@X@X@X@X@X@X@X@X@X@X@X@X@X@X@X@X@X@X@X@X@X@X@X@X@X@X@X@X@X",
"@X@X@X@X@X@X@X@X@X@X% Z.4.# $ h | | | +.+.| | |  .} _ 2 $ r.c.w o @X@X@X@X@X@X@X@X@X@X@X@X@X@X@X@X@X@X@X@X@X@X@X@X@X@X@X@X@X@X@X",
"@X@X@X@X@X@X@X@X@X@X. v *.# 8 9 8 $ # 9 _ ] ` _ _ g $ 2 y.G.z . . @X@X@X@X@X@X@X@X@X@X@X@X@X@X@X@X@X@X@X@X@X@X@X@X@X@X@X@X@X@X@X",
"@X@X@X@X@X@X@X@X@X. + % & & + & w A A 6 $ 2 # # $ + q w.7.w $ 3 . @X@X@X@X@X@X@X@X@X@X@X@X@X@X@X@X@X@X@X@X@X@X@X@X@X@X@X@X@X@X@X",
"@X@X@X@X@X@X@X@X@X  w t.H & O ; k :.2.-.6 O t v r 6 y q $ 9 ` ! + @X@X@X@X@X@X@X@X@X@X@X@X@X@X@X@X@X@X@X@X@X@X@X@X@X@X@X@X@X@X@X",
"@X@X@X@X@X@X@X@X@X  p XXOXH.5.H w # # # + O % # # $ 3 d ^ _ ] ( + @X@X@X@X@X@X@X@X@X@X@X@X@X@X@X@X@X@X@X@X@X@X@X@X@X@X@X@X@X@X@X",
"@X@X@X@X@X@X@X@X@X  p XX+XOX+XOX XJ.F.y.y.-.' ' { O.h.c.0 @ % f $ o @X@X@X@X@X@X@X@X@X@X@X@X@X@X@X@X@X@X@X@X@X@X@X@X@X@X@X@X@X@X",
"@X@X@X@X@X@X@X@X@X  w XX+X|.|.E.^.oX+XOX.XK.Y.C.>.<.E.H.@ n * d 9   @X@X@X@X@X@X@X@X@X@X@X@X@X@X@X@X@X@X@X@X@X@X@X@X@X@X@X@X@X@X",
"@X@X@X@X@X@X@X@X@X  p  X:.q 6 / j.Y..XoXE.R.~.e @ 2 3.T.r X % ( _ $ . @X@X@X@X@X@X@X@X@X@X@X@X@X@X@X@X@X@X@X@X@X@X@X@X@X@X@X@X@X",
"@X@X@X@X@X@X@X@X@X@Xq t.- A =.% g x.Y.oXP.Y.y.@ n @ ^ z.i._ / f 2 O . . @X@X@X@X@X@X@X@X@X@X@X@X@X@X@X@X@X@X@X@X@X@X@X@X@X@X@X@X",
"@X@X@X@X@X@X@X@X@X@X; w.% &.T.A j j.L.R.P.L.r.& X $ ] g.z.( 2 & T C . O . @X@X@X@X@X@X@X@X@X@X@X@X@X@X@X@X@X@X@X@X@X@X@X@X@X@X@X",
"@X@X@X@X@X@X@X@X@X@X+ t.Z 2 l 7 p.v.R.K.P.U.M.,./ ] a.f.l +   B 6.V $ d + @X@X@X. @X@X@X@X@X@X@X@X@X@X@X@X@X@X@X@X@X@X@X@X@X@X@X",
"@X@X@X@X@X@X@X@X@X@Xo :.u.& # 9  .z.L.P.U.U.K.g.s.b.n.x + Y m   # % x ] $   . . . @X@X@X@X@X@X@X@X@X@X@X@X@X@X@X@X@X@X@X@X@X@X@X",
"@X@X@X@X@X@X@X@X@X@Xo Z I.1.t + 8 h.L..XP..XR.m.M.M.c.2 , W.* k h.1.@.] $ . + O @X@X@X@X@X@X@X@X@X@X@X@X@X@X@X@X@X@X@X@X@X@X@X@X",
"@X@X@X@X@X@X@X@X@X@X@X- ,.v.z.<.1.x.K.R.L.K.M.V.U.M.m.*.6 % 6 ,.d.$.+.9 > M +   @X@X@X@X@X@X@X@X@X@X@X@X@X@X@X@X@X@X@X@X@X@X@X@X",
"@X@X@X@X@X@X@X@X@X@X@X. 9 +.$.m.M.M.M.m.d.m.M.m.m.m.M.b.i.,.+.#.#.#.! - W u   @X@X@X@X@XO o . @X@X@X@X@X@X@X@X@X@X@X@X@X@X@X@X@X",
"@X@X@X@X@X@X@X@X@X@X@X. # ~ +.k.M.m.m.m.s.k.m.m.s.s.b.#.#.#.@.#.+.[ & I W + @X@X@Xo + o o O @X@X@X@X@X@X@X@X@X@X@X@X@X@X@X@X@X@X",
"@X@X@X@X@X@X@X@X@X@X@X@X. # ^ +.d.s.d.k.b.n.m.b.k.d.d.s.#.@.@.+.| g - ).L . @X@X. + + . O @X@X@X@X@X@X@X@X@X@X@X@X@X@X@X@X@X@X@X",
"@X@X@X@X@X@X@X@X@X@X@X@X@X. # g [ +.+.+.@.s.s.s.s.#.#.#.#.+.} ( 9 . < ).G .   1 L u . . @X@X@X@X@X@X@X@X@X@X@X@X@X@X@X@X@X@X@X@X",
"@X@X@X@X@X@X@X@X@X@X@X@X@X@X. . 3 h ` [ } } } | | | | [ _ g 7 # .   < _.U m E ).F . @X@X@X@X@X@X@X@X@X@X@X@X@X@X@X@X@X@X@X@X@X@X",
"@X@X@X@X@X@X@X@X@X@X@X@X@X@X@X@X. O # 3 8 s f s 8 8 5 $ $ % O       F ].Q.'.'.N   @X@X@X@X@X@X@X@X@X@X@X@X@X@X@X@X@X@X@X@X@X@X@X",
"@X@X@X@X@X@X@X@X@X@X@X@X@X@X@X@X@X@X. . o   + . 6 t j ) ,. .8   - E {.'.W.Q.M   o @X@X  + . . . @X@X@X@X@X@X@X@X@X@X@X@X@X@X@X@X",
"@X@X@X@X@X@X@X@X@X@X@X@X@X@X@X@X@X@X@X@X  t _ % ) f.o.+.+.! $ F /.{.`.q.R 0.I > - < M G u + . @X@X@X@X@X@X@X@X@X@X@X@X@X@X@X@X@X",
"@X@X@X@X@X@X@X@X@X@X@X@X@X@X@X@X@X@X@X  , l.O.# s h 2 2 5 > E _./.8.U F u L 0.q.8.8.E N % o @X@X@X@X@X@X@X@X@X@X@X@X@X@X@X@X@X@X",
"@X@X@X@X@X@X@X@X@X@X@X@X@X@X@X@X@X@X@X  K P. .4 # + o   B 0./.8.P F < + . = u M B > O   @X@X@X@X@X@X@X@X@X@X@X@X@X@X@X@X@X@X@X@X",
"@X@X@X@X@X@X@X@X@X@X@X@X@X@X@X@X@X@X@X. 7.P.o.5 o o . F W.Q.P N ; + O . @X. . . .   @X@X@X@X@X@X@X@X@X@X@X@X@X@X@X@X@X@X@X@X@X@X",
"@X@X@X@X@X@X@X@X@X@X@X@X@X@X@X@X@X@X@X. 7.L.+.8 o < W Q.0.G - .   3 8 . @X@X@X@X@X@X@X@X@X@X@X@X@X@X@X@X@X@X@X@X@X@X@X@X@X@X@X@X",
"@X@X@X@X@X@X@X@X@X@X@X@X@X@X@X@X@X@X@X. ;.P.h # . L 0.G > . = : . 7 l . @X@X@X@X@X@X@X@X@X@X@X@X@X@X@X@X@X@X@X@X@X@X@X@X@X@X@X@X",
"@X@X@X@X@X@X@X@X@X@X@X@X@X@X@X@X@X@X@X. t j.h 9 4 O + O ; = + < . s ` # @X@X@X@X@X@X@X@X@X@X@X@X@X@X@X@X@X@X@X@X@X@X@X@X@X@X@X@X",
"@X@X@X@X@X@X@X@X@X@X@X@X@X@X@X@X@X@X@X@X# ( @.o.h . . + i : . + . ~ ( O @X@X@X@X@X@X@X@X@X@X@X@X@X@X@X@X@X@X@X@X@X@X@X@X@X@X@X@X",
"@X@X@X@X@X@X@X@X@X@X@X@X@X@X@X@X@X@X@X@X. O 9 8 # = = . i = . o # 9 # . @X@X@X@X@X@X@X@X@X@X@X@X@X@X@X@X@X@X@X@X@X@X@X@X@X@X@X@X",
"@X@X@X@X@X@X@X@X@X@X@X@X@X@X@X@X@X@X@X@X+ w +     + #   O . . . . . o @X@X@X@X@X@X@X@X@X@X@X@X@X@X@X@X@X@X@X@X@X@X@X@X@X@X@X@X@X",
"@X@X@X@X@X@X@X@X@X@X@X@X@X@X@X@X@X@X@Xo ; J.2.s $ . + 6 r j d + @X@X@X@X@X@X@X@X@X@X@X@X@X@X@X@X@X@X@X@X@X@X@X@X@X@X@X@X@X@X@X@X",
"@X@X@X@X@X@X@X@X@X@X@X@X@X@X@X@X@X@X@Xo w XXP.@.` # r !.T.b.` # @X@X@X@X@X@X@X@X@X@X@X@X@X@X@X@X@X@X@X@X@X@X@X@X@X@X@X@X@X@X@X@X",
"@X@X@X@X@X@X@X@X@X@X@X@X@X@X@X@X@X@X@X@X6 S.B.@.] $ 7 S.K.d.] # @X@X@X@X@X@X@X@X@X@X@X@X@X@X@X@X@X@X@X@X@X@X@X@X@X@X@X@X@X@X@X@X",
"@X@X@X@X@X@X@X@X@X@X@X@X@X@X@X@X@X@X@X@X+ ( O.[ h O O x } ` 9 . @X@X@X@X@X@X@X@X@X@X@X@X@X@X@X@X@X@X@X@X@X@X@X@X@X@X@X@X@X@X@X@X",
"@X@X@X@X@X@X@X@X@X@X@X@X@X@X@X@X@X@X@X@Xo # 5 2 O . . + $ # . . @X@X@X@X@X@X@X@X@X@X@X@X@X@X@X@X@X@X@X@X@X@X@X@X@X@X@X@X@X@X@X@X",
"@X@X@X@X@X@X@X@X@X@X@X@X@X@X@X@X@X@X@X@X@X@X. . @X@X@X@X@X@X@X@X@X@X@X@X@X@X@X@X@X@X@X@X@X@X@X@X@X@X@X@X@X@X@X@X@X@X@X@X@X@X@X@X",
"@X@X@X@X@X@X@X@X@X@X@X@X@X@X@X@X@X@X@X@X@X@X@X@X@X@X@X@X@X@X@X@X@X@X@X@X@X@X@X@X@X@X@X@X@X@X@X@X@X@X@X@X@X@X@X@X@X@X@X@X@X@X@X@X",
"@X@X@X@X@X@X@X@X@X@X@X@X@X@X@X@X@X@X@X@X@X@X@X@X@X@X@X@X@X@X@X@X@X@X@X@X@X@X@X@X@X@X@X@X@X@X@X@X@X@X@X@X@X@X@X@X@X@X@X@X@X@X@X@X",
"@X@X@X@X@X@X@X@X@X@X@X@X@X@X@X@X@X@X@X@X@X@X@X@X@X@X@X@X@X@X@X@X@X@X@X@X@X@X@X@X@X@X@X@X@X@X@X@X@X@X@X@X@X@X@X@X@X@X@X@X@X@X@X@X",
"@X@X@X@X@X@X@X@X@X@X@X@X@X@X@X@X@X@X@X@X@X@X@X@X@X@X@X@X@X@X@X@X@X@X@X@X@X@X@X@X@X@X@X@X@X@X@X@X@X@X@X@X@X@X@X@X@X@X@X@X@X@X@X@X",
"@X@X@X@X@X@X@X@X@X@X@X@X@X@X@X@X@X@X@X@X@X@X@X@X@X@X@X@X@X@X@X@X@X@X@X@X@X@X@X@X@X@X@X@X@X@X@X@X@X@X@X@X@X@X@X@X@X@X@X@X@X@X@X@X"
};
