/* XPM */
static char *result[] = {
/* columns rows colors chars-per-pixel */
"64 60 187 2 ",
"   c #262316",
".  c #282317",
"X  c #272418",
"o  c #2A2419",
"O  c #2F2A1D",
"+  c #33261B",
"@  c #3B261D",
"#  c #33291D",
"$  c #3A291E",
"%  c #343016",
"&  c #383513",
"*  c #2F2620",
"=  c #312721",
"-  c #322B21",
";  c #3C2C22",
":  c #3A2D2A",
">  c #373126",
",  c #383227",
"<  c #3B362B",
"1  c #3D382B",
"2  c #43271F",
"3  c #442C22",
"4  c #4B2A22",
"5  c #4F2721",
"6  c #532A24",
"7  c #5B2A25",
"8  c #582F29",
"9  c #44332C",
"0  c #4E332A",
"q  c #453027",
"w  c #52332B",
"e  c #5A322A",
"r  c #443C32",
"t  c #523931",
"y  c #5B3B33",
"u  c #5A3730",
"i  c #612B27",
"p  c #652C28",
"a  c #6D2C2A",
"s  c #752D2C",
"d  c #7A2E2E",
"f  c #62352E",
"g  c #7B302E",
"h  c #693730",
"j  c #693E37",
"k  c #7C3C36",
"l  c #723933",
"z  c #454013",
"x  c #5C5411",
"c  c #685F10",
"v  c #46402F",
"b  c #444035",
"n  c #4B453A",
"m  c #494337",
"M  c #544D3A",
"N  c #57503C",
"B  c #64433C",
"V  c #6B443E",
"C  c #74433D",
"Z  c #544D43",
"A  c #565046",
"S  c #764B46",
"D  c #7A4E4A",
"F  c #774944",
"G  c #61584B",
"H  c #645C52",
"J  c #6A5F57",
"K  c #6D645B",
"L  c #736955",
"P  c #7A6F65",
"I  c #776B62",
"U  c #7C7167",
"Y  c #7B756B",
"T  c #7F7A72",
"R  c #842F30",
"E  c #8B2F32",
"W  c #863132",
"Q  c #8D3334",
"!  c #8A3F3B",
"~  c #8A3837",
"^  c #923134",
"/  c #9B3237",
"(  c #9A373A",
")  c #A53339",
"_  c #AD353C",
"`  c #A33C3E",
"'  c #B4353D",
"]  c #B9353F",
"[  c #B4383E",
"{  c #83413C",
"}  c #93423F",
"|  c #BE3740",
" . c #B33F43",
".. c #BB3941",
"X. c #C43942",
"o. c #CB3A44",
"O. c #D13D46",
"+. c #D23F48",
"@. c #834945",
"#. c #8B4F4B",
"$. c #814D49",
"%. c #984B48",
"&. c #81524D",
"*. c #8C514D",
"=. c #8C5552",
"-. c #965754",
";. c #A54343",
":. c #AA4747",
">. c #B24345",
",. c #B54A4A",
"<. c #B84044",
"1. c #AB5655",
"2. c #AE5B5A",
"3. c #B4595A",
"4. c #BC5857",
"5. c #A0615F",
"6. c #86796F",
"7. c #837D73",
"8. c #8A7D73",
"9. c #AA6564",
"0. c #A86664",
"q. c #B66A69",
"w. c #BC6F70",
"e. c #CB434A",
"r. c #CB484D",
"t. c #C74147",
"y. c #D4434B",
"u. c #D9474F",
"i. c #D9484F",
"p. c #D44B51",
"a. c #DC4C53",
"s. c #CC5A5C",
"d. c #DD5156",
"f. c #D3575B",
"g. c #DE545B",
"h. c #DA5B5D",
"j. c #D0595A",
"k. c #E05157",
"l. c #E25459",
"z. c #E55A5D",
"x. c #E85C5F",
"c. c #EA5E62",
"v. c #E65C60",
"b. c #C56263",
"n. c #CA6465",
"m. c #C36869",
"M. c #D86769",
"N. c #CB7475",
"B. c #CD7779",
"V. c #D57C7E",
"C. c #D77578",
"Z. c #EB6266",
"A. c #EC6669",
"S. c #EE696D",
"D. c #E4656A",
"F. c #E96D70",
"G. c #F16E73",
"H. c #EA7A7F",
"J. c #E57174",
"K. c #F27276",
"L. c #F3767B",
"P. c #F57A7F",
"I. c #988B6E",
"U. c #8C8176",
"Y. c #8E857C",
"T. c #8C887F",
"R. c #93857B",
"E. c #988A7F",
"W. c #EC7D82",
"Q. c #F57D82",
"!. c #8C8880",
"~. c #958C83",
"^. c #9C948C",
"/. c #9B9086",
"(. c #A3988E",
"). c #A29A92",
"_. c #ACA49B",
"`. c #AFA9A1",
"'. c #DE8184",
"]. c #E78286",
"[. c #F5898E",
"{. c #FA858A",
"}. c #FD8D93",
"|. c #F18B90",
" X c #FD9096",
".X c #FF9399",
"XX c None",
/* pixels */
"XXXXXXXXXXXXXXXXXXXXXXXXXXXXXXXXXXXXXXXXXXXXXXXXXXXXXXXXXXXXXXXXXXXXXXXXXXXXXXXXXXXXXXXXXXXXXXXXXXXXXXXXXXXXXXXXXXXXXXXXXXXXXXXX",
"XXXXXXXXXXXXXXXXXXXXXXXXXXXXXXXXXXXXXXXXXXXXXXXXXXXXXXXXXXXXXXXXXXXXXXXXXXXXXXXXXXXXXXXXXXXXXXXXXXXXXXXXXXXXXXXXXXXXXXXXXXXXXXXX",
"XXXXXXXXXXXXXXXXXXXXXXXXXXXXXXXXXXXXXXXXXXXXXXXXXXXXXXXXXXXXXXXXXXXXXXXXXXXXXXXXXXXXXXXXXXXXXXXXXXXXXXXXXXXXXXXXXXXXXXXXXXXXXXXX",
"XXXXXXXXXXXXXXXXXXXXXXXXXXXXXXXXXXXXXXXXXXXXXXXXXXXXXXXXXXXXXXXXXXXXXXXXXXXXXXXXXXXXXXXXXXXXXXXXXXXXXXXXXXXXXXXXXXXXXXXXXXXXXXXX",
"XXXXXXXXXXXXXXXXXXXXXXXXXXXXXXXXXXXXXXXXXXXXXXXXXXXXXXXXXXXXXXXXXXXXXXXXXXXXXXXXXXXXXXXXXXXXXXXXXXXXXXXXXXXXXXXXXXXXXXXXXXXXXXXX",
"XXXXXXXXXXXXXXXXXXXXXXXXXXXXXXXXXXXXXXXXXXXXXXXXXXXXXXXXXXXXXXXXXXXXXXXXXXXXXXXXXXXXXXXXXXXXXXXXXXXXXXXXXXXXXXXXXXXXXXXXXXXXXXXX",
"XXXXXXXXXXXXXXXXXXXXXXXXXXXXXXXXXXXXXXXXXXXXXXXXXXXXXXXXXXXXXXXXXXXXXXXXXXXXXXXXXXXXXXXXXXXXXXXXXXXXXXXXXXXXXXXXXXXXXXXXXXXXXXXX",
"XXXXXXXXXXXXXXXXXXXXXXXXXXXXXXXXXXXXXXXXXXXXXXXXXXXXXXXXXXXXXXXXXXXXXXXXXXXXXXXXXXXXXXXXXXXXXXXXXXXXXXXXXXXXXXXXXXXXXXXXXXXXXXXX",
"XXXXXXXXXXXXXXXXXXXXXXXXXXXXXXXXXXXXXXXXXXXXXXXXXXXXXXXXXXXXXXXXXXXXXXXXXXXXXXXXXXXXXXXXXXXXXXXXXXXXXXXXXXXXXXXXXXXXXXXXXXXXXXXX",
"XXXXXXXXXXXXXXXXXXXXXXXXXXXXXXXXXXXXXXXXXXXXXXXXXXXXXXXXXXXXXXXXXXXXXXXXXXXXXXXXXXXXXXXXXXXXXXXXXXXXXXXXXXXXXXXXXXXXXXXXXXXXXXXX",
"XXXXXXXXXXXXXXXXXXXXXXXXXXXXXXXXXXXXXXXXXXXXXXXXXXXXXXXXXXXXXXXXXXXXXXXXXXXXXXXXXXXXXXXXXXXXXXXXXXXXXXXXXXXXXXXXXXXXXXXXXXXXXXXX",
"XXXXXXXXXXXXXXXXXXXXXXXXXXXXXXXXXXXXXXXXXXXXXXXXXXXXXXXXXXXXXXXXXXXXXXXXXXXXXXXXXXXXXXXXXXXXXXXXXXXXXXXXXXXXXXXXXXXXXXXXXXXXXXXX",
"XXXXXXXXXXXXXXXXXXXXXXXXXXXXXXXXXXXXXXXX          X       XXXXXXXXXXXXXXXXXXXXXXXXXXXXXXXXXXXXXXXXXXXXXXXXXXXXXXXXXXXXXXXXXXXXXX",
"XXXXXXXXXXXXXXXXXXXXXXXXXXXXXXXXXX.   O 9 B @.#.#.*.$.F y ; X X XXXXXXXXXXXXXXXXXXXXXXXXXXXXXXXXXXXXXXXXXXXXXXXXXXXXXXXXXXXXXXXX",
"XXXXXXXXXXXXXXXXXXXXXXXXXXXXXXXX. ; D m.V.N.n.F.S.M.s.b.n.n.1.j $   XXXXXXXXXXXXXXXXXXXXXXXXXXXXXXXXXXXXXXXXXXXXXXXXXXXXXXXXXXXX",
"XXXXXXXXXXXXXXXXXXXXXXXXXXXXXXX M B.B.9.y # # 4 e 2 O O ; e :.h.4.h O   XXXXXXXXXXXXXXXXXXXXXXXXXXXXXXXXXXXXXXXXXXXXXXXXXXXXXXXX",
"XXXXXXXXXXXXXXXXXXXXXXXXXXXXXX# n.4.$ o 2 R Q p 4 6 a R p @ o 4 e ! @.O o XXXXXXXXXXXXXXXXXXXXXXXXXXXXXXXXXXXXXXXXXXXXXXXXXXXXXX",
"XXXXXXXXXXXXXXXXXXXXXXXXXXXXX X ! C + i ^ _ ' X.X.X.o.O.o.) 7 2 2 o #.! o XXXXXXXXXXXXXXXXXXXXXXXXXXXXXXXXXXXXXXXXXXXXXXXXXXXXXX",
"XXXXXXXXXXXXXXXXXXXXXXXXXXXXX 9 $ 3 # @ @ @ @ 6 / | ' | ' | ' ) d . D j.@ X XXXXXXXXXXXXXXXXXXXXXXXXXXXXXXXXXXXXXXXXXXXXXXXXXXXX",
"XXXXXXXXXXXXXXXXXXXXXXXXXXXX+ q.0.; o @ e C C ; @ d ^ Q / ) ^ 6 o w M.j.3 X XXXXXXXXXXXXXXXXXXXXXXXXXXXXXXXXXXXXXXXXXXXXXXXXXXXX",
"XXXXXXXXXXXXXXXXXXXXXXXXXXXX; '..XV.F ; @ C 2.3.0 o + + @ @ + ; @.C.n.f . o XXXXXXXXXXXXXXXXXXXXXXXXXXXXXXXXXXXXXXXXXXXXXXXXXXXX",
"XXXXXXXXXXXXXXXXXXXXXXXXXXX t |..X X}.B.$.q + ; ; o 4 l f 3 0 -.9.D @ + o . XXXXXXXXXXXXXXXXXXXXXXXXXXXXXXXXXXXXXXXXXXXXXXXXXXXX",
"XXXXXXXXXXXXXXXXXXXXXXXXXX  B }.}.|.}.}.}.].w.=.B 3 + # + + - - + 2 a d + XXXXXXXXXXXXXXXXXXXXXXXXXXXXXXXXXXXXXXXXXXXXXXXXXXXXXX",
"XXXXXXXXXXXXXXXXXXXXXXXXXX  &.V.B t @.h.K.}..X}.W.f.>.( W R W ^ ^ ^ ] E O XXXXXXXXXXXXXXXXXXXXXXXXXXXXXXXXXXXXXXXXXXXXXXXXXXXXXX",
"XXXXXXXXXXXXXXXXXXXXXXXXXX  =.S # B # s i.P.}. XS.K.J.3.,.l.G.3.3 + 6 d o XXXXXXXXXXXXXXXXXXXXXXXXXXXXXXXXXXXXXXXXXXXXXXXXXXXXXX",
"XXXXXXXXXXXXXXXXXXXXXXXXXXX 0.B u W.*.+  .Z.{.P.A.{.&.O $ %.{.D & c + p + XXXXXXXXXXXXXXXXXXXXXXXXXXXXXXXXXXXXXXXXXXXXXXXXXXXXXX",
"XXXXXXXXXXXXXXXXXXXXXXXXXXX 0.&.$ ( y ! r.A.P.K.Z.M.$ x z 7 x.%.+ % 2 ^ @ X XXXXXXXXXXXXXXXXXXXXXXXXXXXXXXXXXXXXXXXXXXXXXXXXXXXX",
"XXXXXXXXXXXXXXXXXXXXXXXXXXX -.m.+ 2 7 t.d.L.Z.Z.G.M.q % % s y.p./ s Q Q 4 X XXXXXXXXXXXXXXXXXXXXXXXXXXXXXXXXXXXXXXXXXXXXXXXXXXXX",
"XXXXXXXXXXXXXXXXXXXXXXXXXX  D c.} # 2 ( l.A.S.K.A.z.>.d R ] a.p.^ 6 $ # O . . XXXXXXXXXXXXXXXXXXXXXXXXXXXXXXXXXXXXXXXXXXXXXXXXXX",
"XXXXXXXXXXXXXXXXXXXXXXXXXX  0 e.k.,.e ~ l.L.P.A.Q.Z.i.y.a.d. .6 O X N I.M . X XXXX. X XXXXXXXXXXXXXXXXXXXXXXXXXXXXXXXXXXXXXXXXXX",
"XXXXXXXXXXXXXXXXXXXXXXXXXXXX+ ) +.l.z.z.z.G.L.A.L.Z.x.z.x.;.@ v L O O N 9 2 2 o O . X XXXXXXXXXXXXXXXXXXXXXXXXXXXXXXXXXXXXXXXXXX",
"XXXXXXXXXXXXXXXXXXXXXXXXXXXXX p X.i.x.x.x.x.l.z.x.z.S.A.x.} o G L # h e 4 2 # O X X XXXXXXXXXXXXXXXXXXXXXXXXXXXXXXXXXXXXXXXXXXXX",
"XXXXXXXXXXXXXXXXXXXXXXXXXXXXX + ^ o.k.l.z.z.y.a.x.x.z.z.x.g.k @ + l d.t.e 1 A O . XXXXXXXXXXXXXXXXXXXXXXXXXXXXXXXXXXXXXXXXXXXXXX",
"XXXXXXXXXXXXXXXXXXXXXXXXXXXXXXX 2 ) o.O.y.a.k.k.z.l.u.i.l.u.e...<.t.O.s , Y b   XXXXXXXXXXX X X XXXXXXXXXXXXXXXXXXXXXXXXXXXXXXXX",
"XXXXXXXXXXXXXXXXXXXXXXXXXXXXXXXX. 2 ^ ] o.o.y.k.l.d.u.i.a.+.o.O.O.O._ @ Y U o XXXXXXXXo X . . XXXXXXXXXXXXXXXXXXXXXXXXXXXXXXXXXX",
"XXXXXXXXXXXXXXXXXXXXXXXXXXXXXXXXXX. @ a / ' ] ] o.+.+.+.+.+.O.O.o.o.R 1 ^.G o XX  X O O O . XXXXXXXXXXXXXXXXXXXXXXXXXXXXXXXXXXXX",
"XXXXXXXXXXXXXXXXXXXXXXXXXXXXXXXXXXXXX X @ i R / ) ' ] o.o.o.X.| ' / 8 b ^.Z o o n H r X X XXXXXXXXXXXXXXXXXXXXXXXXXXXXXXXXXXXXXX",
"XXXXXXXXXXXXXXXXXXXXXXXXXXXXXXXXXXXXXXXX  X o + 2 6 7 a a s p 7 4 +   m ).P H !.!.r o XXXXXXXXXXXXXXXXXXXXXXXXXXXXXXXXXXXXXXXXXX",
"XXXXXXXXXXXXXXXXXXXXXXXXXXXXXXXXXXXXXXXXX X @ @ O w 4 4 3 4 2 O   o m ~._.E.`.U.>   XXXXXXXXXXXXXXXXXXXXXXXXXXXXXXXXXXXXXXXXXXXX",
"XXXXXXXXXXXXXXXXXXXXXXXXXXXXXXXXXXXXXXXXX $ ;.R # >.t.' ....d + 1 T `._.Y.U.P -   XXXXXX  . . O XXXXXXXXXXXXXXXXXXXXXXXXXXXXXXXX",
"XXXXXXXXXXXXXXXXXXXXXXXXXXXXXXXXXXXXXXXXX -.g.Q + s 7 2 7 5 , K ^.(.~.6.K J R.G < < 1 n n , X X XXXXXXXXXXXXXXXXXXXXXXXXXXXXXXXX",
"XXXXXXXXXXXXXXXXXXXXXXXXXXXXXXXXXXXXXX  ; C.a.E o o o . o Z Y./.8.I H n , , H 7.8.R.7.K n # X XXXXXXXXXXXXXXXXXXXXXXXXXXXXXXXXXX",
"XXXXXXXXXXXXXXXXXXXXXXXXXXXXXXXXXXXXXX  t W.y.E O . o , K ~.8.J Z r = o X O - 1 r 1 - X   XXXXXXXXXXXXXXXXXXXXXXXXXXXXXXXXXXXXXX",
"XXXXXXXXXXXXXXXXXXXXXXXXXXXXXXXXXXXXXX  t H.y.R X O H 8.R.P n ; X . . XXXXXXXX  o X XXXXXXXXXXXXXXXXXXXXXXXXXXXXXXXXXXXXXXXXXXXX",
"XXXXXXXXXXXXXXXXXXXXXXXXXXXXXXXXXXXXXX  q M.( #   < 7.K n - X - O o XXXXXXXXXXXXXXXXXXXXXXXXXXXXXXXXXXXXXXXXXXXXXXXXXXXXXXXXXXXX",
"XXXXXXXXXXXXXXXXXXXXXXXXXXXXXXXXXXXXXXXX+  ...s p o = o = - X 9 * o XXXXXXXXXXXXXXXXXXXXXXXXXXXXXXXXXXXXXXXXXXXXXXXXXXXXXXXXXXXX",
"XXXXXXXXXXXXXXXXXXXXXXXXXXXXXXXXXXXXXXXX  5 _ ..E + X o r : o = o o XXXXXXXXXXXXXXXXXXXXXXXXXXXXXXXXXXXXXXXXXXXXXXXXXXXXXXXXXXXX",
"XXXXXXXXXXXXXXXXXXXXXXXXXXXXXXXXXXXXXXXXXX  + 3 + = = X 9 : o   o o XXXXXXXXXXXXXXXXXXXXXXXXXXXXXXXXXXXXXXXXXXXXXXXXXXXXXXXXXXXX",
"XXXXXXXXXXXXXXXXXXXXXXXXXXXXXXXXXXXXXXXX  $ q     O * X O O   o O XXXXXXXXXXXXXXXXXXXXXXXXXXXXXXXXXXXXXXXXXXXXXXXXXXXXXXXXXXXXXX",
"XXXXXXXXXXXXXXXXXXXXXXXXXXXXXXXXXXXXXXXX  j C.! 6 + X ; q 4 4 X XXXXXXXXXXXXXXXXXXXXXXXXXXXXXXXXXXXXXXXXXXXXXXXXXXXXXXXXXXXXXXXX",
"XXXXXXXXXXXXXXXXXXXXXXXXXXXXXXXXXXXXXXXX  B }.Z.X.E + 9.J.t.R o XXXXXXXXXXXXXXXXXXXXXXXXXXXXXXXXXXXXXXXXXXXXXXXXXXXXXXXXXXXXXXXX",
"XXXXXXXXXXXXXXXXXXXXXXXXXXXXXXXXXXXXXXXX  0 D.g.X./ + 2.c.+.s . XXXXXXXXXXXXXXXXXXXXXXXXXXXXXXXXXXXXXXXXXXXXXXXXXXXXXXXXXXXXXXXX",
"XXXXXXXXXXXXXXXXXXXXXXXXXXXXXXXXXXXXXXXXXX+ Q _ / 7 O ^ o.' 4 . XXXXXXXXXXXXXXXXXXXXXXXXXXXXXXXXXXXXXXXXXXXXXXXXXXXXXXXXXXXXXXXX",
"XXXXXXXXXXXXXXXXXXXXXXXXXXXXXXXXXXXXXXXXXX  O @ + o X @ 4 @ X XXXXXXXXXXXXXXXXXXXXXXXXXXXXXXXXXXXXXXXXXXXXXXXXXXXXXXXXXXXXXXXXXX",
"XXXXXXXXXXXXXXXXXXXXXXXXXXXXXXXXXXXXXXXXXXXXXXX XXXXXXX   X XXXXXXXXXXXXXXXXXXXXXXXXXXXXXXXXXXXXXXXXXXXXXXXXXXXXXXXXXXXXXXXXXXXX",
"XXXXXXXXXXXXXXXXXXXXXXXXXXXXXXXXXXXXXXXXXXXXXXXXXXXXXXXXXXXXXXXXXXXXXXXXXXXXXXXXXXXXXXXXXXXXXXXXXXXXXXXXXXXXXXXXXXXXXXXXXXXXXXXX",
"XXXXXXXXXXXXXXXXXXXXXXXXXXXXXXXXXXXXXXXXXXXXXXXXXXXXXXXXXXXXXXXXXXXXXXXXXXXXXXXXXXXXXXXXXXXXXXXXXXXXXXXXXXXXXXXXXXXXXXXXXXXXXXXX",
"XXXXXXXXXXXXXXXXXXXXXXXXXXXXXXXXXXXXXXXXXXXXXXXXXXXXXXXXXXXXXXXXXXXXXXXXXXXXXXXXXXXXXXXXXXXXXXXXXXXXXXXXXXXXXXXXXXXXXXXXXXXXXXXX",
"XXXXXXXXXXXXXXXXXXXXXXXXXXXXXXXXXXXXXXXXXXXXXXXXXXXXXXXXXXXXXXXXXXXXXXXXXXXXXXXXXXXXXXXXXXXXXXXXXXXXXXXXXXXXXXXXXXXXXXXXXXXXXXXX",
"XXXXXXXXXXXXXXXXXXXXXXXXXXXXXXXXXXXXXXXXXXXXXXXXXXXXXXXXXXXXXXXXXXXXXXXXXXXXXXXXXXXXXXXXXXXXXXXXXXXXXXXXXXXXXXXXXXXXXXXXXXXXXXXX"
};
