/* XPM */
static char *result[] = {
/* columns rows colors chars-per-pixel */
"64 60 189 2 ",
"   c #262316",
".  c #282317",
"X  c #272418",
"o  c #2A2419",
"O  c #2E291C",
"+  c #312D16",
"@  c #33261B",
"#  c #3B261D",
"$  c #32291D",
"%  c #3C291F",
"&  c #343015",
"*  c #2F2B20",
"=  c #342D22",
"-  c #3C2C22",
";  c #363226",
":  c #383326",
">  c #3B342A",
",  c #3D382D",
"<  c #41261E",
"1  c #48261F",
"2  c #423E13",
"3  c #462720",
"4  c #4A2720",
"5  c #432C23",
"6  c #4D2A23",
"7  c #532923",
"8  c #5C2925",
"9  c #502721",
"0  c #433127",
"q  c #46332A",
"w  c #4B352B",
"e  c #54322A",
"r  c #57342B",
"t  c #443B33",
"y  c #553B33",
"u  c #5B3C34",
"i  c #602A27",
"p  c #642C28",
"a  c #6B2B2A",
"s  c #732E2C",
"d  c #7C2E2E",
"f  c #63332D",
"g  c #6D302C",
"h  c #74322F",
"j  c #78302F",
"k  c #643D36",
"l  c #6B3A33",
"z  c #763C35",
"x  c #5C5411",
"c  c #4B4539",
"v  c #4E493E",
"b  c #454237",
"n  c #524A3C",
"m  c #58443C",
"M  c #5B533F",
"N  c #65423B",
"B  c #70433D",
"V  c #534B42",
"C  c #5E554B",
"Z  c #575045",
"A  c #5F5A50",
"S  c #734944",
"D  c #63594F",
"F  c #60564D",
"G  c #7E504B",
"H  c #625E53",
"J  c #6C624C",
"K  c #6D655B",
"L  c #676157",
"P  c #72675C",
"I  c #746A58",
"U  c #7A7369",
"Y  c #757168",
"T  c #802E2F",
"R  c #832E30",
"E  c #8A2F32",
"W  c #823433",
"Q  c #8B3133",
"!  c #833F3A",
"~  c #8A3B39",
"^  c #933034",
"/  c #9B3437",
"(  c #99393B",
")  c #A23339",
"_  c #AC343B",
"`  c #A53D3F",
"'  c #B4353E",
"]  c #B9363F",
"[  c #B9383F",
"{  c #85413E",
"}  c #BE3640",
"|  c #BD3941",
" . c #B23F42",
".. c #C33741",
"X. c #C43942",
"o. c #CC3B44",
"O. c #D13C46",
"+. c #D43E48",
"@. c #854B47",
"#. c #9B4443",
"$. c #934845",
"%. c #89514D",
"&. c #83504C",
"*. c #8C5551",
"=. c #875450",
"-. c #935956",
";. c #9A5A57",
":. c #A24544",
">. c #A54D4B",
",. c #AE4A4A",
"<. c #BB4246",
"1. c #BA4B4C",
"2. c #B5494A",
"3. c #B84E51",
"4. c #A95857",
"5. c #BB5454",
"6. c #9F615F",
"7. c #A2605E",
"8. c #80746A",
"9. c #857C72",
"0. c #8A7E74",
"q. c #AE6867",
"w. c #BF6364",
"e. c #B76B6A",
"r. c #BC6A6A",
"t. c #B46160",
"y. c #BF7171",
"u. c #C9464B",
"i. c #CA454A",
"p. c #D3424B",
"a. c #D9464E",
"s. c #D9484F",
"d. c #DC4C52",
"f. c #D64A50",
"g. c #C55152",
"h. c #CD5759",
"j. c #DB5156",
"k. c #D95559",
"l. c #E15157",
"z. c #E3565A",
"x. c #E6595D",
"c. c #E85C5F",
"v. c #DA5F62",
"b. c #E65E63",
"n. c #EA5E62",
"m. c #C46565",
"M. c #CC6C6D",
"N. c #CB6263",
"B. c #D56164",
"V. c #DD6D6F",
"C. c #D96769",
"Z. c #C47172",
"A. c #CD797A",
"S. c #CA7577",
"D. c #DB7C7E",
"F. c #D7777A",
"G. c #E76467",
"H. c #EB6265",
"J. c #E36469",
"K. c #EB656A",
"L. c #EE696D",
"P. c #EF6D71",
"I. c #F06E72",
"U. c #E27B7F",
"Y. c #EA7478",
"T. c #F17175",
"R. c #F3767A",
"E. c #F57A7F",
"W. c #8C847B",
"Q. c #96897F",
"!. c #9C8E70",
"~. c #DB7F82",
"^. c #E37F83",
"/. c #F87E83",
"(. c #948D84",
"). c #9A9187",
"_. c #97928A",
"`. c #A49C93",
"'. c #A9A097",
"]. c #B3ADA5",
"[. c #E58588",
"{. c #F58286",
"}. c #F88287",
"|. c #FC898E",
" X c #F98389",
".X c #FE8D92",
"XX c #F48C91",
"oX c #FF9299",
"OX c None",
/* pixels */
"OXOXOXOXOXOXOXOXOXOXOXOXOXOXOXOXOXOXOXOXOXOXOXOXOXOXOXOXOXOXOXOXOXOXOXOXOXOXOXOXOXOXOXOXOXOXOXOXOXOXOXOXOXOXOXOXOXOXOXOXOXOXOXOX",
"OXOXOXOXOXOXOXOXOXOXOXOXOXOXOXOXOXOXOXOXOXOXOXOXOXOXOXOXOXOXOXOXOXOXOXOXOXOXOXOXOXOXOXOXOXOXOXOXOXOXOXOXOXOXOXOXOXOXOXOXOXOXOXOX",
"OXOXOXOXOXOXOXOXOXOXOXOXOXOXOXOXOXOXOXOXOXOXOXOXOXOXOXOXOXOXOXOXOXOXOXOXOXOXOXOXOXOXOXOXOXOXOXOXOXOXOXOXOXOXOXOXOXOXOXOXOXOXOXOX",
"OXOXOXOXOXOXOXOXOXOXOXOXOXOXOXOXOXOXOXOXOXOXOXOXOXOXOXOXOXOXOXOXOXOXOXOXOXOXOXOXOXOXOXOXOXOXOXOXOXOXOXOXOXOXOXOXOXOXOXOXOXOXOXOX",
"OXOXOXOXOXOXOXOXOXOXOXOXOXOXOXOXOXOXOXOXOXOXOXOXOXOXOXOXOXOXOXOXOXOXOXOXOXOXOXOXOXOXOXOXOXOXOXOXOXOXOXOXOXOXOXOXOXOXOXOXOXOXOXOX",
"OXOXOXOXOXOXOXOXOXOXOXOXOXOXOXOXOXOXOXOXOXOXOXOXOXOXOXOXOXOXOXOXOXOXOXOXOXOXOXOXOXOXOXOXOXOXOXOXOXOXOXOXOXOXOXOXOXOXOXOXOXOXOXOX",
"OXOXOXOXOXOXOXOXOXOXOXOXOXOXOXOXOXOXOXOXOXOXOXOXOXOXOXOXOXOXOXOXOXOXOXOXOXOXOXOXOXOXOXOXOXOXOXOXOXOXOXOXOXOXOXOXOXOXOXOXOXOXOXOX",
"OXOXOXOXOXOXOXOXOXOXOXOXOXOXOXOXOXOXOXOXOXOXOXOXOXOXOXOXOXOXOXOXOXOXOXOXOXOXOXOXOXOXOXOXOXOXOXOXOXOXOXOXOXOXOXOXOXOXOXOXOXOXOXOX",
"OXOXOXOXOXOXOXOXOXOXOXOXOXOXOXOXOXOXOXOXOXOXOXOXOXOXOXOXOXOXOXOXOXOXOXOXOXOXOXOXOXOXOXOXOXOXOXOXOXOXOXOXOXOXOXOXOXOXOXOXOXOXOXOX",
"OXOXOXOXOXOXOXOXOXOXOXOXOXOXOXOXOXOXOXOXOXOXOXOXOXOXOXOXOXOXOXOXOXOXOXOXOXOXOXOXOXOXOXOXOXOXOXOXOXOXOXOXOXOXOXOXOXOXOXOXOXOXOXOX",
"OXOXOXOXOXOXOXOXOXOXOXOXOXOXOXOXOXOXOXOXOXOXOXOXOXOXOXOXOXOXOXOXOXOXOXOXOXOXOXOXOXOXOXOXOXOXOXOXOXOXOXOXOXOXOXOXOXOXOXOXOXOXOXOX",
"OXOXOXOXOXOXOXOXOXOXOXOXOXOXOXOXOXOXOXOXOXOXOXOXOXOXOXOXOXOXOXOXOXOXOXOXOXOXOXOXOXOXOXOXOXOXOXOXOXOXOXOXOXOXOXOXOXOXOXOXOXOXOXOX",
"OXOXOXOXOXOXOXOXOXOXOXOXOXOXOXOXOXOXOXOXOXOXOXOXOXOXOXOXOXOXOXOXOXOXOXOXOXOXOXOXOXOXOXOXOXOXOXOXOXOXOXOXOXOXOXOXOXOXOXOXOXOXOXOX",
"OXOXOXOXOXOXOXOXOXOXOXOXOXOXOX  X X $ $ - % @ @     OXOXOXOXOXOXOXOXOXOXOXOXOXOXOXOXOXOXOXOXOXOXOXOXOXOXOXOXOXOXOXOXOXOXOXOXOXOX",
"OXOXOXOXOXOXOXOXOXOXOXOXX   $ r G 4.w.m.N.h.5.{ k % X OXOXOXOXOXOXOXOXOXOXOXOXOXOXOXOXOXOXOXOXOXOXOXOXOXOXOXOXOXOXOXOXOXOXOXOXOX",
"OXOXOXOXOXOXOXOXOXOXX X 5 @.M.Y.C.>.l f l { l e k 4.f X OXOXOXOXOXOXOXOXOXOXOXOXOXOXOXOXOXOXOXOXOXOXOXOXOXOXOXOXOXOXOXOXOXOXOXOX",
"OXOXOXOXOXOXOXOXOX  - -.F.V.v.$.< o # 1 @ o @ 1 o @.k.6 X OXOXOXOXOXOXOXOXOXOXOXOXOXOXOXOXOXOXOXOXOXOXOXOXOXOXOXOXOXOXOXOXOXOXOX",
"OXOXOXOXOXOXOXOX  y Z.y.k % % o < Q ] ..' ^ ) R o %.G.r o OXOXOXOXOXOXOXOXOXOXOXOXOXOXOXOXOXOXOXOXOXOXOXOXOXOXOXOXOXOXOXOXOXOXOX",
"OXOXOXOXOXOXOX. N ~.r.- 1 a d Q [ o.o.] ] ] ^ # q V.>.o o OXOXOXOXOXOXOXOXOXOXOXOXOXOXOXOXOXOXOXOXOXOXOXOXOXOXOXOXOXOXOXOXOXOXOX",
"OXOXOXOXOXOX  y D.%.$ < _ ..[ | X.' ' ) ) Q < % r.e.5 < @ OXOXOXOXOXOXOXOXOXOXOXOXOXOXOXOXOXOXOXOXOXOXOXOXOXOXOXOXOXOXOXOXOXOXOX",
"OXOXOXOXOXOX  -.C.% 1 d R 8 # # p E a 3 # o - *.=.= 9 ^ 1   OXOXOXOXOXOXOXOXOXOXOXOXOXOXOXOXOXOXOXOXOXOXOXOXOXOXOXOXOXOXOXOXOXOX",
"OXOXOXOXOXOXX 7 #.r @ # @ 5 N k - X O r l 8 6 : $ a _ ] i o OXOXOXOXOXOXOXOXOXOXOXOXOXOXOXOXOXOXOXOXOXOXOXOXOXOXOXOXOXOXOXOXOXOX",
"OXOXOXOXOXOXX $ $ @ o o r $.4.4.l X $ 5 % @ < a ) j 3 7 a o OXOXOXOXOXOXOXOXOXOXOXOXOXOXOXOXOXOXOXOXOXOXOXOXOXOXOXOXOXOXOXOXOXOX",
"OXOXOXOXOXOX  S e.&.u q - = @ $ 5 q 6 8 j ( | G.w.O x & a 7 . OXOXOXOXOXOXOXOXOXOXOXOXOXOXOXOXOXOXOXOXOXOXOXOXOXOXOXOXOXOXOXOXOX",
"OXOXOXOXOXOX  S oXoXXX[.F.Z.Z.S.~.U.v.z.v.>.2./.F.- 2 + W ^ # . X OXOXOXOXOXOXOXOXOXOXOXOXOXOXOXOXOXOXOXOXOXOXOXOXOXOXOXOXOXOXOX",
"OXOXOXOXOXOX  y XXoX.XoX|..X.XoXoX/.L./.S + $ { H.#.8 d R 1 o o X o OXOXOXOXOXOXOXOXOXOXOXOXOXOXOXOXOXOXOXOXOXOXOXOXOXOXOXOXOXOX",
"OXOXOXOXOXOXOX0 [.XXy.;.,.j.L.{.|./.P.~.- x 2 8 i.d.X.a $ M I $ % @ OXOXOXOXOXOXOXOXOXOXOXOXOXOXOXOXOXOXOXOXOXOXOXOXOXOXOXOXOXOX",
"OXOXOXOXOXOXOX$ S.q.$ - @ p u.G.{.R.b.V.w + @ d +.j.h X + J J $ d i   OXOXOXOXOXOXOXOXOXOXOXOXOXOXOXOXOXOXOXOXOXOXOXOXOXOXOXOXOX",
"OXOXOXOXOXOXOXX 6.N q F.-.-  .b.P.G.P.K.5.R ^ X.d.W + Z + @ # f | E o OXOXOXOXOXOXOXOXOXOXOXOXOXOXOXOXOXOXOXOXOXOXOXOXOXOXOXOXOX",
"OXOXOXOXOXOXOX  S =.$ 3.{ z p.H.R.H.T.H.x.p.a.x.1.# n !.; { g.p.o.W X OXOXOXOXOXOXOXOXOXOXOXOXOXOXOXOXOXOXOXOXOXOXOXOXOXOXOXOXOX",
"OXOXOXOXOXOXOX  w y.w # 3 d i.z.K.I.K. XL.z.x.c.g.3 = : % 2.a.O...p   OXOXOXOXOXOXOXOXOXOXOXOXOXOXOXOXOXOXOXOXOXOXOXOXOXOXOXOXOX",
"OXOXOXOXOXOXOXOXX e.m.r @ @ i f.I..XP.T.H.H.I.n.b.g.~ W  .O.O.o._ 1   OXOXOXOXOXOXOXOXOXOXOXOXOXOXOXOXOXOXOXOXOXOXOXOXOXOXOXOXOX",
"OXOXOXOXOXOXOXOX. m J.j.1.{ :.z.H.L.b.n.x.n.x.x.n.d.+.+.O.o.o.} a X OXOXOXOXOXOXOXOXOXOXOXOXOXOXOXOXOXOXOXOXOXOXOXOXOXOXOXOXOXOX",
"OXOXOXOXOXOXOXOXOXo ~ O.d.x.c.c.c.x.p.d.x.x.d.p.l.+.o.o.O.X.} R @ o OXOXOXOXOXOXOXOXOXOXOXOXOXOXOXOXOXOXOXOXOXOXOXOXOXOXOXOXOXOX",
"OXOXOXOXOXOXOXOXOXo # ^ o.a.x.x.x.x.d.d.x.z.d.a.a.+.o.o.X.) a @ o OXOXOXOXOXOXOXOXOXOXOXOXOXOXOXOXOXOXOXOXOXOXOXOXOXOXOXOXOXOXOX",
"OXOXOXOXOXOXOXOXOXOX  < Q ..p.d.p.p.a.d.d.d.p.O.o.o.X.} d 4 o X OXOXOXOXOXOXOXOXOXOXOXOXOXOXOXOXOXOXOXOXOXOXOXOXOXOXOXOXOXOXOXOX",
"OXOXOXOXOXOXOXOXOXOXOXX @ a ) ] X.X...} } } } ' _ ^ p 3 X X OXOXOXOXOXOXOXOXOXOXOXOXOXOXOXOXOXOXOXOXOXOXOXOXOXOXOXOXOXOXOXOXOXOX",
"OXOXOXOXOXOXOXOXOXOXOXOXX X % 8 d E ^ ^ E R a 9 # @ 5 a i @ X OXOXOXOXOXX X o X OXOXOXOXOXOXOXOXOXOXOXOXOXOXOXOXOXOXOXOXOXOXOXOX",
"OXOXOXOXOXOXOXOXOXOXOXOXOXOXX   . o @ @ o $ q u z :.u.d.o.d @ o . . = = o o o o OXOXOXOXOXOXOXOXOXOXOXOXOXOXOXOXOXOXOXOXOXOXOXOX",
"OXOXOXOXOXOXOXOXOXOXOXOXOXOXOXOXOX.   . O w M.G.z.o.} o.O.} 8 o > K H : o X OXOXOXOXOXOXOXOXOXOXOXOXOXOXOXOXOXOXOXOXOXOXOXOXOXOX",
"OXOXOXOXOXOXOXOXOXOXOXOXOXOXOXOX. q %.#.j @ 1.d./ 4 # 8  .} 7 t (.P * X OXOXOXOXOXOXOXOXOXOXOXOXOXOXOXOXOXOXOXOXOXOXOXOXOXOXOXOX",
"OXOXOXOXOXOXOXOXOXOXOXOXOXOXOX  N D.J.o.a = <.' - * - * 7 T = W.0.= X OXOXOXOXOXOXOXOXOXOXOXOXOXOXOXOXOXOXOXOXOXOXOXOXOXOXOXOXOX",
"OXOXOXOXOXOXOXOXOXOXOXOXOXOX  y U.n.o.d o p X.W o 0 t * . @ c _.Z X   OXOXOXOXOXOXOXOXOXOXOXOXOXOXOXOXOXOXOXOXOXOXOXOXOXOXOXOXOX",
"OXOXOXOXOXOXOXOXOXOXOXOXOXOX@ t.K.O.Q @ X # 9 < o * ; t m H _.).D = ; , , = O o X o X OXOXOXOXOXOXOXOXOXOXOXOXOXOXOXOXOXOXOXOXOX",
"OXOXOXOXOXOXOXOXOXOXOXOXOX  6 i.Q a < . $ ; c H U 0._.`.].].`.Q.`.`._.Y V = X X o o OXOXOXOXOXOXOXOXOXOXOXOXOXOXOXOXOXOXOXOXOXOX",
"OXOXOXOXOXOXOXOXOXOXOXOXOX  7 X.s o = Y 9.0.Q.Q.0.9.0.0.0.0.8.0.9.H , o   X OXOXOXOXOXOXOXOXOXOXOXOXOXOXOXOXOXOXOXOXOXOXOXOXOXOX",
"OXOXOXOXOXOXOXOXOXOXOXOXOX  @ / ' 7 = K P P K C V V V V V V V 8.K X   OXOXOXOXOXOXOXOXOXOXOXOXOXOXOXOXOXOXOXOXOXOXOXOXOXOXOXOXOX",
"OXOXOXOXOXOXOXOXOXOXOXOXOXOXo % 8 < o X X . . . . o o o o o O D 0.Z =     OXOXOXOXOXOXOXOXOXOXOXOXOXOXOXOXOXOXOXOXOXOXOXOXOXOXOX",
"OXOXOXOXOXOXOXOXOXOXOXOXOXOXOXX   X OXX O $ . . X = o X   o @ = D 0.9.L n > $ o o OXOXOXOXOXOXOXOXOXOXOXOXOXOXOXOXOXOXOXOXOXOXOX",
"OXOXOXOXOXOXOXOXOXOXOXOXOXOXOXOXOXOXOX  S r.f # @ . * w B ( d o X , c F L V , o X X OXOXOXOXOXOXOXOXOXOXOXOXOXOXOXOXOXOXOXOXOXOX",
"OXOXOXOXOXOXOXOXOXOXOXOXOXOXOXOXOXOXOXo ;..Xd._ 7   e ^.{.z._ @ . .       . o X o OXOXOXOXOXOXOXOXOXOXOXOXOXOXOXOXOXOXOXOXOXOXOX",
"OXOXOXOXOXOXOXOXOXOXOXOXOXOXOXOXOXOXOXX $.K.s.} i X - v.H.a._ # OXOXOXOXOXOXOXOXOXOXOXOXOXOXOXOXOXOXOXOXOXOXOXOXOXOXOXOXOXOXOXOX",
"OXOXOXOXOXOXOXOXOXOXOXOXOXOXOXOXOXOXOXX 8 ] ] ) 3 X O j ' ) i X OXOXOXOXOXOXOXOXOXOXOXOXOXOXOXOXOXOXOXOXOXOXOXOXOXOXOXOXOXOXOXOX",
"OXOXOXOXOXOXOXOXOXOXOXOXOXOXOXOXOXOXOXOXo < 4 # . OXX o @ o X o OXOXOXOXOXOXOXOXOXOXOXOXOXOXOXOXOXOXOXOXOXOXOXOXOXOXOXOXOXOXOXOX",
"OXOXOXOXOXOXOXOXOXOXOXOXOXOXOXOXOXOXOXOXOXX   o OXOXOXOXOXOXOXOXOXOXOXOXOXOXOXOXOXOXOXOXOXOXOXOXOXOXOXOXOXOXOXOXOXOXOXOXOXOXOXOX",
"OXOXOXOXOXOXOXOXOXOXOXOXOXOXOXOXOXOXOXOXOXOXOXOXOXOXOXOXOXOXOXOXOXOXOXOXOXOXOXOXOXOXOXOXOXOXOXOXOXOXOXOXOXOXOXOXOXOXOXOXOXOXOXOX",
"OXOXOXOXOXOXOXOXOXOXOXOXOXOXOXOXOXOXOXOXOXOXOXOXOXOXOXOXOXOXOXOXOXOXOXOXOXOXOXOXOXOXOXOXOXOXOXOXOXOXOXOXOXOXOXOXOXOXOXOXOXOXOXOX",
"OXOXOXOXOXOXOXOXOXOXOXOXOXOXOXOXOXOXOXOXOXOXOXOXOXOXOXOXOXOXOXOXOXOXOXOXOXOXOXOXOXOXOXOXOXOXOXOXOXOXOXOXOXOXOXOXOXOXOXOXOXOXOXOX",
"OXOXOXOXOXOXOXOXOXOXOXOXOXOXOXOXOXOXOXOXOXOXOXOXOXOXOXOXOXOXOXOXOXOXOXOXOXOXOXOXOXOXOXOXOXOXOXOXOXOXOXOXOXOXOXOXOXOXOXOXOXOXOXOX",
"OXOXOXOXOXOXOXOXOXOXOXOXOXOXOXOXOXOXOXOXOXOXOXOXOXOXOXOXOXOXOXOXOXOXOXOXOXOXOXOXOXOXOXOXOXOXOXOXOXOXOXOXOXOXOXOXOXOXOXOXOXOXOXOX"
};
