/* XPM */
static char *result[] = {
/* columns rows colors chars-per-pixel */
"64 64 43 1 ",
"  c #754B1F",
". c #774E20",
"X c #794F21",
"o c #7D5223",
"O c #825726",
"+ c #845927",
"@ c #815528",
"# c #865A28",
"$ c #8A5D2B",
"% c #8E612C",
"& c #93662E",
"* c #96682F",
"= c #946632",
"- c #986737",
"; c #976931",
": c #9B6C32",
"> c #966539",
", c #99673A",
"< c #9E6C3B",
"1 c #9F7035",
"2 c #A06E3C",
"3 c #A57637",
"4 c #A77837",
"5 c #A87837",
"6 c #A4733B",
"7 c #A9763D",
"8 c #A77838",
"9 c #AA7A3A",
"0 c #B17E3D",
"q c #B87F3E",
"w c #AD7B40",
"e c #B17E41",
"r c #B3823E",
"t c #BA813F",
"y c #B58342",
"u c #BD8441",
"i c #BD8A44",
"p c #C08642",
"a c #C28D45",
"s c #C49147",
"d c #C69348",
"f c #C99549",
"g c #CD994B",
/* pixels */
"sppasssssssaasssdfiidsiiddy<wdssssssssiiisssdyusippsaddssdddapas",
"atpadddsdsatasssiew<ws9wddw<0dsssssids9339ass<7suppw6asssyritpta",
"appasyt9rdssdaw62<<2<ydisssisdssss3rssrr93ydsiistqpe7sssa43350pa",
"sapsi3444yssi2<22222<yddsssdsridssusssddiradssdi93qdsssssar953pf",
"aptpa99ar6udw<22222<wsssssddu39sssfsssia7wdsssdi388isdssssddurds",
"aptasuadt9ss6<22222<wdssssss93yfi3ufsstp79dsssiy888809afsssdsdss",
"saaaaisdyudsw<22222>efsssddi79ussrisssaptssss948535899isassissss",
"sssfr:iaddddy<<<<<<wssisdiyy89pssdsssssssssisr490ir55iatta93ufss",
"sddfr &i:3&3fyw6yuysdw<es92530sssssssssdddi3ir3rddi35aautp94isss",
"sdtrr$#%:;$3fdssdddssw2i03395assssssssdiidiii78ydsi39fautaaasaaa",
"di3349&isd;ydsssssddsssfr9ruaffssssssss93iddiw<9dss9udsasssfspqa",
"di93999sssadsssssssassiiddffptpsssssssa93isssy6idsssssssfassspps",
"sdsr33udspeasssssssssa2<ussatppssssssssaifssddffssssadssssssssss",
"sids53ydsppussssssssde<<ydsstttssssssssa&1dsyi9issssddssssssssss",
"r1tfa0assaasssssddsssa0wisssaaassssssssi%.;:#&%idssssiassaasssaf",
"rridasfsssssdddiisssaasddsssdddsssssssssi%11iy:sssssw<wssapady2u",
"fdsptpssaddsiiw6<7sdw<isssssssrsssfsssssg07gfuesssss6<<assssdiwu",
"sssappasddi996<2<<yi<wsssssss939siiissssddaie2wedsssy7ydssssssfi",
"sssttpsssi68396<<<iw,efssdsdi394y93idssdiww<<<2wssssdsssssssdpus",
"sssiasssf72893366wu<2yssddiui944488yfidu<<<<,w22asssssssssssspea",
"ssssssss999888595yy,wpppsd933339889idss6<<<2222edsssssssssffsaas",
"siassssa938869q9<edyeppssdi99yiu83ydsdi<6666220pssssssssssppdyws",
"u<2asssssy22<qp97afspppdssdsddfa44idadi<29982wppsssssdsssapeaw2a",
"r<<idssssduw7e09ddafdssddadaapas94sdssd76933<7pusssaaadsssppddas",
"iwysyddsssddss6ydddassssssssptpdrrsssssa983yyyssssat49issssdaids",
"dddiweidssssssassaddssssssssapddssssssssfr9sddsssssr443ifsda99ys",
"dsssi2<essssssdssssassssssssdsssssssdddssssssssssssa499isssa844r",
"ddisdywwdssssssssssdssssiwisassssssi99rsssssdssssssr33rsssss943i",
"iir9ddi6edssssuasssssssss<wpupssssfr393rdsssssssssdr9ussssdr939a",
"w<widdi<edssdisisssssssssw7pppssssffii990issssssssssssssssft90tp",
"iw<widsisssddfddddfdsddsdw6uuadssdirsssr9isssssssssssssssssfapta",
"di<<6idssssd6;igyi9idiw7w<wsaddssst9sssssssssssssssssssssssppaas",
"sy<22uddssafr %3#&$9gy<<<<ydsiisrssdssssddadadssiidddsssssauupfd",
"iw<22idiisssf:*:ui:ysiwwiissr39sffdfiddsaddssssi99idddsasddetpda",
"iw<<wfi<<9ssfi6fdsyassdfdsss99991ri&9s*1ddsdssd943rdy7777wyspsda",
"iw,wsfy<22afaaasssdsdsiysssd9338+o+&#&3&fiwaasdr34iw<<631<widsdd",
"ddysdiw<26sssspassssdy<<wdssai9r*&14rs95duiaasssiryw<w3ryyidswwa",
"iddddy>2<ydssassssssdw<26ssssdddr%93rfisaiddsssdi7,yiiidddsds2<a",
"idifdi<<wdsidfsassssy<2<edssssddd5339sdwissssssi6<wsdsyrdsddsyyd",
"ddfyidueeid8rappisy6666idssssdaadsr3rsdisssssssw<<iiy889isyusdds",
"ddi38ifd90uy4iptpi<<987sssssssppsssrafafaaasssdy<wd938y2w333isas",
"fy388ass98wdiiptsi<783isssssdiuasssaasssa<9sssssiss787<2<393yfss",
"si339ssdi9sdi4ssdu3883wsduisappsssssasfpu<wdssssdi7<8822w<87ayid",
"ssyrissssdssi3rsdy888367763yadsdaadsfsassuadsssssw<<6<22,wssdyid",
"ssdadsssadasdr50aai9389899<wdsssasssatpsssdsssssi<<<2222<udssfwy",
"sssuasssueddfsa00psi893333<udsda0sssppppsssdsisssw<<<<22<ydsddwy",
"ssssssssaaauasfp09aa338w67ysssssaaaapptpsssy99risw2w2<6<<idsssss",
"ssssssssddi<9ffpp0isy9yissdssssssassptppifs7883rgwo>=+7=#ydssdaa",
"uasasssssdiwis%$a:ordasssssssssssssssupissi8993rd0$=:r#0&ysidsau",
"aasssssssf9+i1$=.-Orfdddsssssssssssdywydsss83397id&isdaa3i4rdsss",
"sssdssssssd$oo7s3s=sssspassssssssdsiw,wyssau99326y39fsssdr3rdaua",
"di5issssssw<+7iddssdsssadsssssssde2w<<<ydssdsu22<<wssssssstsdptt",
"ds79ssssddw<;<isssssdsssssappp99w<<<226ssssssdi7892ydsssafspaaaa",
"iyiiddssidy<w<2isasiisssssptp0396<6<<2udsssssdi9892wdssssspppfsa",
"7,uiwissddi22222w,<wweasssaup0396eue<yfasaaasd03936issssssappass",
"ieiy,ydssdiw<222w<,<,wssssaaparrpuupussssattpd63969dsssssssappas",
"sfsiuddpuaduw<<<22<w2udssssdsdddppppassssattpfe69<9assfssssdappa",
"sdr0ddppeusdieweeeyussssssdsssssssaaasssssppass9327dssptaassapaf",
"ssaadsaeppdasdssdddsssssdu6issdsassddsddsdafsasi36rdsspppaasssaa",
"ssa0eddaewddsssssdsssssssirsssfttdsaaariiufasffsrudftrttuassssaf",
"ssa9wdsi<<psppafuwyspuasssfssappsss9996959ppasridsss439isfdddsss",
"aisawwdseespuupfw,waupussssssptpasa9339sattpa933ssssr49sdt9ra99u",
"t6ri,wssddspuuau22aspeudi6isstptassirrsssattpr4rssssr35sdr39i43r",
"iriswyssssfappsi67ffppsssyissappssddddssfaaasdsdssssirisdr9rsirs"
};
