/* XPM */
static char *result[] = {
/* columns rows colors chars-per-pixel */
"64 52 154 2 ",
"   c #060505",
".  c #090706",
"X  c #07080B",
"o  c #0E0D0C",
"O  c #110E0D",
"+  c #14110E",
"@  c #1A140E",
"#  c #140E13",
"$  c #161311",
"%  c #1B1512",
"&  c #1E1914",
"*  c #1C1918",
"=  c #241E0E",
"-  c #201713",
";  c #241B15",
":  c #291E16",
">  c #231D19",
",  c #2A1F18",
"<  c #2D2B07",
"1  c #25220B",
"2  c #282709",
"3  c #2F2C0B",
"4  c #332C07",
"5  c #3D3103",
"6  c #393903",
"7  c #3F3309",
"8  c #3E3C0B",
"9  c #262415",
"0  c #2B2717",
"q  c #25211D",
"w  c #2C221A",
"e  c #2D2919",
"r  c #362515",
"t  c #34251C",
"y  c #38261D",
"u  c #342B1E",
"i  c #3B2A1E",
"p  c #272322",
"a  c #2C2622",
"s  c #2E2821",
"d  c #2F2A28",
"f  c #332C25",
"g  c #3D2C21",
"h  c #373027",
"j  c #3D3425",
"k  c #36312A",
"l  c #3B342C",
"z  c #3B3531",
"x  c #3F3935",
"c  c #433606",
"v  c #4A3117",
"b  c #5E3C17",
"n  c #5D3C1A",
"m  c #603C17",
"M  c #422E22",
"N  c #453123",
"B  c #4A3425",
"V  c #4E3728",
"C  c #413828",
"Z  c #4E382B",
"A  c #503728",
"S  c #533B2B",
"D  c #593F2E",
"F  c #433C33",
"G  c #4B3C33",
"H  c #513E33",
"J  c #4D4407",
"K  c #48480D",
"L  c #575803",
"P  c #5E5D02",
"I  c #505109",
"U  c #615702",
"Y  c #675801",
"T  c #62401D",
"R  c #694219",
"E  c #626102",
"W  c #6A6503",
"Q  c #737800",
"!  c #787B04",
"~  c #4F442F",
"^  c #5B412F",
"/  c #474035",
"(  c #494136",
")  c #4E453A",
"_  c #5E4231",
"`  c #534831",
"'  c #544A3D",
"]  c #5A493E",
"[  c #614223",
"{  c #754D24",
"}  c #72502C",
"|  c #614533",
" . c #604738",
".. c #624B3B",
"X. c #4D4540",
"o. c #554B41",
"O. c #5B4E41",
"+. c #5A5142",
"@. c #5F534C",
"#. c #654F40",
"$. c #615546",
"%. c #685041",
"&. c #625847",
"*. c #645449",
"=. c #6B5648",
"-. c #655A4A",
";. c #6A5F4E",
":. c #6A5F51",
">. c #6B614E",
",. c #6D6251",
"<. c #706452",
"1. c #756956",
"2. c #786C57",
"3. c #7A675A",
"4. c #7B6E5A",
"5. c #7E715B",
"6. c #7E6F65",
"7. c #92591F",
"8. c #857402",
"9. c #815B35",
"0. c #87633C",
"q. c #A56520",
"w. c #B56E23",
"e. c #C87925",
"r. c #81745E",
"t. c #837660",
"y. c #857961",
"u. c #8B7D65",
"i. c #8C7E68",
"p. c #828602",
"a. c #8A8302",
"s. c #908D01",
"d. c #9B9F00",
"f. c #98A000",
"g. c #9FA900",
"h. c #A1A102",
"j. c #A1A900",
"k. c #B0AC01",
"l. c #B6B001",
"z. c #BCC000",
"x. c #C4CD00",
"c. c #CFD600",
"v. c #D6E300",
"b. c #DCE800",
"n. c #93846C",
"m. c #98886F",
"M. c #9C8C72",
"N. c #9F9074",
"B. c #A39277",
"V. c #A69579",
"C. c #A8977B",
"Z. c #AA997C",
"A. c #B19F81",
"S. c None",
/* pixels */
"S.S.S.S.S.S.S.S.S.S.S.S.S.S.S.S.S.S.S.S.S.S.S.S.S.S.S.S.S.S.S.S.S.S.S.S.S.S.S.S.S.S.S.S.S.S.S.S.S.S.S.S.S.S.S.S.S.S.S.S.S.S.S.S.",
"S.S.S.S.S.S.S.S.S.S.S.S.S.S.S.S.S.S.S.S.S.S.S.S.S.S.S.S.S.S.S.S.S.S.S.S.S.S.S.S.S.S.S.S.S.S.S.S.S.S.S.S.S.S.S.S.S.S.S.S.S.S.S.S.",
"S.S.S.S.S.S.S.S.S.S.S.S.S.S.S.S.S.S.S.S.S.S.S.S.S.S.S.S.S.S.S.S.S.S.S.S.S.S.S.S.S.S.S.S.S.S.S.S.S.S.S.S.S.S.S.S.S.S.S.S.S.S.S.S.",
"S.S.S.S.S.S.S.S.S.S.S.S.S.S.S.S.S.S.S.S.S.S.S.S.S.S.S.S.S.S.S.S.S.O + o O o o o o S.S.S.S.S.S.S.S.S.S.S.S.S.S.S.S.S.S.S.S.S.S.S.",
"S.S.S.S.S.S.S.S.S.S.S.S.S.S.S.S.S.S.S.S.S.S.S.S.S.S.S.S.S.O % % % @ O o + $ % % $ S.S.S.S.S.S.S.S.S.S.S.S.S.S.S.S.S.S.S.S.S.S.S.",
"S.S.S.S.S.S.S.S.S.S.S.S.S.S.S.S.S.S.S.S.S.S.S.S.S.S.O O $ - ; w > % + % - w t t - O S.S.S.S.S.S.S.S.S.S.S.S.S.S.S.S.S.S.S.S.S.S.",
"S.S.S.S.S.S.S.S.S.S.S.S.S.S.S.S.S.S.S.S.S.S.S.S.O O % w M M y w - % w B V B N M ; + S.S.S.S.S.S.S.S.S.S.S.S.S.S.S.S.S.S.S.S.S.S.",
"S.S.S.S.S.S.S.S.S.S.S.S.S.S.S.S.S.S.S.S.S.S.S.O $ t B H D B & + + : V ^ ^ B N M , $ S.S.S.S.S.S.S.S.S.S.S.S.S.S.S.S.S.S.S.S.S.S.",
"S.S.S.S.S.S.S.S.S.S.S.S.S.S.S.S.S.S.S.S.S.S.O - g S _ | _ N $ > y B _ _ _ S B M : + S.S.S.S.S.S.S.S.S.S.S.S.S.S.S.S.S.S.S.S.S.S.",
"S.S.S.S.S.S.S.S.S.S.S.S.S.S.S.S.S.S.S.S.S.o ; h D | _ S N t $ g S _ _ _ | D A M , @ S.S.S.S.S.S.S.S.S.S.S.S.S.S.S.S.S.S.S.S.S.S.",
"S.S.S.S.S.S.S.S.S.S.S.S.S.S.S.S.S.S.S.S.S.$ N _ _ _ _ g & O $ M _ _ _ _ | D D B t % O S.S.S.S.S.S.S.S.S.S.S.S.S.S.S.S.S.S.S.S.S.",
"S.S.S.S.S.S.S.S.S.S.S.S.S.S.S.S.S.S.S.S.O f H | _ _ _ V w $ ; N ^ _ _ _ D | D S i - O S.S.S.S.S.S.S.S.S.S.S.S.S.S.S.S.S.S.S.S.S.",
"S.S.S.S.S.S.S.S.S.S.S.S.S.S.S.S.S.S.S.S.% G | | _ _ | S y % N B V Z S D _ _ _ D B t % o S.S.S.S.S.S.S.S.S.S.S.S.S.S.S.S.S.S.S.S.",
"S.S.S.S.S.S.S.S.S.S.S.S.S.S.S.S.S.S.S.$ p ] | | | | D M ; $ i N N N N B S D | D S N t % O S.S.S.S.S.S.S.S.S.S.S.S.S.S.S.S.S.S.S.",
"S.S.S.S.S.S.S.S.S.S.S.S.S.S.S.S.S.S.S.% z .. .D D S M > $ + 9 i i t w t M A D | D B M y % + S.S.S.S.S.S.S.S.S.S.S.S.S.S.S.S.S.S.",
"S.S.S.S.S.S.S.S.S.S.S.S.S.S.S.S.S.S.S.* G ..| D B , & @ + % , 9 - % % % , M A D ^ A v N t $ o S.S.S.S.S.S.S.S.S.S.S.S.S.S.S.S.S.",
"S.S.S.S.S.S.S.S.S.S.S.S.S.S.S.S.S.S.S.> o. ._ M & q q $ + @ % * f ) +.k & : M A ^ A N M M : + S.S.S.S.S.S.S.S.S.S.S.S.S.S.S.S.S.",
"S.S.S.S.S.S.S.S.S.S.S.S.S.S.S.S.S.S.S.> O.| N , q +.+.k $ + e ( -.1.1.-.k * , M A B N N N y & O S.S.S.S.S.S.S.S.S.S.S.S.S.S.S.S.",
"S.S.S.S.S.S.S.S.S.S.S.S.S.S.S.S.S.S.$ s #.D w a ' 5.5.@.F l ' 1.y.n.u.5.*.f % t v N M i M M w @ S.S.S.S.S.S.S.S.S.S.S.S.S.S.S.S.",
"S.S.S.S.S.S.S.S.S.S.S.S.S.S.S.S.S.S.* l #.M > G u.y.5.5.2.1.5.n.n.m.m.n.5.O.e - i N i w t M t - o S.S.S.S.S.S.S.S.S.S.S.S.S.S.S.",
"S.S.S.S.S.S.S.S.S.S.S.S.S.S.S.S.S.S.> G  .: f 2.V.n.5.5.5.y.n.N.C.Z.C.N.i.2.) % w M i : t i i : o S.S.S.S.S.S.S.S.S.S.S.S.S.S.S.",
"S.S.S.S.S.S.S.S.S.S.S.S.S.S.S.S.S.X s ] H - ) n.A.V.M.m.M.M.B.B.C.Z.Z.Z.M.y.>.j & t M M r : t , O S.S.S.S.S.S.S.S.S.S.S.S.S.S.S.",
"S.S.S.S.S.S.S.S.S.S.S.S.S.S.S.S.S.$ F *.M ; >.Z.A.A.C.V.V.C.A.C.Z.V.N.N.M.n.5.+.> : i M w - w t + S.S.S.S.S.S.S.S.S.S.S.S.S.S.S.",
"S.S.S.S.S.S.S.S.S.S.S.S.S.S.S.S.S.p X.=.g f ,.n.i.n.N.C.C.C.V.n.5.,.-.@.-.1.r.1.k ; , y , w y w $ S.S.S.S.S.S.S.S.S.S.S.S.S.S.S.",
"S.S.S.S.S.S.S.S.S.S.S.S.S.S.S.S.. z *.#.t f ) o.( ' 1.m.Z.C.n.O.f 9 1 = & l ;.5.' q & t y M M t + S.S.S.S.S.S.S.S.S.S.S.S.S.S.S.",
"S.S.S.S.S.S.S.S.S.S.S.S.S.S.S.S.. x *.] , - % 1 4 1 e ,.C.V.-.e 6 E W U 5 1 z 2.>.h & i N v M t O S.S.S.S.S.S.S.S.S.S.S.S.S.S.S.",
"S.S.S.S.S.S.S.S.S.S.S.S.S.S.S.S.  z *.%., O 1 L p.U 1 o.M.M.F 8 Q j.f.a.Y 4 q >.2.F ; t N N g , O S.S.S.S.S.S.S.S.S.S.S.S.S.S.S.",
"S.S.S.S.S.S.S.S.S.S.S.S.S.S.S.S.S.p *.3.f X < p.x.s.< ) m.M.z I g.v.x.k.8.c q >.5./ ; t N N i ; o S.S.S.S.S.S.S.S.S.S.S.S.S.S.S.",
"S.S.S.S.S.S.S.S.S.S.S.S.S.S.S.S.S.$ X.6.G # 2 ! z.a.3 o.N.M.F K f.b.c.l.8.c q -.-.k - y v N y - o S.S.S.S.S.S.S.S.S.S.S.S.S.S.S.",
"S.S.S.S.S.S.S.S.S.S.S.S.S.S.S.S.S.. d @.*., $ c W J e >.Z.V.>.u P h.h.a.J : > F a % - g g M t $ S.S.S.S.S.S.S.S.S.S.S.S.S.S.S.S.",
"S.S.S.S.S.S.S.S.S.S.S.S.S.S.S.S.S.S.$ p H A , + + & +.n.Z.V.M.) e 2 3 1 @ + $ $ O O - t ; , % $ S.S.S.S.S.S.S.S.S.S.S.S.S.S.S.S.",
"S.S.S.S.S.S.S.S.S.S.S.S.S.S.S.S.S.S.S.$ , s , # o * ,.V.A.Z.C.n.,.) l % o o S.S.S.O + $ + $ $ O S.S.S.S.S.S.S.S.S.S.S.S.S.S.S.S.",
"S.S.S.S.S.S.S.S.S.S.S.S.S.S.S.S.S.S.S.S.O $ $ O + $ / 1.n.V.Z.V.i.*.l $ X X S.S.S.S.O o S.o o S.S.S.S.S.S.S.S.S.S.S.S.S.S.S.S.S.",
"S.S.S.S.S.S.S.S.S.S.S.S.S.S.S.S.S.S.S.S.S.O S.S.o o + f +.1.5.4.&.z ; + % @ + S.S.S.S.S.S.S.S.S.S.S.S.S.S.S.S.S.S.S.S.S.S.S.S.S.",
"S.S.S.S.S.S.S.S.S.S.S.S.S.S.S.S.S.S.S.S.S.S.S.S.S.S.+ @ $ % q > % o o @ m b ; o O S.S.S.S.S.S.S.S.S.S.S.S.S.S.S.S.S.S.S.S.S.S.S.",
"S.S.S.S.S.S.S.S.S.S.S.S.S.S.S.S.S.S.S.S.S.S.S.S.S.o & t y & > % % ; - @ 7.e.7.= O S.S.S.S.S.S.S.S.S.S.S.S.S.S.S.S.S.S.S.S.S.S.S.",
"S.S.S.S.S.S.S.S.S.S.S.S.S.S.S.S.S.S.S.S.S.S.S.+ $ $ $ t g f j y g B i $ R w.q.: o o S.S.S.S.S.S.S.S.S.S.S.S.S.S.S.S.S.S.S.S.S.S.",
"S.S.S.S.S.S.S.S.S.S.S.S.S.S.S.S.S.S.S.S.S.S.O & t y % & t C ~ N B D B ; r b R : - $ O S.S.S.S.S.S.S.S.S.S.S.S.S.S.S.S.S.S.S.S.S.",
"S.S.S.S.S.S.S.S.S.S.S.S.S.S.S.S.S.S.S.S.S.O O > N Z w + * j C t M S M y - + @ y B t $ o S.S.S.S.S.S.S.S.S.S.S.S.S.S.S.S.S.S.S.S.",
"S.S.S.S.S.S.S.S.S.S.S.S.S.S.S.S.S.S.S.S.S.S.+ $ & y j 0 & 9 9 % & - $ : : @ ; B S V w O S.S.S.S.S.S.S.S.S.S.S.S.S.S.S.S.S.S.S.S.",
"S.S.S.S.S.S.S.S.S.S.S.S.S.S.S.S.S.S.S.S.S.S.S.S.+ ; ` j % ; - n v ; t - - % + - > w - O S.S.S.S.S.S.S.S.S.S.S.S.S.S.S.S.S.S.S.S.",
"S.S.S.S.S.S.S.S.S.S.S.S.S.S.S.S.S.S.S.S.S.S.S.S.O & C 0 $ ; & T { } 9.B ; + + + O $ $ $ S.S.S.S.S.S.S.S.S.S.S.S.S.S.S.S.S.S.S.S.",
"S.S.S.S.S.S.S.S.S.S.S.S.S.S.S.S.S.S.S.S.S.S.S.S.S.& > $ + - $ r [ 9.0.^ > $ $ O S.S.o S.S.S.S.S.S.S.S.S.S.S.S.S.S.S.S.S.S.S.S.S.",
"S.S.S.S.S.S.S.S.S.S.S.S.S.S.S.S.S.S.S.S.S.S.S.S.S.S.S.S.$ $ + X % 0 u h ; $ $ + S.S.S.S.S.S.S.S.S.S.S.S.S.S.S.S.S.S.S.S.S.S.S.S.",
"S.S.S.S.S.S.S.S.S.S.S.S.S.S.S.S.S.S.S.S.S.S.S.S.S.S.S.S.O O + S.S.O + + o + % % + S.S.S.S.S.S.S.S.S.S.S.S.S.S.S.S.S.S.S.S.S.S.S.",
"S.S.S.S.S.S.S.S.S.S.S.S.S.S.S.S.S.S.S.S.S.S.S.S.S.S.S.S.S.O o S.S.S.o o o + % % + O S.S.S.S.S.S.S.S.S.S.S.S.S.S.S.S.S.S.S.S.S.S.",
"S.S.S.S.S.S.S.S.S.S.S.S.S.S.S.S.S.S.S.S.S.S.S.S.S.S.S.S.S.S.+ S.S.S.S.S.S.S.+ + + O O S.S.S.S.S.S.S.S.S.S.S.S.S.S.S.S.S.S.S.S.S.",
"S.S.S.S.S.S.S.S.S.S.S.S.S.S.S.S.S.S.S.S.S.S.S.S.S.S.S.S.S.S.S.S.S.S.S.S.S.S.S.O o O O S.S.S.S.S.S.S.S.S.S.S.S.S.S.S.S.S.S.S.S.S.",
"S.S.S.S.S.S.S.S.S.S.S.S.S.S.S.S.S.S.S.S.S.S.S.S.S.S.S.S.S.S.S.S.S.S.S.S.S.S.S.S.S.S.S.S.S.S.S.S.S.S.S.S.S.S.S.S.S.S.S.S.S.S.S.S.",
"S.S.S.S.S.S.S.S.S.S.S.S.S.S.S.S.S.S.S.S.S.S.S.S.S.S.S.S.S.S.S.S.S.S.S.S.S.S.S.S.S.S.S.S.S.S.S.S.S.S.S.S.S.S.S.S.S.S.S.S.S.S.S.S.",
"S.S.S.S.S.S.S.S.S.S.S.S.S.S.S.S.S.S.S.S.S.S.S.S.S.S.S.S.S.S.S.S.S.S.S.S.S.S.S.S.S.S.S.S.S.S.S.S.S.S.S.S.S.S.S.S.S.S.S.S.S.S.S.S.",
"S.S.S.S.S.S.S.S.S.S.S.S.S.S.S.S.S.S.S.S.S.S.S.S.S.S.S.S.S.S.S.S.S.S.S.S.S.S.S.S.S.S.S.S.S.S.S.S.S.S.S.S.S.S.S.S.S.S.S.S.S.S.S.S."
};
