/* XPM */
static char *b21d991ee8374d88c21b20dc5d730af5Ml2Rb7SqpnVpoatb[] = {
/* columns rows colors chars-per-pixel */
"32 35 178 2 ",
"   c None",
".  c #2C1C2E",
"X  c #361C34",
"o  c #3A1839",
"O  c #32222E",
"+  c #42183E",
"@  c #692C3F",
"#  c #6F353E",
"$  c #55442C",
"%  c #7E4C3E",
"&  c #7A473E",
"*  c #3E004C",
"=  c #3F0E43",
"-  c #3E1041",
";  c #44054B",
":  c #440849",
">  c #490C4C",
",  c #4F134A",
"<  c #51124C",
"1  c #56194C",
"2  c #5A1C4B",
"3  c #5C1F45",
"4  c #632447",
"5  c #722E47",
"6  c #753341",
"7  c #72364F",
"8  c #763A4E",
"9  c #7A394A",
"0  c #753F50",
"q  c #575C5F",
"w  c #5A595E",
"e  c #61575D",
"r  c #79695F",
"t  c #595A65",
"y  c #555874",
"u  c #53716F",
"i  c #707066",
"p  c #766175",
"a  c #6B7B6A",
"s  c #955939",
"d  c #B6792B",
"f  c #A66538",
"g  c #BC7438",
"h  c #C3763D",
"j  c #C07C30",
"k  c #894847",
"l  c #944E4D",
"z  c #9A494D",
"x  c #964749",
"c  c #9B5648",
"v  c #904B5A",
"b  c #8D5154",
"n  c #AC554E",
"m  c #AB5A4E",
"M  c #A25D49",
"N  c #B35B4D",
"B  c #B0554F",
"V  c #AF5854",
"C  c #AA5550",
"Z  c #B15C51",
"A  c #96664E",
"S  c #AB6044",
"D  c #B4624B",
"F  c #B8634F",
"G  c #B76B48",
"H  c #BF7344",
"J  c #B86250",
"K  c #A5665E",
"L  c #8C4D61",
"P  c #CC6E49",
"I  c #C26C4B",
"U  c #C2714A",
"Y  c #CA724D",
"T  c #C57545",
"R  c #D77E4A",
"E  c #D27D47",
"W  c #C27753",
"Q  c #2E8D7D",
"!  c #27927F",
"~  c #5C866E",
"^  c #548C73",
"/  c #538F78",
"(  c #788A71",
")  c #53BB7B",
"_  c #62B66D",
"`  c #BA831D",
"'  c #BE8423",
"]  c #D8B51E",
"[  c #C48723",
"{  c #CF8D26",
"}  c #C68727",
"|  c #D38E2B",
" . c #D28D26",
".. c #CE9B21",
"X. c #D29226",
"o. c #DA932C",
"O. c #C98133",
"+. c #D18A31",
"@. c #D6823E",
"#. c #D9893B",
"$. c #DE9134",
"%. c #E39A2B",
"&. c #E29532",
"*. c #E4933C",
"=. c #EB973E",
"-. c #F39D3D",
";. c #E5AA2A",
":. c #EFA22F",
">. c #EABF24",
",. c #EEA73E",
"<. c #F4A235",
"1. c #FCA535",
"2. c #FBA935",
"3. c #F4A33C",
"4. c #FAA53A",
"5. c #FDAB3A",
"6. c #F4AB37",
"7. c #EAB335",
"8. c #FFB436",
"9. c #F5BE3C",
"0. c #FFCE2E",
"q. c #F2CC28",
"w. c #EDD723",
"e. c #FBDC25",
"r. c #F8D727",
"t. c #FEE125",
"y. c #FFED21",
"u. c #FFE22B",
"i. c #B3B053",
"p. c #B3AA59",
"a. c #D58143",
"s. c #DE874F",
"d. c #DF894E",
"f. c #D98743",
"g. c #DF8751",
"h. c #EA9747",
"j. c #E18950",
"k. c #CCAE4C",
"l. c #D9AD48",
"z. c #EDAB43",
"x. c #FDBC4D",
"c. c #FAAD59",
"v. c #FDC741",
"b. c #4A6B83",
"n. c #2D8D8C",
"m. c #14AB8E",
"M. c #19A087",
"N. c #09AD94",
"B. c #02BD97",
"V. c #14BF93",
"C. c #18BC99",
"Z. c #38BC84",
"A. c #469789",
"S. c #01C19A",
"D. c #09C29C",
"F. c #00C99E",
"G. c #14C09D",
"H. c #17C39A",
"J. c #23C295",
"K. c #0BC7A1",
"L. c #15C9A6",
"P. c #15D1AC",
"I. c #24C9A8",
"U. c #34CAAD",
"Y. c #2CD0AF",
"T. c #2AD2B2",
"R. c #31D5B4",
"E. c #54CB9C",
"W. c #4BD7BB",
"Q. c #5DD9C0",
"!. c #6AE4CF",
"~. c #84EED9",
"^. c #91EEDC",
"/. c #99F0DE",
"(. c #A3F4E4",
"). c #B2F7E9",
"_. c #C4FCF2",
"`. c #C8FEF3",
/* pixels */
"            Z Z V J V V Z Z V V D V D V V Z Z Z Z Z V           ",
"          ` h Y Y Y Y Y Y Y Y Y Y Y Y Y Y Y Y Y Y Y T '         ",
"          o.#.R a.R a.s.a.a.s.R R R a.s.a.s.a.f.a.R a.$.        ",
"          8.h.g.d.d.d.d.g.d.g.g.d.g.g.g.d.d.g.d.g.g.h.5.        ",
"          t.v.c.c.c.c.c.c.c.c.c.c.c.c.c.c.c.c.c.c.c.x.u.        ",
"          y.u.0.j.j.j.j.j.j.j.j.g.g.j.d.j.j.j.j.j.z.e.y.        ",
"          t.t.r.7.7.7.7.7.7.7.7.7.7.7.7.7.7.7.7.7.q.y.t.        ",
"          y.y.y.y.y.y.y.y.y.y.y.y.y.y.y.y.y.y.y.y.y.y.y.        ",
"          w.w.w.w.w.w.w.w.w.w.w.w.w.w.w.w.w.w.w.w.w.w.w.        ",
"          $ $ $ $ $ $ $ $ $ $ $ $ $ $ $ $ $ $ $ $ $ $ $         ",
"          . . . . . . . . . . . . . . . . . . . . . . .         ",
"          O O O O O O O O O O O O O O O O O O O X O O O         ",
"          O O O O O O O O O O O O O O O O O O O O O O O         ",
"          O O O O O O O O O O O O O O O O O O O O O O O         ",
"          = o O O O O O O O O O O O O O O O O O O O X =         ",
"          ; o O O O O O O O O O O O O O O O O O O O X ;         ",
"          < + X X X X X X X X X X X X X X X X X X X o <         ",
"          8 2 ; : : : : : : : : : : : : : : : : : : , 7         ",
"          e 2 ; ; ; ; ; ; ; : : ; : : : ; ; ; ; ; ; , 8         ",
"          9 1 * ; ; * ; ; ; * * ; * * * ; ; ; ; ; * > 7         ",
"          A x 6 @ 1 5 4 3 @ & % e s & # @ 3 6 2 3 6 k c         ",
"        H.k.1.%.d k #.T k [ q.t.r.r.e...s c =.l f | 4.4.        ",
"      D.  5.%.j D m h.a.S [ 6.8.2.8.8.X.f I -.F m g | 2.        ",
"D.D.W.!.J.l.g l V Z O.$.#.[ <.%.;.0.1.{ +.*.| D V c f 3.) S.    ",
"S.B.W.^.H.k.@.G E E +.<.<.[ <.;.] >.2. .%.2.o.E E H H ,.Z.T.W.  ",
"  S.    V.k.1.<.-.-.-.-.&.d <.0.>.X.4.} +.-.-.-.-.-.1.6.Z.!.^.S.",
"          5.%.g J J J I m k =.5.2.4.4.c l F J F F g  .,.Z.      ",
"          2.@.D Z Z Z N N n I P P Y P m n Z Z Z Z N T 3.        ",
"  S.      2.W L z z i ^ ^ ~ b i / / ^ ^ r z z z z v K 4._       ",
"R.L.S.    i.( y e t M.L.R.U.u ! F.D.T.R.A.t w w w y p p.E.L.S.  ",
"_.    D.L.H.D.Q e m.    `.).I.      _.`.W.V.G.G.D.n.b.C./.    S.",
"      I./.(.~.  m.          D.          L.Y.(.(.  N.N.S.      S.",
"                S.          S.                      F.S.        ",
"                S.          S.                        S.        ",
"                  S.                                            "
};
