/* XPM */
static char *result[] = {
/* columns rows colors chars-per-pixel */
"64 64 10 1 ",
"  c #252241",
". c #2C3068",
"X c #6C2B44",
"o c #96515E",
"O c #433986",
"+ c #3C5393",
"@ c #696DB1",
"# c #5CA6E1",
"$ c #ADA9C7",
"% c None",
/* pixels */
"%%%%%%%%%%%%%%%%%%%%%%%%%%%%%%%%%%%%%%%%%%%%%%%%%%%%%%%%%%%%%%%%",
"%%%%%%%%%%%%%%%%%%%%%%%%%%%%%%%%%%%%%%%%%%%%%%%%%%%%%%%%%%%%%%%%",
"%%%%%%%%%%%%%%%%%%%%%%%%%%%%%%%%%%%%%%%%%%%%%%%%%%%%%%%%%%%%%%%%",
"%%%%%%%%%%%%%%%%%%%%%%%%%%%%%%%%%%%%%%%%%%%%%%%%%%%%%%%%%%%%%%%%",
"%%%%%%%%%%%%%%%%%%%%%%%%%             %%%%%%%%%%%%%%%%%%%%%%%%%%",
"%%%%%%%%%%%%%%%%%%%%% %  ...... ......  % %%%%%%%%%%%%%%%%%%%%%%",
"%%%%%%%%%%%%%%%%%%%  . ..#####. .#####.. .  %%%%%%%%%%%%%%%%%%%%",
"%%%%%%%%%%%%%%%%%  ... ..+++++. .+++++.. ...  %%%%%%%%%%%%%%%%%%",
"%%%%%%%%%%%%%%%% ..##.. .+++++. .+++++. ..##.. %%%%%%%%%%%%%%%%%",
"%%%%%%%%%%%%%%% .##++#. ..++++. .++++.. .#++##. %%%%%%%%%%%%%%%%",
"%%%%%%%%%%%%%  .#+++++.. ...... ...... ..+++++#.  %%%%%%%%%%%%%%",
"%%%%%%%%%%%% ..#++++++..  ....   ..... ..++++++#.. %%%%%%%%%%%%%",
"%%%%%%%%%%% . ..+++++..                 ..+++++.. . %%%%%%%%%%%%",
"%%%%%%%%%%% .. ..+++..                   ..+++.. .. %%%%%%%%%%%%",
"%%%%%%%%%% .##. .....                     ..... .##. %%%%%%%%%%%",
"%%%%%%%%%% .++#. ...                       ... .#++. %%%%%%%%%%%",
"%%%%%%%%% .#+++#.                             .#+++#. %%%%%%%%%%",
"%%%%%%%%% .+++++.    X                        .+++++. %%%%%%%%%%",
"%%%%%%%% ...+++..   XXX                       ..+++... %%%%%%%%%",
"%%%%%%%% .......   oXXX                        ....... %%%%%%%%%",
"%%%%%%%%%   ...   ooXXX X                       ...   %%%%%%%%%%",
"%%%%%%%% ...      ooXXX X                          ... %%%%%%%%%",
"%%%%%%%% .....   oooXXX X                        ..... %%%%%%%%%",
"%%%%%%%% .###..  oooXXX X                       ..###. %%%%%%%%%",
"%%%%%%%% .+++#.  oooXXX X                       .#+++. %%%%%%%%%",
"%%%%%%%% .++++.  oooXXX X                       .++++. %%%%%%%%%",
"%%%%%%%% .++++.  oooXXX X                       .++++. %%%%%%%%%",
"%%%%%%%% .++++.       X X                       .++++. %%%%%%%%%",
"%%%%%%%% ......  OOOO   X                       ...... %%%%%%%%%",
"%%%%%%%% .....  O$$$$O  X                        ..... %%%%%%%%%",
"%%%%%%%%%       O@@@@OO X                             %%%%%%%%%%",
"%%%%%%%% .....  O@@@@OO X                        ..... %%%%%%%%%",
"%%%%%%%% .####. OO@@@OO X                       .####. %%%%%%%%%",
"%%%%%%%% .++++. OOOOOO  X                       .++++. %%%%%%%%%",
"%%%%%%%% .++++.  OOOO   X                       .++++. %%%%%%%%%",
"%%%%%%%% .++++.       X X                       .++++. %%%%%%%%%",
"%%%%%%%% .++++.  oooXXX X                       .++++. %%%%%%%%%",
"%%%%%%%% ......  oooXXX X                       ...... %%%%%%%%%",
"%%%%%%%% .....   oooXXX X                        ..... %%%%%%%%%",
"%%%%%%%%%        oooXXX X                             %%%%%%%%%%",
"%%%%%%%% .....   oooXXX X                        ..... %%%%%%%%%",
"%%%%%%%% .####.  oooXXX X                       .####. %%%%%%%%%",
"%%%%%%%% .++++.  oooXXX X                       .++++. %%%%%%%%%",
"%%%%%%%% .++++.  oooXXX X                       .++++. %%%%%%%%%",
"%%%%%%%% .++++.  oooXXX X                       .++++. %%%%%%%%%",
"%%%%%%%% .++++.       X X                       .++++. %%%%%%%%%",
"%%%%%%%% .++++.  OOOO   X                       .++++. %%%%%%%%%",
"%%%%%%%% ...... O$$$$O  X                       ...... %%%%%%%%%",
"%%%%%%%% .....  O@@@@OO X                        ..... %%%%%%%%%",
"%%%%%%%%%       O@@@@OO X                             %%%%%%%%%%",
"%%%%%%%% .....  OO@@@OO X                        ..... %%%%%%%%%",
"%%%%%%%% .####. OOOOOO  X                       .####. %%%%%%%%%",
"%%%%%%%% .++++.  OOOO   X                       .++++. %%%%%%%%%",
"%%%%%%%% .++++.       X X                       .++++. %%%%%%%%%",
"%%%%%%%% .....   oooXXX X                        ..... %%%%%%%%%",
"%%%%%%%%%        oooXXX                               %%%%%%%%%%",
"%%%%%%%% .....   oooXX                           ..... %%%%%%%%%",
"%%%%%%%% .+##+.  oooX                           .+##+. %%%%%%%%%",
"%%%%%%%  .....                                   .....  %%%%%%%%",
"%%%%%%                                                   %%%%%%%",
"%%%%%%%%%%%%%%%%%%%%%%%%%%%%%%%%%%%%%%%%%%%%%%%%%%%%%%%%%%%%%%%%",
"%%%%%%%%%%%%%%%%%%%%%%%%%%%%%%%%%%%%%%%%%%%%%%%%%%%%%%%%%%%%%%%%",
"%%%%%%%%%%%%%%%%%%%%%%%%%%%%%%%%%%%%%%%%%%%%%%%%%%%%%%%%%%%%%%%%",
"%%%%%%%%%%%%%%%%%%%%%%%%%%%%%%%%%%%%%%%%%%%%%%%%%%%%%%%%%%%%%%%%"
};
