/* XPM */
static char *result[] = {
/* columns rows colors chars-per-pixel */
"64 59 125 2 ",
"   c #030401",
".  c #060802",
"X  c #0A0C03",
"o  c #0E1205",
"O  c #111506",
"+  c #151A07",
"@  c #191F08",
"#  c #1C2409",
"$  c #1F280A",
"%  c #252F0C",
"&  c #26310C",
"*  c #2A340E",
"=  c #2D390F",
"-  c #31350E",
";  c #38370F",
":  c #313C0F",
">  c #3D390F",
",  c #2E3C10",
"<  c #313E11",
"1  c #3D3A10",
"2  c #423B10",
"3  c #483E11",
"4  c #35400F",
"5  c #354211",
"6  c #3A4611",
"7  c #374814",
"8  c #3C4B13",
"9  c #3D5117",
"0  c #3F5218",
"q  c #444512",
"w  c #484311",
"e  c #404E13",
"r  c #4B4B1A",
"t  c #564414",
"y  c #584514",
"u  c #455315",
"i  c #485716",
"p  c #4A5A17",
"a  c #415619",
"s  c #445B1B",
"d  c #4C5D19",
"f  c #5F5816",
"g  c #5C571F",
"h  c #644B15",
"j  c #615516",
"k  c #685C17",
"l  c #7C5619",
"z  c #47611C",
"x  c #4B621D",
"c  c #4E691F",
"v  c #53641B",
"b  c #556A1D",
"n  c #596C1D",
"m  c #5B711F",
"M  c #6E6218",
"N  c #4E6720",
"B  c #4F6A20",
"V  c #516D21",
"C  c #557222",
"Z  c #5C7521",
"A  c #5C7A24",
"S  c #607C24",
"D  c #865A1B",
"F  c #8F661C",
"G  c #93641C",
"H  c #976B1D",
"J  c #9B6A1E",
"K  c #A3651F",
"L  c #A7751F",
"P  c #A8711F",
"I  c #927F33",
"U  c #AB6C20",
"Y  c #B96F22",
"T  c #AA7120",
"R  c #B57222",
"E  c #BB7622",
"W  c #B67E21",
"Q  c #BB7C23",
"!  c #5F8227",
"~  c #5F8228",
"^  c #638427",
"/  c #638628",
"(  c #668B2A",
")  c #688E2B",
"_  c #6A922C",
"`  c #6F982F",
"'  c #70972E",
"]  c #70982F",
"[  c #6F9530",
"{  c #739C31",
"}  c #76A233",
"|  c #7AA435",
" . c #7FAB37",
".. c #9F8320",
"X. c #938034",
"o. c #BB8322",
"O. c #B69529",
"+. c #81AE38",
"@. c #85B43A",
"#. c #88B73C",
"$. c #8CBD3E",
"%. c #C28423",
"&. c #C58B23",
"*. c #C79024",
"=. c #CA9525",
"-. c #CC9C27",
";. c #CFA128",
":. c #D0A127",
">. c #D2A52A",
",. c #D3A82A",
"<. c #C2A13B",
"1. c #D3A534",
"2. c #D6AC33",
"3. c #D8AE37",
"4. c #D5AC39",
"5. c #DBB23E",
"6. c #8EC03F",
"7. c #BB9D40",
"8. c #BEA043",
"9. c #C5A543",
"0. c #DDB545",
"q. c #DFB84D",
"w. c #E0B94F",
"e. c #E2BA50",
"r. c None",
/* pixels */
"r.r.r.r.r.r.r.r.r.r.r.r.r.r.r.r.r.r.r.r.r.r.r.r.r.r.r.r.% & % % % & % % % % r.r.r.r.r.r.r.r.r.r.r.r.r.r.r.r.r.r.r.r.r.r.r.r.r.r.",
"r.r.r.r.r.r.r.r.r.r.r.r.r.r.r.r.r.r.r.r.r.r.r.r.r.% % % % & % % % % & % % & % % % r.r.r.r.r.r.r.r.r.r.r.r.r.r.r.r.r.r.r.r.r.r.r.",
"r.r.r.r.r.r.r.r.r.r.r.r.r.r.r.r.r.r.r.r.r.r.r.& % % & % & & & & % % & % % % % & % % % % r.r.r.r.r.r.r.r.r.r.r.r.r.r.r.r.r.r.r.r.",
"r.r.r.r.r.r.r.r.r.r.r.r.r.r.r.r.r.r.r.r.r.% % % % % % % & & & = < < * * * % % % & % % % % % r.r.r.r.r.r.r.r.r.r.r.r.r.r.r.r.r.r.",
"r.r.r.r.r.r.r.r.r.r.r.r.r.r.r.r.r.r.r.% % % % % & % * 5 u v A A ^ A Z V 6 % % & % % & % % % % r.r.r.r.r.r.r.r.r.r.r.r.r.r.r.r.r.",
"r.r.r.r.r.r.r.r.r.r.r.r.r.r.r.r.r.r.% & % % % % % : s Z / ~ A C C ~ [ A , % % % = * & % % & % % & r.r.r.r.r.r.r.r.r.r.r.r.r.r.r.",
"r.r.r.r.r.r.r.r.r.r.r.r.r.r.r.r.r.% % % % % % % % * b A s 5 & & & * , 5 % & % , C x 4 * & % % % % % r.r.r.r.r.r.r.r.r.r.r.r.r.r.",
"r.r.r.r.r.r.r.r.r.r.r.r.r.r.r.% % % % % % & * % % % , , & % & % % & % % % & & A ` ^ b e : & & % % % & r.r.r.r.r.r.r.r.r.r.r.r.r.",
"r.r.r.r.r.r.r.r.r.r.r.r.r.r.% & % % % % = 6 u * % % % % % % % % % % % % % % * N { ) / Z d 4 * % & % % % r.r.r.r.r.r.r.r.r.r.r.r.",
"r.r.r.r.r.r.r.r.r.r.r.r.r.% % % % % % < e v n u * % % % % * w k M f 6 * % % % & N ( _ ) m x 6 * % % % & % r.r.r.r.r.r.r.r.r.r.r.",
"r.r.r.r.r.r.r.r.r.r.r.r.r.% % % % * : 8 d n Z ) 7 % % % ; l W -.,.4.9.I r % % % & N { [ / ! C 8 * % % % % % r.r.r.r.r.r.r.r.r.r.",
"r.r.r.r.r.r.r.r.r.r.r.r.% % & % % : 6 d ^ ( ' { < % % - D E *.>.5.w.e.e.7.g % % % 7 { { ) ) ) A 6 = % % % & r.r.r.r.r.r.r.r.r.r.",
"r.r.r.r.r.r.r.r.r.r.r.% % % % & , 5 8 V / ) @.A % % % h Q =.,.,.q.w.w.w.e.9.r % & & 9 0 0 s N 0 6 5 * & % % % r.r.r.r.r.r.r.r.r.",
"r.r.r.r.r.r.r.r.r.r.% % % & % & & & = , 5 7 N 7 % % - G &.>.,.3.q.w.w.w.w.w.I * % % % % % & & & * = : & % & % & r.r.r.r.r.r.r.r.",
"r.r.r.r.r.r.r.r.r.r.% & % & % % % % % % % % % % % % 2 T *.>.,.4.q.w.w.w.w.w.7.q $ % % % % % % & % & & & % % & % r.r.r.r.r.r.r.r.",
"r.r.r.r.r.r.r.r.r.% % % % % % % % % % $ % % % % % % * H &.-.,.2.0.w.w.w.w.w.8.w & & & , , , % $ % % % & % % % % % r.r.r.r.r.r.r.",
"r.r.r.r.r.r.r.r.% % % % % & & & 5 9 s 0 9 7 & % % % & F &.*.;.>.2.0.e.e.w.0.O.q & & 7 ` } ` m 9 * & & % % % % & % r.r.r.r.r.r.r.",
"r.r.r.r.r.r.r.r.% & % % % * N _ |  .@.@. .{ 0 % % % 3 U %.%.*.-.;.>.2.4.1.>...- $ $ 0 @.6.6.6.` C 6 & % & % % % % r.r.r.r.r.r.r.",
"r.r.r.r.r.r.r.% % % % 4 9 C #.6.6.6.6.6. .N * % % % y Y E o.%.%.&.&.=.*.%.o.j % & & c 6.6.6.6.{ _ ( s * & % % % % % r.r.r.r.r.r.",
"r.r.r.r.r.r.r.& % % = C ~ `  .6.6.$.6.} 0 % % % % % 1 l U R %.&.&.&.%.o.R l * % & = _ 6.6.6.} _ ) ) ) z & % % & % & r.r.r.r.r.r.",
"r.r.r.r.r.r.r.% & % 0 _ _ ) | $.6.6.{ 7 % % % % % % % & ; h D J T T J D t & % % $ z #.6.6.@.` _ ( A ^ ^ 8 & % % % & r.r.r.r.r.r.",
"r.r.r.r.r.r.% % % = ! ( / ) { @.$.{ 7 % & % & 7 * % % % % % * - 1 1 ; * % % % % & C $.6.6.| _ _ ^ m m m x = % & % % r.r.r.r.r.r.",
"r.r.r.r.r.r.& % & 9 ( m m ( _ ` / 7 % % % , A ` N , % % % % % % % % % % % % % % % 7 | $.| _ _ _ ( m n n d 4 & & % % % r.r.r.r.r.",
"r.r.r.r.r.r.% % & 7 b m n Z ( A 7 % % % , ( $.#.[ 5 % % % % % % % % % % & 5 , % % & B #.} _ ) ) ( m n b e 6 : & & % % r.r.r.r.r.",
"r.r.r.r.r.% % % * 4 u n n n b 7 % % % , ) $.6.6.) & % % 7 C V s 9 9 s V S | ( * % % 5 ` ` _ _ _ S n n b 8 6 4 * % % % r.r.r.r.r.",
"r.r.r.r.r.% % & = 6 u n n n 6 & % % * A #.$.$.#.N % % & C 6.6.#.+.+.@.$.6.6.#.s % % $ z _ _ _ _ Z n n d 8 6 5 & % % & r.r.r.r.r.",
"r.r.r.r.r.% % % : 6 u n n u & % % & N { $.$.6. ., % % , } 6.$.$.$.$.6.$.6.$.$.) * % % 4 ~ _ _ ! n n n v 8 6 : & % % % r.r.r.r.r.",
"r.r.r.r.r.% % & : 6 i n d * & % & a ) { $.$.$.( * % % s #.$.6.$.$.$.$.$.$.6.6.+.9 $ % & C _ _ ! n n n v 8 6 = & & % % r.r.r.r.r.",
"r.r.r.r.@ % % & : 6 i v 6 % % % 7 A _ [ @.$.6.N % % % ~ 6.$.$.$.#.#.@.@.+.|  .#.C % % % a ) ) ( n n n i 8 6 = & % % % r.r.r.r.r.",
"r.r.r.r.@ % % & : 6 8 6 & % & * V _ _ _ } @. .9 % % , { 6.@.{ ` ` ` ` { [ [ _ { A * % % 7 ( ) ( n n p 6 6 5 * % % % % r.r.r.r.r.",
"r.r.r.r.@ % & % = 6 6 * % & % 7 ) [ ) _ ) ` ~ , % % 9  .@.` _ _ ) ) _ _ _ _ _ _ ! 5 % % = A ( m n b u 6 6 = * % % % # r.r.r.r.r.",
"r.r.r.r.@ % % & : 6 : & % % * d C A / ) ) _ C & % $ s @.} ) _ _ _ _ ) _ ) _ _ _ _ 9 % % & V ( n n p q 6 4 = % % % % r.r.r.r.r.r.",
"r.r.r.r.@ & % % : 6 * % % & : b n n m ( _ _ c & % % z ` _ _ _ ) _ _ _ _ _ _ _ _ _ z & % % z ( m v q 6 6 = = & % & % r.r.r.r.r.r.",
"r.r.r.r.+ % % % : : & % & & 6 v m n n m ( _ z % % & c _ _ _ ) ) _ _ _ ) ^ m A ( _ c * % % 9 A n d 8 4 4 = & & & % # r.r.r.r.r.r.",
"r.r.r.r.o % % % = - % % % & e v n n n m ( _ a & & & V _ _ ) ^ ^ _ ) ( / m n n m m v * % % 4 v p 8 6 4 4 * & % % % + r.r.r.r.r.r.",
"r.r.r.r.. % % % & & & % & : 6 i v v n m m ! 8 % % * n _ ) ( n n A A m m n n n m n v * % % 4 p 8 6 4 4 = * % % % # r.r.r.r.r.r.r.",
"r.r.r.r.r.# % % % % % % % : 8 6 6 e v n n n 7 % % & z ( ) S n n n n n n n n n n v e * % & * 8 6 7 4 = = & & & % + r.r.r.r.r.r.r.",
"r.r.r.r.r.O % % % % % % * : 6 6 6 6 8 u v n 9 % & & u m m n n n n b n n n n n v 6 6 * % % & 6 4 = = * & & & & # r.r.r.r.r.r.r.r.",
"r.r.r.r.r.. # % % & & % * = 5 6 6 8 6 6 p n u % % % 8 n n n n n n n n n n n n p 8 6 * % % & 4 : = = & & & % % O r.r.r.r.r.r.r.r.",
"r.r.r.r.r.r.O % % % % % * = : 8 6 6 6 6 i n i & % % 4 p v n n n n n n n b p u u 6 6 * % % & : = = * & & % % # r.r.r.r.r.r.r.r.r.",
"r.r.r.r.r.r.  # & % % & & = = 5 6 6 6 6 u n v * % % * 6 e d v b n n n n v 6 6 6 6 6 * % % & * = * % % % % % X r.r.r.r.r.r.r.r.r.",
"r.r.r.r.r.r.r.. # % % % % * = < 6 6 8 6 8 v b 4 % % & : 6 e 8 e i u u v x 6 6 6 6 6 * % % & = * & % % % % o r.r.r.r.r.r.r.r.r.r.",
"r.r.r.r.r.r.r.r.X % % % % % * * 4 6 6 6 6 e p 6 & % % : 6 6 q 8 6 6 6 8 u 6 6 6 6 : & % % & * & % % % % o r.r.r.r.r.r.r.r.r.r.r.",
"r.r.r.r.r.r.r.r.r.X % % % % % % * = 4 4 6 8 8 8 & % % * 6 6 6 6 6 6 6 6 6 6 4 : : = & & % % % % % % % + r.r.r.r.r.r.r.r.r.r.r.r.",
"r.r.r.r.r.r.r.r.r.r.o $ % % % % % * * = 4 6 6 6 & % % & : 5 7 5 4 6 6 4 = = = = = * * % % % % % % % O r.r.r.r.r.r.r.r.r.r.r.r.r.",
"r.r.r.r.r.r.r.r.r.r.r.X # % % % % % % * = = 4 6 : % % % * = = - = : = = = = = = = * % % % % & & % o r.r.r.r.r.r.r.r.r.r.r.r.r.r.",
"r.r.r.r.r.r.r.r.r.r.r.r.  @ % % % % % % % & * = = % % % % = , , = = = = = = = * % % % & % % % # X r.r.r.r.r.r.r.r.r.r.r.r.r.r.r.",
"r.r.r.r.r.r.r.r.r.r.r.r.r.r.o # % % % % % % % % % % % % % * * , = * = * * & & & % % % % % % +   r.r.r.r.r.r.r.r.r.r.r.r.r.r.r.r.",
"r.r.r.r.r.r.r.r.r.r.r.r.r.r.r.  O # % % % % % % % % % % % & & & & & & % % % % % % % % % # X r.r.r.r.r.r.r.r.r.r.r.r.r.r.r.r.r.r.",
"r.r.r.r.r.r.r.r.r.r.r.r.r.r.r.r.r.  o # % % % % % % % % % % % % % % % % % % % % % % @ X r.r.r.r.r.r.r.r.r.r.r.r.r.r.r.r.r.r.r.r.",
"r.r.r.r.r.r.r.r.r.r.r.r.r.r.r.r.r.r.r.r.. + # % % % % % % % % % % % % % % % % # O . r.r.r.r.r.r.r.r.r.r.r.r.r.r.r.r.r.r.r.r.r.r.",
"r.r.r.r.r.r.r.r.r.r.r.r.r.r.r.r.r.r.r.r.r.r.  . X + @ # # % # % # % # # + o . r.r.r.r.r.r.r.r.r.r.r.r.r.r.r.r.r.r.r.r.r.r.r.r.r.",
"r.r.r.r.r.r.r.r.r.r.r.r.r.r.r.r.r.r.r.r.r.r.r.r.r.r.r.r.  . . . .   r.r.r.r.r.r.r.r.r.r.r.r.r.r.r.r.r.r.r.r.r.r.r.r.r.r.r.r.r.r.",
"r.r.r.r.r.r.r.r.r.r.r.r.r.r.r.r.r.r.r.r.r.r.r.r.r.r.r.r.r.r.r.r.r.r.r.r.r.r.r.r.r.r.r.r.r.r.r.r.r.r.r.r.r.r.r.r.r.r.r.r.r.r.r.r.",
"r.r.r.r.r.r.r.r.r.r.r.r.r.r.r.r.r.r.r.r.r.r.r.r.r.r.r.r.r.r.r.r.r.r.r.r.r.r.r.r.r.r.r.r.r.r.r.r.r.r.r.r.r.r.r.r.r.r.r.r.r.r.r.r.",
"r.r.r.r.r.r.r.r.r.r.r.r.r.r.r.r.r.r.r.r.r.r.r.r.r.r.r.r.r.r.r.r.r.r.r.r.r.r.r.r.r.r.r.r.r.r.r.r.r.r.r.r.r.r.r.r.r.r.r.r.r.r.r.r.",
"r.r.r.r.r.r.r.r.r.r.r.r.r.r.r.r.r.r.r.r.r.r.r.r.r.r.r.r.r.r.r.r.r.r.r.r.r.r.r.r.r.r.r.r.r.r.r.r.r.r.r.r.r.r.r.r.r.r.r.r.r.r.r.r.",
"r.r.r.r.r.r.r.r.r.r.r.r.r.r.r.r.r.r.r.r.r.r.r.r.r.r.r.r.r.r.r.r.r.r.r.r.r.r.r.r.r.r.r.r.r.r.r.r.r.r.r.r.r.r.r.r.r.r.r.r.r.r.r.r.",
"r.r.r.r.r.r.r.r.r.r.r.r.r.r.r.r.r.r.r.r.r.r.r.r.r.r.r.r.r.r.r.r.r.r.r.r.r.r.r.r.r.r.r.r.r.r.r.r.r.r.r.r.r.r.r.r.r.r.r.r.r.r.r.r."
};
