/* XPM */
static char *result[] = {
/* columns rows colors chars-per-pixel */
"64 51 92 1 ",
"  c #060504",
". c #080605",
"X c #090807",
"o c #0E0B0A",
"O c #100D0C",
"+ c #15110F",
"@ c #161210",
"# c #1B1613",
"$ c #1E1916",
"% c #231C19",
"& c #27201C",
"* c #2B241F",
"= c #2E2621",
"- c #342B26",
"; c #372E28",
": c #382F29",
"> c #3C322C",
", c #41362F",
"< c #423730",
"1 c #443932",
"2 c #4A3E35",
"3 c #4D4037",
"4 c #4E4138",
"5 c #53463B",
"6 c #56483E",
"7 c #5A4B3F",
"8 c #5C4D41",
"9 c #5F5249",
"0 c #635346",
"q c #665649",
"w c #685749",
"e c #67594F",
"r c #6E5C4D",
"t c #705E4F",
"y c #6B5D52",
"u c #725F50",
"i c #6F6055",
"p c #746253",
"a c #796656",
"s c #75665B",
"d c #7B6758",
"f c #7D6A5A",
"g c #7D6D61",
"h c #7F7063",
"j c #836F5F",
"k c #857262",
"l c #8A7666",
"z c #867669",
"x c #8C7A6B",
"c c #917D6D",
"v c #948172",
"b c #9A8676",
"n c #988778",
"m c #9C8A7A",
"M c #A18E7F",
"N c #A59282",
"B c #AA9787",
"V c #AA9788",
"C c #AB9888",
"Z c #B19E8E",
"A c #B5A291",
"S c #BAA696",
"D c #BDA999",
"F c #C2AE9D",
"G c #C4B09F",
"H c #C6B2A1",
"J c #CAB5A4",
"K c #CEB9A7",
"L c #CFBAA9",
"P c #D2BDAC",
"I c #D5C0AE",
"U c #D7C1B0",
"Y c #DAC4B3",
"T c #DDC9B9",
"R c #E3CDBB",
"E c #E7D1BF",
"W c #E6D3C4",
"Q c #EDD6C5",
"! c #EFD8C6",
"~ c #EAD7C9",
"^ c #EED9C8",
"/ c #F1DCCC",
"( c #F2DFD1",
") c #F3E2D4",
"_ c #F5E6DA",
"` c #F7E9DE",
"' c #F8E9DF",
"] c #F7EAE0",
"[ c #F9EDE5",
"{ c #FAEFE8",
"} c #FAF0E9",
"| c None",
/* pixels */
"|||||||||||||||||||||||||||||1111>>11|||||||||||||||||||||||||||",
"||||||||||||||||||||||||||<<>>>1122>>1<1||||||||||||||||||||||||",
"|||||||||||||||||||||||<<><18qshzzzgy82<>11|||||||||||||||||||||",
"|||||||||||||||||||||<<<18ixmBCZSDFFDZng81>>1|||||||||||||||||||",
"|||||||||||||||||||<1>20zNVZSJURRQQQ~WRYSx92<<<|||||||||||||||||",
"||||||||||||||||||<<19xMVZJYQ^^/!!~(_]]]_QHce2,,<|||||||||||||||",
"||||||||||||||||11>8hNCSKR~/)]]]/)[{{{{{{])TZcy4<<<|||||||||||||",
"|||||||||||||||<>1ymCAPW(_][{{{{__{{{{{[[]{[TZBvs2>1<|||||||||||",
"||||||||||||||<,3fBALW_[{{{{{[['/~/)/(///!))QFCCNf82<<<|||||||||",
"|||||||||||||<<5xZHW`}{{{{{[['(!!!!!QQ!!!QQQQGCCMkju61<<||||||||",
"||||||||||||1>8vDT_[}}{}['_)/!!!QQ!!Q!Q!QQQ!RZBCNxjju71<<|||||||",
"|||||||||||<>8nH^'{{}[`)/!!E!!!!Q!QQQ!QQQQQRSCCBCcjjtr2<<|||||||",
"||||||||||>>9nL)[{{{'(!!!!!!E!!E!QQQQQQERYFZCCCCCckjpr5<<|||||||",
"|||||||||1>8nL)}{{')!!!!!!!ERYPGFFFFGFFSZZBCCCCCCcjjpw6<<|||||||",
"|||||||||12zH({}{_/E!!!E!EYGACZMBBCNCCCNCCCCCCCCNlkjpr91<|||||||",
"||||||||<<iA~{{{)!!!!!!EIFCBCCCCCCCCCCCCCCCCCCCCbjjjuy8<<|||||||",
"||||||||,4NT]{])!!!!!RPSCMZCCCCCCCCCCCCCCCCCCCCNljjjtr5,,|||||||",
"|||||||<<yJ({[(Q!!QRJACVCCCCCCCCCCCCCCCCCCCCCCNcjjjptw2,<|||||||",
"|||||||<<zR/)/!!!RHACVCCCCCCCCCCCCCCCCCCCCCCCNcjjjjut71,||||||||",
"|||||||<<lR!!!!!PACCCVCCCCCZCCCCBCCCCCCCCCCNbljjjjjtw71,||||||||",
"|||||||<<yF!!!EKZBCCCVCCZCCZCBBCCCCMbvvcvvcljjjjjjjr04,1||||||||",
"|||||||<<1kHRUFZBCCCCCCNMMMMMBBBNMvxkjjjjjjjjjjjjjar02,1||||||||",
"|||||||<,5fbCCCCCCCCCMvlkkkkxccclljjjjjjkjjjjjjjjjur021,||||||||",
"|||||||<,qjlNCCCCBCCvkjjjjjjjjjjjjjjjjjjjjjjjjjjjjtr851,||||||||",
"|||||||<1ukjcNCCCCNcjjjjkjjjjjjjjjjjajjjjjjjjjjjftrw771,||||||||",
"||||||<<2pjjjcMMMvxjjjjjjjjjjjjjjjutrrrtafjjjjaptrr0771,:|||||||",
"||||||<<5pjjjjkkkjjjjjjjjjjjjjjjattrrrrrrttttrrrrrr0772,,|||||||",
"||||||<<5ugjjjjjjjjjjjjdpaajdautrrrrrrrrrrttrrrrtrr88771,*||||||",
"||||||<<6wpjjjjjjjjjjjptttrtrrrrrrrrrrrrtrrrrtrrrw887882,:||||||",
"|||||=<17wtpjjjjjjjjjprrrtrrw00w000wrrtrrrrrrrrt07878772<>||||||",
"|||||$<160trruputtttutrrrw0877787878wwwwrtrrrrrw0787762<<:||||||",
"|||||$>168wrrrtrttttttrw777777777788888880rr0887755211<,>%||||||",
"|||||o>,378qrrrtrrrrrr0876422112234747555565432111<<,>>=@|||||||",
"||||||=,157800rrrrrrw8752<<<<,<,<<,,1,,,1,,<<,<,,>:=%@X|||||||||",
"||||||o>,13677880ww87741,>:=%%&=-::>>:,>>>>::-*%@O |||||||||||||",
"|||||||O;,<13577778752<,;# |||||||.oOoOOoOX.||||||||||||||||||||",
"||||||||X*>1<12565521<,*.|||||||||||||||||||||||||||||||||||||||",
"||||||||||+->1,<<<<<,:#|||||||||||||||||||||||||||||||||||||||||",
"||||||||||||O%->>>>-%X||||||||||||||||||||||||||||||||||||||||||",
"|||||||||||||||.XOX|||||||||||||||||||||||||||||||||||||||||||||",
"||||||||||||||||||||||||||||||||||||||||||||||||||||||||||||||||",
"||||||||||||||||||||||||||||||||||||||||||||||||||||||||||||||||",
"||||||||||||||||||||||||||||||||||||||||||||||||||||||||||||||||",
"||||||||||||||||||||||||||||||||||||||||||||||||||||||||||||||||",
"||||||||||||||||||||||||||||||||||||||||||||||||||||||||||||||||",
"||||||||||||||||||||||||||||||||||||||||||||||||||||||||||||||||",
"||||||||||||||||||||||||||||||||||||||||||||||||||||||||||||||||",
"||||||||||||||||||||||||||||||||||||||||||||||||||||||||||||||||",
"||||||||||||||||||||||||||||||||||||||||||||||||||||||||||||||||",
"||||||||||||||||||||||||||||||||||||||||||||||||||||||||||||||||",
"||||||||||||||||||||||||||||||||||||||||||||||||||||||||||||||||"
};
