/* XPM */
static char *result[] = {
/* columns rows colors chars-per-pixel */
"64 63 142 2 ",
"   c #0F0A05",
".  c #110B06",
"X  c #26180E",
"o  c #2F1E11",
"O  c #342114",
"+  c #392416",
"@  c #452D1D",
"#  c #482E1D",
"$  c #4B311F",
"%  c #51351F",
"&  c #4C3221",
"*  c #533623",
"=  c #563824",
"-  c #5C3C26",
";  c #603F27",
":  c #623F28",
">  c #5F4026",
",  c #5F4129",
"<  c #624127",
"1  c #644229",
"2  c #69442A",
"3  c #6E4A2B",
"4  c #724C2C",
"5  c #784F2F",
"6  c #77502F",
"7  c #79502F",
"8  c #6F4D30",
"9  c #764D30",
"0  c #784F30",
"q  c #7C5332",
"w  c #7D5B3F",
"e  c #7C5C42",
"r  c #825634",
"t  c #855934",
"y  c #8A5C36",
"u  c #845738",
"i  c #875938",
"p  c #8C5C39",
"a  c #905F36",
"s  c #905F3A",
"d  c #8E613A",
"f  c #906037",
"g  c #93643C",
"h  c #9A663D",
"j  c #95683E",
"k  c #9A6A3D",
"l  c #A16C3F",
"z  c #8F6641",
"x  c #8D6849",
"c  c #966341",
"v  c #9A6642",
"b  c #956941",
"n  c #9C6C43",
"m  c #906A49",
"M  c #9A6F4A",
"N  c #9E7046",
"B  c #9E7249",
"V  c #977152",
"C  c #9C7453",
"Z  c #9F7856",
"A  c #A26D41",
"S  c #A86F46",
"D  c #A57141",
"F  c #AB7344",
"G  c #AE7945",
"H  c #A07249",
"J  c #AE7448",
"K  c #A9794D",
"L  c #B17645",
"P  c #B47A46",
"I  c #B87B46",
"U  c #B27649",
"Y  c #B67A49",
"T  c #BB7D4B",
"R  c #A07752",
"E  c #A97B50",
"W  c #B4814F",
"Q  c #BD814B",
"!  c #B58353",
"~  c #B48559",
"^  c #BD8A5A",
"/  c #C4834D",
"(  c #C9874E",
")  c #C4884E",
"_  c #CB894F",
"`  c #D08B4F",
"'  c #C48650",
"]  c #C98750",
"[  c #C58B53",
"{  c #CC8A51",
"}  c #C58E5A",
"|  c #D38E52",
" . c #CE9255",
".. c #CA925C",
"X. c #D69153",
"o. c #DB9354",
"O. c #DE9857",
"+. c #D4965B",
"@. c #D89658",
"#. c #D69A5E",
"$. c #DD9C5A",
"%. c #E09A57",
"&. c #E19D59",
"*. c #E5A25D",
"=. c #E8A55F",
"-. c #C79361",
";. c #CE9762",
":. c #CF9864",
">. c #C3966C",
",. c #CC9A6A",
"<. c #D19A65",
"1. c #DBA065",
"2. c #D4A273",
"3. c #E5A463",
"4. c #E9A661",
"5. c #ECAA65",
"6. c #E4A76A",
"7. c #E6A96D",
"8. c #EDAC69",
"9. c #F0AF6C",
"0. c #F3B16E",
"q. c #EBAE73",
"w. c #EDB175",
"e. c #F5B473",
"r. c #F8B775",
"t. c #F9B877",
"y. c #F3B579",
"u. c #F6B879",
"i. c #FBBB7B",
"p. c #E0B187",
"a. c #E3B489",
"s. c #F5BB84",
"d. c #FEBF81",
"f. c #EDBD91",
"g. c #FFC185",
"h. c #FEC48B",
"j. c #F4C294",
"k. c #FFC791",
"l. c #FFC995",
"z. c #FFCC9D",
"x. c #FFCDA0",
"c. c None",
/* pixels */
"c.c.8 q q w q q q 8 , e e e e e e e e e e e e e e e e e w w , 2 3 3 4 3 3 3 3 3 3 3 3 3 3 3 3 3 3 4 3 3 3 3 3 3 3 4 > c.c.c.c.c.",
"c., E d b j n b b d x a.a.j.j.j.j.j.j.j.f.j.j.j.j.j.j.j.j.f.V 6 t d y y y y t d d d t d d t t d y t y y y t y y t g k c.c.c.c.c.",
"c.1 N t F F F G G D M ,.>.h.h.h.h.g.g.g.,.s.g.g.g.g.g.h.2.>.Z f k n n k l k l l D D l l k l l l l l l l l l l l k q k c.c.c.c.c.",
"c.1 n 4 p d g g j y x u.8.0.8.t.0.8.0.5.8.i.i.e.e.r.d.i.w.g.Z d D D D F F N D l l l G G l W l Q W l l W W P G l l y k c.c.c.c.c.",
"c.1 n j @.@.$.$.$.Q V y.*.*.*.0.8.*.4.5.5.t.u.*.=.9.u.r.0.g.Z Q 5.*.*.*.=.*.*.*.*.=.0.0.8.5.5.4.*.*.=.5.8.5.8.=.$.j k c.c.c.c.c.",
"c.1 N K 0.5.*.9.9. .C y.5.8.*.0.8.*.4.8.5.8.4.*.*.=.e.9.4.e.B Q r.t.u.r.r.9.r.0.9.t.t.t.t.i.8.t.0.r.r.t.i.i.i.8.$.j k c.c.c.c.c.",
"c.1 B W d.d.u.e.8.[ V w.0.t.5.*.*.3.9.9.4.*.=.*.=.*.3.8.5.5.B [ d.d.g.g.g.g.d.g.d.g.g.d.g.h.h.h.h.h.h.k.k.k.g.i.3.j k c.c.c.c.c.",
"c.1 N ! l.l.h.i.8. .B 8.t.i.u.0.4.e.h.g.i.e.8.u.i.5.9.e.8.8.B [ d.h.l.l.k.h.h.l.l.g.h.k.z.z.l.l.k.h.z.z.z.l.l.h.5.g k c.c.c.c.c.",
"c.1 N ~ z.z.k.g.r.X.b 7.g.z.g.d.d.k.l.z.j.k.k.z.l.h.h.t.8.8.H [ g.z.z.z.z.z.z.z.z.z.z.z.x.x.z.x.x.z.x.z.z.z.z.l.q.g k c.c.c.c.c.",
"c., k ~ x.z.z.h.g.+.j *.i.k.h.u.u.e.h.h.u.e.e.u.s.u.0.8.=.4.H ..g.z.z.z.z.z.z.z.z.x.z.z.x.z.z.x.z.z.x.x.z.z.z.l.0.g k c.c.c.c.c.",
"c.1 k ~ x.x.z.z.z.<.g *.0.d.9.*.*.8.e.e.8.e.5.8.0.4.8.0.=.=.n ..d.h.h.g.k.h.h.g.h.h.h.h.h.k.k.h.l.h.h.z.x.z.z.l.q.j j c.c.c.c.c.",
"c.> k ! z.x.z.z.l.#.f *.=.5.*.*.*.=.4.3.*.5.5.4.*.4.*.=.*.*.j [ i.d.d.d.t.i.u.i.i.i.i.i.t.t.d.i.d.d.d.g.h.l.l.g.5.d j c.c.c.c.c.",
"c.1 N ! g.k.l.l.k.#.d ) G &.&.*.$.$.&.' Y &.&.$.$.&.$.$. .#.g ' t.d.i.t.t.e.e.9.5.9.9.9.0.e.e.t.r.e.i.0.0.d.d.d.8.j k c.c.c.c.c.",
"c.1 N ! i.i.i.g.i.+.y [ Q +.X.+.| +.+.] [ X.+. .+.X.+.X.Y  .f ) =.0.=.*.*.9.0.8.8.5.5.4.5.4.5.8.5.9.0.4.0.0.r.u.3.j k c.c.c.c.c.",
"c.> N k <.+. . .[ Q 8 b b b d b b g z b c b z b b b z j b d 3 W *.$.$.$.$.*.$.*.&.$.$.$.$.1.*.1.6.5.5.1.$.$.3.*. .g k c.c.c.c.c.",
"c.> G d d g d f f r z w.7.7.6.6.7.q.q.w.q.7.q.q.q.q.q.q.w.w.d d j f g j j j j j j j j j j j j j j j j j j j d j j d k c.c.c.c.c.",
"c.c.w j j j b j j y m i.4.*.*.%.*.=.=.=.=.=.=.=.*.=.=.=.=.r.b d n j j n n N n n n n n n k j h h j N N N B B B N N k q c.c.c.c.c.",
"c.c.-.y.w.w.7.6.8.<.N =.*.$.O.O.%.o.%.%.o.%.O.o.o.o.O.%.*.8.B ^ ;.<.:.;.;.....+.:.;.;.;.:.;.<.<.:.<.:.:.<.#.<.<.:.<.E c.c.c.c.c.",
"c.c.1.0.=.*.*.*.*.1.g *.O.O.o.o.o.X.o.o.o.o.o.o.o.o.o.O.O.*.k 6.t.0.4.4.4.*.=.=.5.5.4.4.5.5.5.5.5.5.5.=.=.5.=.5.0.r.} c.c.c.c.c.",
"c.c...=.*.%.*.$.*.$.k *.o.o.X.X.X.X.o.o.o.o.o.X.o.o.o.o.O.*.j 6.4.*.&.*.%.%.&.%.&.$.*.O.o.%.&.&.*.*.&.$.%.%.%.%.$.%.Q c.c.c.c.c.",
"c.c.[ *.$.%.%.%.*. .g O.o.o.%.o.o.| X.X.o.X.X.| o.o.o.o.o.$.j @.*.O.o.O.%.o.o.o.o.o.%.o.%.o.%.%.*.&.o.%.O.o.o.o.o.%.W c.c.c.c.c.",
"c.c.[ *.%.o.o.o.$.` g O.o.o.o.o.o.| o.o.o.o.o.X.o.o.o.o.o.O.j | %.o.o.o.o.o.o.o.X.o.o.O.o.%.o.o.&.O.o.o.o.| ` X.o.%.P c.c.c.c.c.",
"c.c.) %.O.o.o.X.%.` h o.X.X.o.%.o.X.X.X.X.X.X.X.o.o.o.O.o.O.k | o.o.o.%.o.o.o.o.X.o.o.o.o.o.%.o.o.o.o.o.o.o.o.o.o.%.P c.c.c.c.c.",
"c.c.Q %.X.o.o.o.%._ f o.o.%.o.l t ` o.o.o.o.o.| k t _ o.o.o.f _ o.o.o.o.o.o.X.%.o.%.o.X.X.X.X.X. .X.o.o.o.o.o.X.o.o.P c.c.c.c.c.",
"c.c.Q O.X.o.o.X.%._ f %.X.%.l % @ y | o.O.o.O.l % @ y o.o.o.f ( o.o.o.X.o.| | X.X.o.o.o.o.o.o.o.X.o.o.o.o.o.o.| ` %.I c.c.c.c.c.",
"c.c.Q O.X.%.o.| %.( a o.X./ 7 = # % L o.o.o._ 6 % $ * P o.o.a ` o.X.X.X.o.o.o.o.o.o.o.o.o.X.X.o.X.X.X.o.o.o.o.| X.%.Q c.c.c.c.c.",
"c.c.Q o.o.%.o.X.%._ f o.| l r % & # y X.X.o.l r * * @ y o.o.a ( o.o.%.o.o.o.X.| o.o.o.o.X.X.X.o.o.X.o.o.%.o.%.o.o.%.l c.c.c.c.c.",
"c.c.Q O.X.o.o.X.o.Q a o.| a h % * & 3 | o.X.f h & = & 2 ` o.y ( %.o.o.o.o.o.o.o.o.o.o.o.X.X.X.X.o.X.X.o.o.o.o.o.o.o.l c.c.c.c.c.",
"c.c.I %.X.o.o.o.o.S y o.( y S % = & 1 { X./ t l $ * * > { o.y / o.o.o.o.` P k h D Q o.o.o.o.X.X.( l h h l Q X.o.o.o.F c.c.c.c.c.",
"c.c.T o.` X.X.o.%.l y %./ t l % - = : { o.( t l & * & - / o.y I o.o.o.P 7 % @ # $ * k o.o.o.o.P r % # # & = l | o.%.l c.c.c.c.c.",
"c.c.I o.X.X.o.o.%.F a o./ r l % 1 - - / o./ r D * > - - / o.p / o.o.{ t l = % * * # - _ X.o._ t h * * * = & : / o.o.l c.c.c.c.c.",
"c.c.I o.X.X.o.o.o.l y o./ r l % 1 - - ' o.( t l * , > > / o.y / X.X./ y G * * * = * = / X.X.L a S & * = * % : / o.o.S c.c.c.c.c.",
"c.c.I o.o.o.o.o.o.L y o.( y l % ; - - ( o.( y l % : ; ; I o.y T o.o.( y P % * - ; = = T X.X.L a S % : : - * : ( X.o.l c.c.c.c.c.",
"c.c.L o.| | | o.o.l y X.( y l % : - - / o./ y l % ; ; ; T o.y I o.o.( f L = - < : ; - / | o.L a F = ; : : = ; ( o.o.A c.c.c.c.c.",
"c.c.I o.o.| o.o.o.I y X.( y l # % % ; / o.( y l % * % ; T o.y I o.o./ f P & & * % % - / o.o.F a F # * = % % ; / o.o.A c.c.c.c.c.",
"c.c.I o.| | | o.o.I y X.` 9 9 r y r : T %.( 2 r u u r : T o.t I %.o./ 7 t q t t r r 3 ( o.o.L 5 r r r r r r 2 / X.o.A c.c.c.c.c.",
"c.c.T %.| | | o.o.L r o.` 9 3 r r r 3 / o.` 5 4 r y r 5 ( o.y I o.o.` 3 2 t y p a a 5 ( o.X.Q ; 2 t r t r r r ` o.o.l c.c.c.c.c.",
"c.c.I %.o.o.o.o.o.L y | | ( / T I L T X.o.o.` ( / T / ( X.o.y I o.o.o.( T T T I Q Q / ` o.o.o./ I I I L I I / | o.%.l c.c.c.c.c.",
"c.c.I %.| | | | o.F y | o.o.o.o.o.%.%.o.o.X.X.o.o.o.o.o.o.o.y L o.o.o.o.%.o.o.%.o.o.o.o.o.o.%.o.o.o.o.o.X.o.%.o.X.o.l c.c.c.c.c.",
"c.c.I o.o.| o.o.o.S y o.| o.o.X.o.o.o.o.o.o.o.X.X.X.X.o.o.o.y I o.o.o.o.o.X.o.X.X.X.o.| o.o.X.| X.X.o.o.| o.o.o.X.o.l c.c.c.c.c.",
"c.c.I o.X.o.o.o.o.l y o.X.X.| | o.o.%.| X.%.o.o.o.o.o.X.o.o.t I o.o.o.o.o.o.o.o.o.o.o.X.o.X.o.X.X.o.o.X.X.o.o.X.X.o.g c.c.c.c.c.",
"c.c.I %.X.| o.| o.F y o.o.X.o.o.%.%.I 3 1 P &.o.o.X.| X.o.o.a T %.o.| o.o.o.X.o.o.o.X.X.X.o.o.` o.o.X.X.o.o.o.o.X.| h c.c.c.c.c.",
"c.c.I %.o.o.o.o.o.L y o.o.X.o.o.%./ 5 = @ - / $.o.o.o.o.X.o.y T %.o.o.o.o.o.X.o.o.o.o.X.X.X.X.| X.| X.X.X.X.X.o.o.| s c.c.c.c.c.",
"c.c.I o.o.o.| o.o.F y o.o.` X.%.%.a 3 # & $ 2 X.%.o.X.o.X.X.y T o.o.` ` o.o.X.o.o.X.X.| X.o.o.o.o.o.o.X.X.X.X.| ` _ s c.c.c.c.c.",
"c.c.L | | o.| o.o.L y o.o.o.o.&.D y - & * * & d %.X.| o.X.| y T | X.| ` X.o.| X.o.o.o.X.%.%.o.o.o.o.` | | { { { | / p c.c.c.c.c.",
"c.c.S | ` | | | X.F y %.o.o.o.{ d b & & = * & > | X.| o.` ` t Y X.X.| ` ` ` | | X.X.o.O.L t ) O.o.X.` | | | | | | _ i c.c.c.c.c.",
"c.c.S | | ` | | X.F y o.o.o.o.A k g & * * * * & S X.` | ` / r Y | ` | | ` | ` | | | %.A 2 # ; F o.X.` | { ] ] ` { ' p c.c.c.c.c.",
"c.c.S | | ` { ` | S t o.| X.o.f F t & = = * * & A o.` ` ] T r Y ` ` ` | ` | | | | o.A p 1 & & & r ` ` ] ] ] ` | { / s c.c.c.c.c.",
"c.c.F | ` ` | ` { S u | | | | s l y % - - - = & h | ] ] / Y r Y | | ] { | ] ] { | T g A & * * & # A { ] ] ` ` ] ' T s c.c.c.c.c.",
"c.c.S { { ` { ] ] S r ] { { | s S t * ; : : - $ h { ] ] / T 9 J | ] ] ] ] ] ] ] { l l g & * = * # v ] ] ] ] ] ] ' U s c.c.c.c.c.",
"c.c.h _ ] { ] { ] S r / ] ] ] p l t * 1 1 1 - & h { ] ] / T 0 J ] ] ] ] ] ] ] ] { l A u & - = = % v ` ] ] ] ] ] / U p c.c.c.c.c.",
"c.c.h / ] ] ] ] ] A 0 T ] ] ( i F u * 1 ; 1 1 & h ] ] ] / J r S / ' ] ] ] ] ] ] ] l A q * - - = & s { ] ] ] ] ] T U u c.c.c.c.c.",
"c.c.c T ] ] ] ] ] s 0 Y / ] ] p F t * ; < 1 1 $ g ] ] ] T U 9 S Y / ] ] ] ] ] ] ] l A q * 1 1 - * h { ] ] ] ] ] T U u c.c.c.c.c.",
"c.c.s Y ' ] ] ] T c r Y T ' T i F t * ; 1 1 < * p Y / ' Y J 9 S Y / / ] ] ] ] ] { A l r = < ; 1 * h ( / T T ] ] ' Y i c.c.c.c.c.",
"c.c.y J U T / ' T A r U Y Y Y i F y * 1 > 1 1 & p U Y T T J 9 A U U U / / / / ] _ l F q = < 1 1 * h T Q T Y / / T U i c.c.c.c.c.",
"c.c.p J U U Y Y Y v 0 U Y Y Y i G t * - , 1 < $ p U J J Y J 9 A S S J J T T T T / l l r = - - - * s Y U U U Y U U S p c.c.c.c.c.",
"c.@ u S S U J J U c 9 S J U S u S 0 $ = = = % $ u S A v M v 2 c A v S S S S S J U s D 5 * = = - * i S S S S S n S n u O c.c.c.c.",
"c.+ u M A A v A v p : A A v v q 9 u A F F F F t 9 c c A c c 2 s c c c A c c v v v u 4 d Y L L I s q v v n v v c v A u o c.c.c.c.",
"c.O : : : : 3 2 : : = : : : : - & 9 p s p p y 3 - : 3 : : : - : : 2 : 2 2 2 : : 2 - & t p t t t 8 - 2 2 2 : 2 2 : 2 - X c.c.c.c.",
"c.c.. . . . . . . . . . . . . . . . . . . . . . . . . . . . . . . . . . . . . . . . . . . .     . . . . . . . . . . . c.c.c.c.c.",
"c.c.c.c.c.c.c.c.c.c.c.c.c.c.c.c.c.c.c.c.c.c.c.c.c.c.c.c.c.c.c.c.c.c.c.c.c.c.c.c.c.c.c.c.c.c.c.c.c.c.c.c.c.c.c.c.c.c.c.c.c.c.c.c.",
"c.c.c.c.c.c.c.c.c.c.c.c.c.c.c.c.c.c.c.c.c.c.c.c.c.c.c.c.c.c.c.c.c.c.c.c.c.c.c.c.c.c.c.c.c.c.c.c.c.c.c.c.c.c.c.c.c.c.c.c.c.c.c.c.",
"c.c.c.c.c.c.c.c.c.c.c.c.c.c.c.c.c.c.c.c.c.c.c.c.c.c.c.c.c.c.c.c.c.c.c.c.c.c.c.c.c.c.c.c.c.c.c.c.c.c.c.c.c.c.c.c.c.c.c.c.c.c.c.c."
};
