/* XPM */
static char *result[] = {
/* columns rows colors chars-per-pixel */
"64 52 154 2 ",
"   c #060505",
".  c #090706",
"X  c #07080B",
"o  c #0E0D0C",
"O  c #110E0D",
"+  c #14110E",
"@  c #1A140E",
"#  c #140E13",
"$  c #161311",
"%  c #1B1512",
"&  c #1E1914",
"*  c #1C1918",
"=  c #241E0E",
"-  c #201713",
";  c #241B15",
":  c #291E16",
">  c #231D19",
",  c #2A1F18",
"<  c #2D2B07",
"1  c #25220B",
"2  c #282709",
"3  c #2F2C0B",
"4  c #332C07",
"5  c #3D3103",
"6  c #393903",
"7  c #3F3309",
"8  c #3E3C0B",
"9  c #262415",
"0  c #2B2717",
"q  c #25211D",
"w  c #2C221A",
"e  c #2D2919",
"r  c #362515",
"t  c #34251C",
"y  c #38261D",
"u  c #342B1E",
"i  c #3B2A1E",
"p  c #272322",
"a  c #2C2622",
"s  c #2E2821",
"d  c #2F2A28",
"f  c #332C25",
"g  c #3D2C21",
"h  c #373027",
"j  c #3D3425",
"k  c #36312A",
"l  c #3B342C",
"z  c #3B3531",
"x  c #3F3935",
"c  c #433606",
"v  c #4A3117",
"b  c #5E3C17",
"n  c #5D3C1A",
"m  c #603C17",
"M  c #422E22",
"N  c #453123",
"B  c #4A3425",
"V  c #4E3728",
"C  c #413828",
"Z  c #4E382B",
"A  c #503728",
"S  c #533B2B",
"D  c #593F2E",
"F  c #433C33",
"G  c #4B3C33",
"H  c #513E33",
"J  c #4D4407",
"K  c #48480D",
"L  c #575803",
"P  c #5E5D02",
"I  c #505109",
"U  c #615702",
"Y  c #675801",
"T  c #62401D",
"R  c #694219",
"E  c #626102",
"W  c #6A6503",
"Q  c #737800",
"!  c #787B04",
"~  c #4F442F",
"^  c #5B412F",
"/  c #474035",
"(  c #494136",
")  c #4E453A",
"_  c #5E4231",
"`  c #534831",
"'  c #544A3D",
"]  c #5A493E",
"[  c #614223",
"{  c #754D24",
"}  c #72502C",
"|  c #614533",
" . c #604738",
".. c #624B3B",
"X. c #4D4540",
"o. c #554B41",
"O. c #5B4E41",
"+. c #5A5142",
"@. c #5F534C",
"#. c #654F40",
"$. c #615546",
"%. c #685041",
"&. c #625847",
"*. c #645449",
"=. c #6B5648",
"-. c #655A4A",
";. c #6A5F4E",
":. c #6A5F51",
">. c #6B614E",
",. c #6D6251",
"<. c #706452",
"1. c #756956",
"2. c #786C57",
"3. c #7A675A",
"4. c #7B6E5A",
"5. c #7E715B",
"6. c #7E6F65",
"7. c #92591F",
"8. c #857402",
"9. c #815B35",
"0. c #87633C",
"q. c #A56520",
"w. c #B56E23",
"e. c #C87925",
"r. c #81745E",
"t. c #837660",
"y. c #857961",
"u. c #8B7D65",
"i. c #8C7E68",
"p. c #828602",
"a. c #8A8302",
"s. c #908D01",
"d. c #9B9F00",
"f. c #98A000",
"g. c #9FA900",
"h. c #A1A102",
"j. c #A1A900",
"k. c #B0AC01",
"l. c #B6B001",
"z. c #BCC000",
"x. c #C4CD00",
"c. c #CFD600",
"v. c #D6E300",
"b. c #DCE800",
"n. c #93846C",
"m. c #98886F",
"M. c #9C8C72",
"N. c #9F9074",
"B. c #A39277",
"V. c #A69579",
"C. c #A8977B",
"Z. c #AA997C",
"A. c #B19F81",
"S. c None",
/* pixels */
"S.S.S.S.S.S.S.S.S.S.S.S.S.S.S.S.S.S.S.S.S.S.S.S.S.S.S.S.S.S.S.S.S.S.S.S.S.S.S.S.S.S.S.S.S.S.S.S.S.S.S.S.S.S.S.S.S.S.S.S.S.S.S.S.",
"S.S.S.S.S.S.S.S.S.S.S.S.S.S.S.S.S.S.S.S.S.S.S.S.S.S.S.S.S.S.S.S.S.S.S.S.S.S.S.S.S.S.S.S.S.S.S.S.S.S.S.S.S.S.S.S.S.S.S.S.S.S.S.S.",
"S.S.S.S.S.S.S.S.S.S.S.S.S.S.S.S.S.S.S.S.S.S.S.S.S.S.S.S.S.S.S.S.S.S.S.S.S.S.S.S.S.S.S.S.S.S.S.S.S.S.S.S.S.S.S.S.S.S.S.S.S.S.S.S.",
"S.S.S.S.S.S.S.S.S.S.S.S.S.S.S.S.S.S.S.S.S.S.S.S.O o o o o o + O S.S.S.S.S.S.S.S.S.S.S.S.S.S.S.S.S.S.S.S.S.S.S.S.S.S.S.S.S.S.S.S.",
"S.S.S.S.S.S.S.S.S.S.S.S.S.S.S.S.S.S.S.S.S.S.S.S.+ & % + O O O + & % % O S.S.S.S.S.S.S.S.S.S.S.S.S.S.S.S.S.S.S.S.S.S.S.S.S.S.S.S.",
"S.S.S.S.S.S.S.S.S.S.S.S.S.S.S.S.S.S.S.S.S.S.S.+ & u t : ; % O & : , ; - % O O S.S.S.S.S.S.S.S.S.S.S.S.S.S.S.S.S.S.S.S.S.S.S.S.S.",
"S.S.S.S.S.S.S.S.S.S.S.S.S.S.S.S.S.S.S.S.S.S.S.+ ; M M B V N w % % w s M g w % O O S.S.S.S.S.S.S.S.S.S.S.S.S.S.S.S.S.S.S.S.S.S.S.",
"S.S.S.S.S.S.S.S.S.S.S.S.S.S.S.S.S.S.S.S.S.S.S.@ : M M A D _ A , + $ % V D S B t % O S.S.S.S.S.S.S.S.S.S.S.S.S.S.S.S.S.S.S.S.S.S.",
"S.S.S.S.S.S.S.S.S.S.S.S.S.S.S.S.S.S.S.S.S.S.S.+ , M N S _ _ _ B u ; % N _ | _ S g ; o S.S.S.S.S.S.S.S.S.S.S.S.S.S.S.S.S.S.S.S.S.",
"S.S.S.S.S.S.S.S.S.S.S.S.S.S.S.S.S.S.S.S.S.S.S.@ w N A H _ _ _ _ S g $ t N S _ | D g > o S.S.S.S.S.S.S.S.S.S.S.S.S.S.S.S.S.S.S.S.",
"S.S.S.S.S.S.S.S.S.S.S.S.S.S.S.S.S.S.S.S.S.S.o % t B D _ _ _ _ | _ M $ O & M _ _ | _ j % S.S.S.S.S.S.S.S.S.S.S.S.S.S.S.S.S.S.S.S.",
"S.S.S.S.S.S.S.S.S.S.S.S.S.S.S.S.S.S.S.S.S.S.O & i S _ _ _ _ _ _ H M : # w V _ _ _ | H a O S.S.S.S.S.S.S.S.S.S.S.S.S.S.S.S.S.S.S.",
"S.S.S.S.S.S.S.S.S.S.S.S.S.S.S.S.S.S.S.S.S.O @ y B D | ^ _ D S A B B M & t S | _ _ |  .G % S.S.S.S.S.S.S.S.S.S.S.S.S.S.S.S.S.S.S.",
"S.S.S.S.S.S.S.S.S.S.S.S.S.S.S.S.S.S.S.S.O - t M S | _ D A B M N B B i % ; M D | | D  .] p $ S.S.S.S.S.S.S.S.S.S.S.S.S.S.S.S.S.S.",
"S.S.S.S.S.S.S.S.S.S.S.S.S.S.S.S.S.S.S.O & t M A D [ D A M r w t y i : + $ : M S D D | ..z % S.S.S.S.S.S.S.S.S.S.S.S.S.S.S.S.S.S.",
"S.S.S.S.S.S.S.S.S.S.S.S.S.S.S.S.S.S.o + t M N A D D A M w % % % ; , : & + + & , B D | ..) % S.S.S.S.S.S.S.S.S.S.S.S.S.S.S.S.S.S.",
"S.S.S.S.S.S.S.S.S.S.S.S.S.S.S.S.S.S.+ : M N N A ^ B M ; % l +.) s & @ & O + q q % M _  .o.> S.S.S.S.S.S.S.S.S.S.S.S.S.S.S.S.S.S.",
"S.S.S.S.S.S.S.S.S.S.S.S.S.S.S.S.S.O - y N N N B A M : ; l &.1.1.@.) e % $ h +.+.p , B | O.> S.S.S.S.S.S.S.S.S.S.S.S.S.S.S.S.S.S.",
"S.S.S.S.S.S.S.S.S.S.S.S.S.S.S.S.S.+ w M M i M N N t & f &.r.y.i.n.<.' l x +.5.5.' a w D #.a % S.S.S.S.S.S.S.S.S.S.S.S.S.S.S.S.S.",
"S.S.S.S.S.S.S.S.S.S.S.S.S.S.S.S.o & y N r w i N i & w +.5.n.M.M.n.n.r.2.2.5.r.r.u.G , M ..z * S.S.S.S.S.S.S.S.S.S.S.S.S.S.S.S.S.",
"S.S.S.S.S.S.S.S.S.S.S.S.S.S.S.S.o : i M t : i M w @ ' 1.n.N.V.Z.N.N.n.5.5.5.y.n.V.1.k :  .G > S.S.S.S.S.S.S.S.S.S.S.S.S.S.S.S.S.",
"S.S.S.S.S.S.S.S.S.S.S.S.S.S.S.S.O , t ; t i M t & l >.y.m.Z.Z.Z.C.V.V.N.M.m.N.B.Z.n.) & H o.d . S.S.S.S.S.S.S.S.S.S.S.S.S.S.S.S.",
"S.S.S.S.S.S.S.S.S.S.S.S.S.S.S.S.O t r & w M i : > +.5.n.m.B.N.V.Z.Z.Z.V.B.V.Z.Z.A.Z.>.> M *.x $ S.S.S.S.S.S.S.S.S.S.S.S.S.S.S.S.",
"S.S.S.S.S.S.S.S.S.S.S.S.S.S.S.S.O t i , , y , : k 1.5.1.;.+.-.,.5.n.V.C.Z.Z.B.n.i.n.,.s g =.X.p S.S.S.S.S.S.S.S.S.S.S.S.S.S.S.S.",
"S.S.S.S.S.S.S.S.S.S.S.S.S.S.S.S.O t M M u t % p ' r.;.l & = = 9 f +.n.V.A.m.1.' ( ' ' d 0 %.*.z   S.S.S.S.S.S.S.S.S.S.S.S.S.S.S.",
"S.S.S.S.S.S.S.S.S.S.S.S.S.S.S.S.O t M M v i - f ,.2.l = c U W U 6 0 >.N.V.,.q 1 3 1 & & w  .*.x . S.S.S.S.S.S.S.S.S.S.S.S.S.S.S.",
"S.S.S.S.S.S.S.S.S.S.S.S.S.S.S.S.O : M M N t ; F 2.>.p 4 Y s.f.j.Q 8 / M.M.+.1 P p.L 1 o w ..*.z   S.S.S.S.S.S.S.S.S.S.S.S.S.S.S.",
"S.S.S.S.S.S.S.S.S.S.S.S.S.S.S.S.o ; M N N w ; F r.,., c 8.k.x.v.g.I k M.m.) < s.x.p.2 X i 3.*.p S.S.S.S.S.S.S.S.S.S.S.S.S.S.S.S.",
"S.S.S.S.S.S.S.S.S.S.S.S.S.S.S.S.o - y N N y ; k &.&.q 7 8.l.c.b.f.K G M.N.o.3 p.l.! < $ G 6.X.$ S.S.S.S.S.S.S.S.S.S.S.S.S.S.S.S.",
"S.S.S.S.S.S.S.S.S.S.S.S.S.S.S.S.S.@ w M M i ; % a F q : J a.h.h.P e ,.B.C.,.e J W 8 @ w %.@.d   S.S.S.S.S.S.S.S.S.S.S.S.S.S.S.S.",
"S.S.S.S.S.S.S.S.S.S.S.S.S.S.S.S.S.+ - : ; t - O O $ $ O @ 1 3 2 e o.m.V.A.n.+.& + @ , S G a $ S.S.S.S.S.S.S.S.S.S.S.S.S.S.S.S.S.",
"S.S.S.S.S.S.S.S.S.S.S.S.S.S.S.S.S.O + + + @ + O S.S.S.o o % l ) ,.n.Z.Z.A.B.,.* o # ; s : $ S.S.S.S.S.S.S.S.S.S.S.S.S.S.S.S.S.S.",
"S.S.S.S.S.S.S.S.S.S.S.S.S.S.S.S.S.S.O o S.o O S.S.S.S.. X $ l *.u.V.Z.B.m.1./ $ O + % @ o S.S.S.S.S.S.S.S.S.S.S.S.S.S.S.S.S.S.S.",
"S.S.S.S.S.S.S.S.S.S.S.S.S.S.S.S.S.S.S.S.S.S.S.S.S.S.O @ & + & l @.4.5.1.+.d + o o S.S.o S.S.S.S.S.S.S.S.S.S.S.S.S.S.S.S.S.S.S.S.",
"S.S.S.S.S.S.S.S.S.S.S.S.S.S.S.S.S.S.S.S.S.S.S.S.O o : m b @ O O $ > q & @ @ + S.S.S.S.S.S.S.S.S.S.S.S.S.S.S.S.S.S.S.S.S.S.S.S.S.",
"S.S.S.S.S.S.S.S.S.S.S.S.S.S.S.S.S.S.S.S.S.S.S.S.O ; 7.e.7.@ - - & % ; & t t & o S.S.S.S.S.S.S.S.S.S.S.S.S.S.S.S.S.S.S.S.S.S.S.S.",
"S.S.S.S.S.S.S.S.S.S.S.S.S.S.S.S.S.S.S.S.S.S.S.. o = q.w.m % i B g u C u g t $ O $ + S.S.S.S.S.S.S.S.S.S.S.S.S.S.S.S.S.S.S.S.S.S.",
"S.S.S.S.S.S.S.S.S.S.S.S.S.S.S.S.S.S.S.S.S.S.O % - w R m r : B D B N ~ C t & - u t & O S.S.S.S.S.S.S.S.S.S.S.S.S.S.S.S.S.S.S.S.S.",
"S.S.S.S.S.S.S.S.S.S.S.S.S.S.S.S.S.S.S.S.S.o % t B y @ O & u i Z M w C j & O w S N : O O S.S.S.S.S.S.S.S.S.S.S.S.S.S.S.S.S.S.S.S.",
"S.S.S.S.S.S.S.S.S.S.S.S.S.S.S.S.S.S.S.S.S.o w B S B ; - : : % & & & q q & w g u & + + S.S.S.S.S.S.S.S.S.S.S.S.S.S.S.S.S.S.S.S.S.",
"S.S.S.S.S.S.S.S.S.S.S.S.S.S.S.S.S.S.S.S.S.o ; w : ; + % & & y : v n - ; & h ` 9 + S.S.S.S.S.S.S.S.S.S.S.S.S.S.S.S.S.S.S.S.S.S.S.",
"S.S.S.S.S.S.S.S.S.S.S.S.S.S.S.S.S.S.S.S.S.$ $ $ o O $ + - N 9.} { T % : $ w j & O S.S.S.S.S.S.S.S.S.S.S.S.S.S.S.S.S.S.S.S.S.S.S.",
"S.S.S.S.S.S.S.S.S.S.S.S.S.S.S.S.S.S.S.S.S.S.o S.S.O $ O : ^ 0.9.[ r + ; + $ ; & S.S.S.S.S.S.S.S.S.S.S.S.S.S.S.S.S.S.S.S.S.S.S.S.",
"S.S.S.S.S.S.S.S.S.S.S.S.S.S.S.S.S.S.S.S.S.S.S.S.S.O % % > f u e & X + $ $ S.S.S.S.S.S.S.S.S.S.S.S.S.S.S.S.S.S.S.S.S.S.S.S.S.S.S.",
"S.S.S.S.S.S.S.S.S.S.S.S.S.S.S.S.S.S.S.S.S.S.S.S.+ & % + O + o O S.S.O O O S.S.S.S.S.S.S.S.S.S.S.S.S.S.S.S.S.S.S.S.S.S.S.S.S.S.S.",
"S.S.S.S.S.S.S.S.S.S.S.S.S.S.S.S.S.S.S.S.S.S.S.O + & + O O o O S.S.S.O O S.S.S.S.S.S.S.S.S.S.S.S.S.S.S.S.S.S.S.S.S.S.S.S.S.S.S.S.",
"S.S.S.S.S.S.S.S.S.S.S.S.S.S.S.S.S.S.S.S.S.S.O O $ + + S.S.S.S.S.S.S.+ S.S.S.S.S.S.S.S.S.S.S.S.S.S.S.S.S.S.S.S.S.S.S.S.S.S.S.S.S.",
"S.S.S.S.S.S.S.S.S.S.S.S.S.S.S.S.S.S.S.S.S.S.O O o O S.S.S.S.S.S.S.S.S.S.S.S.S.S.S.S.S.S.S.S.S.S.S.S.S.S.S.S.S.S.S.S.S.S.S.S.S.S.",
"S.S.S.S.S.S.S.S.S.S.S.S.S.S.S.S.S.S.S.S.S.S.S.S.S.S.S.S.S.S.S.S.S.S.S.S.S.S.S.S.S.S.S.S.S.S.S.S.S.S.S.S.S.S.S.S.S.S.S.S.S.S.S.S.",
"S.S.S.S.S.S.S.S.S.S.S.S.S.S.S.S.S.S.S.S.S.S.S.S.S.S.S.S.S.S.S.S.S.S.S.S.S.S.S.S.S.S.S.S.S.S.S.S.S.S.S.S.S.S.S.S.S.S.S.S.S.S.S.S.",
"S.S.S.S.S.S.S.S.S.S.S.S.S.S.S.S.S.S.S.S.S.S.S.S.S.S.S.S.S.S.S.S.S.S.S.S.S.S.S.S.S.S.S.S.S.S.S.S.S.S.S.S.S.S.S.S.S.S.S.S.S.S.S.S.",
"S.S.S.S.S.S.S.S.S.S.S.S.S.S.S.S.S.S.S.S.S.S.S.S.S.S.S.S.S.S.S.S.S.S.S.S.S.S.S.S.S.S.S.S.S.S.S.S.S.S.S.S.S.S.S.S.S.S.S.S.S.S.S.S."
};
