/* XPM */
static char *result[] = {
/* columns rows colors chars-per-pixel */
"64 44 106 2 ",
"   c #060504",
".  c #0A0807",
"X  c #0D0B0A",
"o  c #100D0B",
"O  c #14100E",
"+  c #171310",
"@  c #1B1714",
"#  c #1E1916",
"$  c #201B17",
"%  c #231D19",
"&  c #2A231E",
"*  c #2E2621",
"=  c #322A25",
"-  c #372E28",
";  c #382F29",
":  c #3D332D",
">  c #41362F",
",  c #423730",
"<  c #453932",
"1  c #4A3E36",
"2  c #4C4037",
"3  c #4E4239",
"4  c #53453B",
"5  c #56483E",
"6  c #594A3F",
"7  c #564A41",
"8  c #5B4C41",
"9  c #5E5045",
"0  c #5F5249",
"q  c #635345",
"w  c #64554A",
"e  c #68574A",
"r  c #66584E",
"t  c #6D5B4D",
"y  c #705E4F",
"u  c #6B5C51",
"i  c #715F51",
"p  c #6E6055",
"a  c #756253",
"s  c #796656",
"d  c #746559",
"f  c #77685D",
"g  c #7D6A5B",
"h  c #7B6C62",
"j  c #7E7065",
"k  c #836F5F",
"l  c #857262",
"z  c #8A7666",
"x  c #87776A",
"c  c #8D7A6B",
"v  c #917E6E",
"b  c #857971",
"n  c #8D7C70",
"m  c #8F8176",
"M  c #948272",
"N  c #998575",
"B  c #96877B",
"V  c #988779",
"C  c #9E8B7B",
"Z  c #A18E7E",
"A  c #A59282",
"S  c #A99686",
"D  c #A5978C",
"F  c #AA9788",
"G  c #AB9888",
"H  c #B19E8E",
"J  c #AD9E93",
"K  c #B5A292",
"L  c #B9A595",
"P  c #BCA897",
"I  c #B8A79A",
"U  c #BEAA9A",
"Y  c #C3AE9D",
"T  c #C4B09F",
"R  c #C2B2A5",
"E  c #CAB6A5",
"W  c #C2B3A8",
"Q  c #C8B7AA",
"!  c #CDB9AA",
"~  c #D2BDAC",
"^  c #D6C0AF",
"/  c #DAC4B3",
"(  c #DFC9B7",
")  c #D5C7BD",
"_  c #DFCAB9",
"`  c #E3CDBB",
"'  c #E8D1BF",
"]  c #DECFC5",
"[  c #E3D2C5",
"{  c #EED7C5",
"}  c #EFD8C6",
"|  c #E5D7CE",
" . c #EBD7C8",
".. c #EDDACA",
"X. c #F0DBCB",
"o. c #EEDDD0",
"O. c #F3DFD1",
"+. c #ECE0D9",
"@. c #F3E1D4",
"#. c #F5E6DB",
"$. c #F7E8DE",
"%. c #F7EAE0",
"&. c #F9EDE5",
"*. c #FAEFE8",
"=. c #FBF0E9",
"-. c None",
/* pixels */
"-.-.-.-.-.-.-.-.-.-.-.-.-.-.-.-.-.-.-.-.-.-.-.-.-., > : : , , -.-.-.-.-.-.-.-.-.-.-.-.-.-.-.-.-.-.-.-.-.-.-.-.-.-.-.-.-.-.-.-.-.",
"-.-.-.-.-.-.-.-.-.-.-.-.-.-.-.-.-.-.-.-.-.-.-., , < 4 r u 7 , , -.-.-.-.-.-.-.-.-.-.-.-.-.-.-.-.-.-.-.-.-.-.-.-.-.-.-.-.-.-.-.-.",
"-.-.-.-.-.-.-.-.-.-.-.-.-.-.-.-.-.-.-.-.-.-.-., 7 D ) ~ A r < , , , , -.-.-.-.-.-.-.-.-.-.-.-.-.-.-.-.-.-.-.-.-.-.-.-.-.-.-.-.-.",
"-.-.-.-.-.-.-.-.-.-.-.-.-.-.-.-.-.-.-.-.-.-.> 3 Y @.W d 1 , 1 3 3 1 , , , , , -.-.-.-.-.-.-.-.-.-.-.-.-.-.-.-.-.-.-.-.-.-.-.-.-.",
"-.-.-.-.-.-.-.-.-.-.-.-.-.-.-.-.-.-.-.-.-.-.: j / D 8 : 7 h C G K D N f 0 3 , , , -.-.-.-.-.-.-.-.-.-.-.-.-.-.-.-.-.-.-.-.-.-.-.",
"-.-.-.-.-.-.-.-.-.-.-.-.-.-.-.-.-.-.-.-.-.< < l c 4 : 7 B T [ ..#.*.o.~ H V d 3 , , -.-.-.-.-.-.-.-.-.-.-.-.-.-.-.-.-.-.-.-.-.-.",
"-.-.-.-.-.-.-.-.-.-.-.-.-.-.-.-.-.-.-.-.-., < 9 3 : 0 A E ..%.&.*.*.@.} / H F v w < , -.-.-.-.-.-.-.-.-.-.-.-.-.-.-.-.-.-.-.-.-.",
"-.-.-.-.-.-.-.-.-.-.-.-.-.-.-.-.-.-.-.-.-., < : < d K _ #.*.*.*.*.#.} }  .P F S z y 1 , -.-.-.-.-.-.-.-.-.-.-.-.-.-.-.-.-.-.-.-.",
"-.-.-.-.-.-.-.-.-.-.-.-.-.-.-.-.-.-.-.-., , 1 0 Z ( ' $.&.$.X.O.X.{ { { ' Y A Z M k q > , -.-.-.-.-.-.-.-.-.-.-.-.-.-.-.-.-.-.-.",
"-.-.-.-.-.-.-.-.-.-.-.-.-.-.-.-.-.-.< , < r c U { O.$.&.@.X.' } {  .{ } ` H Z k k k y 4 , > -.-.-.-.-.-.-.-.-.-.-.-.-.-.-.-.-.-.",
"-.-.-.-.-.-.-.-.-.-.-.-.-.-.-.-.-., , 7 x G ^ +.&.&.@.} ' } ' } } { { ` Y S Z k k k a q < < -.-.-.-.-.-.-.-.-.-.-.-.-.-.-.-.-.-.",
"-.-.-.-.-.-.-.-.-.-.-.-.-.-.-.-., , r A ! ..&.=.=.$.X.' } } ` ( / / E H G G Z v k k s y 6 , , -.-.-.-.-.-.-.-.-.-.-.-.-.-.-.-.-.",
"-.-.-.-.-.-.-.-.-.-.-.-.-.-.-., , t L [ $.&.&.&.#.X.' } ' E H G G H G S G G G Z k k k y e 1 > > -.-.-.-.-.-.-.-.-.-.-.-.-.-.-.-.",
"-.-.-.-.-.-.-.-.-.-.-.-.-.-., > q Y ..&.$.X.} } { } } } ^ H G G G G G G G G G v k k k y t q 1 > -.-.-.-.-.-.-.-.-.-.-.-.-.-.-.-.",
"-.-.-.-.-.-.-.-.-.-.-.-.-.-.> 4 H ' &.%.X.' } } } } } ' Y Z G G G G S G G G Z k k k k a y t 4 > , , > , , -.-.-.-.-.-.-.-.-.-.-.",
"-.-.-.-.-.-.-.-.-.-.-.-.-., , c ' $.%.O.' X.} } ' } ' E G G G G G G G G G A c k k k k k e y 8 1 , 1 8 5 < , , -.-.-.-.-.-.-.-.-.",
"-.-.-.-.-.-.-.-.-.-.-.-.-., 8 Q @.%.X.{ { ` ~ E E T Y G G G G G K Z H Z Z Z l k k k k k y t q 1 , n | Q l 3 , , -.-.-.-.-.-.-.-.",
"-.-.-.-.-.-.-.-.-.-.-.-., , n ..%.@.{ } / L G S G G Z G G G G H G K Z H H Z l k k k k y t t e 4 , B | / N s 1 , -.-.-.-.-.-.-.-.",
"-.-.-.-.-.-.-.-.-.-.-.-., 2 W *.*.@. .` K S G G Z H G Z Z N Z Z G G Z K Z H z k k k k k t t q 4 , a Z G v k e < , -.-.-.-.-.-.-.",
"-.-.-.-.-.-.-.-.-.-.-.-.: w | *.*.X.} / G G G G G G G N k k k N H Z H Z H Z l k k k k y t t 8 4 , t k l k k s < , -.-.-.-.-.-.-.",
"-.-.-.-.-.-.-.-.-.-.-.-.: j #.*.$.} } ^ G G G G H H Z z k k k k C Z G G Z v k k k k k e t t 6 4 , q a y y s g 1 , -.-.-.-.-.-.-.",
"-.-.-.-.-.-.-.-.-.-.-., , M $.*.O.} } E G G G G Z Z N k k k k k l v N N z k k k k k y t t e 6 5 , 5 y t t y s 1 , -.-.-.-.-.-.-.",
"-.-.-.-.-.-.-.-.-.-., , , n  .O.} { ^ H G G G A M z k k k k k k k k l l k k k k k k t t t 8 6 6 , 1 e t t y a 1 , -.-.-.-.-.-.-.",
"-.-.-.-.-.-.-.-., : 1 7 < d P ~ ! Y H G G S G Z k k k k k k k k k k k k k k k k k y y t q 8 8 8 1 , 7 y t y a < , -.-.-.-.-.-.-.",
"-.-.-.-.-.-.-., > 7 J I 3 7 C S G S S S G G Z M k k k k k t t y a k k k k k k a a t t t 8 8 8 8 4 > 1 e y y a < , , , , -.-.-.-.",
"-.-.-.-.-.-.: < h ] =.] 0 1 g c v N c M N v z k k k k k y t t t t t y y y y t t t t t q 6 8 6 5 < > 5 t t a i , 0 u 1 , -.-.-.-.",
"-.-.-.-.-.- < b +.=.#.Q q , e k k k k k k k k k k k k k y t y t t t t t t t t t t q q 8 8 6 6 1 > 3 8 q q e e , r l i < , -.-.-.",
"-.-.-.-.+ : 4 Q &.@.} K 9 > 9 a k k k k k k k k k k k a t t t y t e t t t t t t q 6 6 8 8 6 < , 2 6 8 6 8 8 4 , e s a 5 , -.-.-.",
"-.-.-.-.# , p Y ` ` ! N 6 > 6 q a k k s a a s a a a a t t t t q q 8 8 q t t e q 6 8 8 6 5 1 > 1 6 8 6 8 8 5 < 1 t y t 5 , -.-.-.",
"-.-.-.-.% , u C Z S S z 6 > 4 6 e y y t t t t t t t t t t t q 8 6 8 8 8 e q 8 6 8 8 6 4 < > 1 6 6 8 8 8 6 < > 6 t e 9 1 , % -.-.",
"-.-.-.-.# , 5 g z c v g q > < 5 8 q e t t t t t t e e e e q 8 8 6 8 6 8 8 6 8 8 8 4 1 < , 2 6 8 6 8 6 4 < , , 4 8 8 4 , : -.-.-.",
"-.-.-.-.X : < 9 s k k k t 4 > < 4 6 8 q q q q q q q q 8 q 6 8 8 8 8 8 8 6 6 6 4 1 < , , 1 5 5 5 4 1 < < > ; , < 4 1 < , % -.-.-.",
"-.-.-.-.-.& > < 4 e t i y q 3 < < < 1 4 4 4 5 4 4 4 4 4 2 1 2 1 2 2 1 1 1 < < > > > > , , , , < , > : * O X - > , > : % -.-.-.-.",
"-.-.-.-.-.-.* : , < 1 4 4 4 1 < > > > , < < < < , > > , > > > > > > > > > > - = $ + % * = ; ; = * $ X -.-.-.  % & % o -.-.-.-.-.",
"-.-.-.-.-.-.-.@ = : : > > > > : : & % & = = = = = * & % % @ @ @ @ $ @ + o o   -.-.-.-.-.-.    -.-.-.-.-.-.-.-.-.-.-.-.-.-.-.-.-.",
"-.-.-.-.-.-.-.-.-.. @ $ % % # + . -.-.-.-.-.-.-.-.-.-.-.-.-.-.-.-.-.-.-.-.-.-.-.-.-.-.-.-.-.-.-.-.-.-.-.-.-.-.-.-.-.-.-.-.-.-.-.",
"-.-.-.-.-.-.-.-.-.-.-.-.-.-.-.-.-.-.-.-.-.-.-.-.-.-.-.-.-.-.-.-.-.-.-.-.-.-.-.-.-.-.-.-.-.-.-.-.-.-.-.-.-.-.-.-.-.-.-.-.-.-.-.-.",
"-.-.-.-.-.-.-.-.-.-.-.-.-.-.-.-.-.-.-.-.-.-.-.-.-.-.-.-.-.-.-.-.-.-.-.-.-.-.-.-.-.-.-.-.-.-.-.-.-.-.-.-.-.-.-.-.-.-.-.-.-.-.-.-.",
"-.-.-.-.-.-.-.-.-.-.-.-.-.-.-.-.-.-.-.-.-.-.-.-.-.-.-.-.-.-.-.-.-.-.-.-.-.-.-.-.-.-.-.-.-.-.-.-.-.-.-.-.-.-.-.-.-.-.-.-.-.-.-.-.",
"-.-.-.-.-.-.-.-.-.-.-.-.-.-.-.-.-.-.-.-.-.-.-.-.-.-.-.-.-.-.-.-.-.-.-.-.-.-.-.-.-.-.-.-.-.-.-.-.-.-.-.-.-.-.-.-.-.-.-.-.-.-.-.-.",
"-.-.-.-.-.-.-.-.-.-.-.-.-.-.-.-.-.-.-.-.-.-.-.-.-.-.-.-.-.-.-.-.-.-.-.-.-.-.-.-.-.-.-.-.-.-.-.-.-.-.-.-.-.-.-.-.-.-.-.-.-.-.-.-.",
"-.-.-.-.-.-.-.-.-.-.-.-.-.-.-.-.-.-.-.-.-.-.-.-.-.-.-.-.-.-.-.-.-.-.-.-.-.-.-.-.-.-.-.-.-.-.-.-.-.-.-.-.-.-.-.-.-.-.-.-.-.-.-.-.",
"-.-.-.-.-.-.-.-.-.-.-.-.-.-.-.-.-.-.-.-.-.-.-.-.-.-.-.-.-.-.-.-.-.-.-.-.-.-.-.-.-.-.-.-.-.-.-.-.-.-.-.-.-.-.-.-.-.-.-.-.-.-.-.-.",
"-.-.-.-.-.-.-.-.-.-.-.-.-.-.-.-.-.-.-.-.-.-.-.-.-.-.-.-.-.-.-.-.-.-.-.-.-.-.-.-.-.-.-.-.-.-.-.-.-.-.-.-.-.-.-.-.-.-.-.-.-.-.-.-."
};
