/* XPM */
static char *result[] = {
/* columns rows colors chars-per-pixel */
"64 56 140 2 ",
"   c #020201",
".  c #070803",
"X  c #0A0B04",
"o  c #0F1006",
"O  c #121407",
"+  c #151608",
"@  c #161909",
"#  c #191B09",
"$  c #1F220C",
"%  c #22250D",
"&  c #26290F",
"*  c #282C0F",
"=  c #2B2E10",
"-  c #2D3111",
";  c #313613",
":  c #363B14",
">  c #3A3F16",
",  c #3C4117",
"<  c #3E4318",
"1  c #41461A",
"2  c #44491B",
"3  c #484D1D",
"4  c #4C541C",
"5  c #4F581D",
"6  c #535C1E",
"7  c #58621F",
"8  c #4A4E20",
"9  c #4E5122",
"0  c #525525",
"q  c #585726",
"w  c #555C22",
"e  c #595D24",
"r  c #575728",
"t  c #565928",
"y  c #5B5C2A",
"u  c #5B6322",
"i  c #5E6922",
"p  c #616725",
"a  c #626C24",
"s  c #61642B",
"d  c #626929",
"f  c #6B6F2B",
"g  c #677226",
"h  c #6A7425",
"j  c #6D7927",
"k  c #6B732B",
"l  c #6F7A2A",
"z  c #727F27",
"x  c #70712F",
"c  c #737F29",
"v  c #656331",
"b  c #696734",
"n  c #656A31",
"m  c #6D6935",
"M  c #6F6C38",
"N  c #736E36",
"B  c #726E3A",
"V  c #677034",
"C  c #737334",
"Z  c #787435",
"A  c #757931",
"S  c #7A7C31",
"D  c #76733B",
"F  c #7A753C",
"G  c #7C7740",
"H  c #7E7841",
"J  c #847B3D",
"K  c #827C44",
"L  c #75812A",
"P  c #79832D",
"I  c #758132",
"U  c #7D8531",
"Y  c #7E8935",
"T  c #7D883E",
"R  c #7D8742",
"E  c #7F8943",
"W  c #828436",
"Q  c #858936",
"!  c #84843B",
"~  c #838D3B",
"^  c #8C8D3C",
"/  c #918F3E",
"(  c #8C913D",
")  c #868243",
"_  c #8C8343",
"`  c #838D45",
"'  c #8C8847",
"]  c #8C844A",
"[  c #878948",
"{  c #938C44",
"}  c #938A4F",
"|  c #869241",
" . c #8B9544",
".. c #8B914A",
"X. c #8F9B4B",
"o. c #949344",
"O. c #9A9446",
"+. c #94934D",
"@. c #9D934A",
"#. c #909D4C",
"$. c #9E9B4C",
"%. c #968D50",
"&. c #998F52",
"*. c #9B9153",
"=. c #939E50",
"-. c #9B9E50",
";. c #A0974A",
":. c #A49B4E",
">. c #A19657",
",. c #A69D52",
"<. c #AC9D52",
"1. c #A29758",
"2. c #A69B59",
"3. c #AA9D5C",
"4. c #B09F55",
"5. c #96A253",
"6. c #9AA354",
"7. c #9FA658",
"8. c #A4A053",
"9. c #ADA156",
"0. c #AFA25D",
"q. c #ADA85C",
"w. c #B1A156",
"e. c #B3A45A",
"r. c #B5AA5F",
"t. c #ACAA60",
"y. c #B4A662",
"u. c #B6A964",
"i. c #BCAD64",
"p. c #BEAE69",
"a. c #BEB46A",
"s. c #C1B167",
"d. c #C4B46C",
"f. c #C8B76E",
"g. c #C8B86E",
"h. c #C7B670",
"j. c #C8B770",
"k. c #CCBA72",
"l. c #D0BE75",
"z. c None",
/* pixels */
"z.z.z.z.z.z.z.z.z.z.z.z.z.z.z.z.z.z.z.z.z.z.z.z.z.z.z.z.z.z.z.z.z.z.z.z.z.z.z.z.z.z.z.> > z.z.z.z.z.z.z.z.z.z.z.z.z.z.z.z.z.z.z.",
"z.z.z.z.z.z.z.z.z.z.z.z.z.z.z.z.z.z.z.z.z.z.z.z.z.z.z.z.z.z.z.z.z.z.z.z.z.z.z.z.z.> > > > > z.z.z.z.z.z.z.z.z.z.z.z.z.z.z.z.z.z.",
"z.z.z.z.z.z.z.z.z.z.z.z.z.z.z.z.z.z.z.z.z.z.z.z.z.z.z.z.z.z.z.z.z.z.z.z.z.z.z.z.> < > > > > z.z.z.z.z.z.z.z.z.z.z.z.z.z.z.z.z.z.",
"z.z.z.z.z.z.z.z.z.z.z.z.z.z.z.z.z.z.z.z.z.z.z.z.z.z.z.z.z.z.z.z.z.z.z.z.z.z.z.> > > > > > , z.z.z.z.z.z.z.z.z.z.z.z.z.z.z.z.z.z.",
"z.z.z.z.z.z.z.z.z.z.z.z.z.z.z.z.z.z.z.z.z.z.z.z.z.z.z.z.z.z.z.z.z.z.z.z.z.z.> > > > > > , z.z.z.z.z.z.z.z.z.z.z.z.z.z.z.z.z.z.z.",
"z.z.z.z.z.z.z.z.z.z.z.z.z.z.z.z.z.z.z.z.z.z.z.z.z.z.z.z.z.z.z.z.z.z.z.z.z.> > , > > > > > z.z.z.z.z.z.z.z.z.z.z.z.z.z.z.z.z.z.z.",
"z.z.z.z.z.z.z.z.z.z.z.z.z.z.z.z.z.z.z.z.z.z.z.z.z.z.z.z.z.z.z.z.z.z.z.z.> > > > 8 1 > > > z.z.z.z.z.z.z.z.z.z.z.z.z.z.z.z.z.z.z.",
"z.z.z.z.z.z.z.z.z.z.z.z.z.z.z.z.z.z.z.z.z.z.z.z.z.z.z.z.z.z.z.z.z.z.z.> > > > 0 ] 8 > > > z.z.z.z.z.z.z.z.z.z.z.z.z.z.z.z.z.z.z.",
"z.z.z.z.z.z.z.z.z.z.z.z.z.z.z.> z.z.z.z.z.z.z.z.z.z.z.z.z.z.z.z.z.z.z.> > > 8 &.&.8 : : > z.z.z.z.z.z.z.z.z.z.z.z.z.z.z.z.z.z.z.",
"z.z.z.z.z.z.z.z.z.z.z.z.z.z.> > > > > z.z.z.z.z.z.z.z.z.z.z.z.z.z.z.> > > , D h.K > > > z.z.z.z.z.z.z.z.z.z.z.z.z.z.z.z.z.z.z.z.",
"z.z.z.z.z.z.z.z.z.z.z.z.z.> > > > > , > z.z.z.z.z.z.z.z.z.z.z.z.z.z.> > > r u.j.m : > > z.z.z.z.z.z.z.z.z.z.z.z.z.z.z.z.z.z.z.z.",
"z.z.z.z.z.z.z.z.z.z.z.z.z., > > > > > > > > z.z.z.z.z.z.z.z.z.z.z., > > < ] k.u.t > > > z.z.z.z.z.z.z.z.z.z.z.z.z.z.z.z.z.z.z.z.",
"z.z.z.z.z.z.z.z.z.z.z.z.z.z.> > > > > > > > > z.z.z.z.z.z.z.z.z.z.> > > y y.k.+.2 > > > z.z.z.z.z.z.z.z.z.z.z.z.z.z.z.z.z.z.z.z.",
"z.z.z.z.z.z.z.z.z.z.z.z.z.z.> > > > > > > > > , z.z.z.z.z.z.z.z.z.> > > K k.s.k , > > > z.z.z.z.z.z.z.z.z.z.z.z.z.z.z.z.z.z.z.z.",
"z.z.> > > > > > > > > z.z.z.z.> > > > > > > > > > z.z.z.z.z.z.z.> > > 8 3.k.8.u > > , z.z.z.z.> > z.z.z.z.z.z.z.z.z.z.z.z.z.z.z.",
"z.> > > > > > , > > > > > , > > > > > > > < > > > > z.z.z.z.z.z.> > > y h.f.Q w : > > z.z.z.> > > > z.z.z.z.z.z.z.z.z.z.z.z.z.z.",
"> > , > , 2 2 1 > > > > > > > > > > > > 2 q 2 : > > > z.z.z.z.z.> > , D k.r.L 4 > > > z.z.> > > > > z.z.z.z.z.z.z.z.z.z.z.z.z.z.",
"> , > > 1 N { K D y 3 > > > > > > > > > > y F 9 > > > > > z.z.z.> > < } k.$.l 2 > > > > > > > > > > z.z.z.z.z.z.z.z.z.z.z.z.z.z.",
"z.> > > > 3 J 4.s.<.^ N w 1 > > > > , > > > B %.r > > > > > z.< > > 1 >.g.( h 2 > > > > > > > > > > z.z.z.z.z.z.z.z.z.z.z.z.z.z.",
"z.z.> > > : 1 b 0.d.s.4.O.S e 1 > > > > > : 1 K 2.0 > > > > > > > > 1 u.r.Y h , > > > > > > > > > , z.z.z.z.z.z.z.z.z.z.z.z.z.z.",
"z.z.z.> > > > > 8 G 3.d.s.w.O.S 5 1 > > > > > 3 %.{ 4 > > > > > > > 2 p.9.U h , > > > > , 8 > > > > z.z.z.> > > > > > > > > > z.",
"z.z.z.z.> > > > > > 3 B 3.f.i.<./ a 2 > > > > > 0 +.c 4 > > > > > > 1 e.:.P h , > , > > b H > > > > > > > > > > > > < > > > > > ",
"z.z.z.z.z.> > > > > : > 9 K p.f.r.;.S 3 > > > > > y Q h 3 , > > > > 1 &.O.P k , > , > 0 3.H , : > > > > > > : > > > > > > > , > ",
"z.z.z.z.z.z.z.> > > > > > 1 v 3.k.s.<.W e > > > > , 7 L g 2 > , > > < _ O.P j 2 : : 1 [ a.m , , > > > > < 8 0 9 1 > > > > > > > ",
"z.z.z.z.z.z.z.z.z.> > > > > > 4 %.k.f.4./ p 1 > > : 4 c L a 1 > > > < J { P z p 9 8 V t.*.8 : , , : 8 B } *.*.b 8 : > > > > > z.",
"z.z.z.z.z.z.z.z.z.z.z.> > > > > 1 K j.j.4./ g 3 , 1 N / L L 7 , > > > v / c L ^ ..` =.+.0 : , , < b 2.h.a.] t , > > > > > z.z.z.",
"z.z.z.z.z.z.z.z.z.z.> > > > > > > < K d.d.4./ j i Z <.@.P L l 4 > > > q ^ L L ( 6.6.+.y : > : < C u.h.*.y < : , > > > > z.z.z.z.",
"z.z.z.z.z.z.z.> > > , > > > > > > > < } f.s.:.Q z / <.<.~ L L j 5 < 1 J ^ L L | -.6.{ 2 , , 2 k 8.0.M < > > , : > > > z.z.z.z.z.",
"z.z.z.z.z.z.> < > > > > > > > > > > > 9 F u.e.;.P W :.<.:.Y L L U } >.w.^ L L ( 6.<.;.y > 1 u ( a.m : > , , : , , > > > > z.z.z.",
"z.z.z.z.z.z.> > > > > > , , > > > > > : < K 4.4.O.P O.<.,. .P L ( l.l.r.Q L L | 8.w.4.3.' g z 8.a.v : > : , : , > > > > > > > z.",
"z.z.z.z.z.z.> > > , > > 1 2 2 1 > > : > > N ,.r.f.:.^ <.<.6.~ L ^ k.k.r.Q L L ( e.d.s.8.^ L c O.p._ 9 3 8 8 9 0 2 > > > > > > > ",
"z.z.z.z.z.z.z.> > > > > > , 2 4 q D v 1 3 ` -.q.g.g.9.9.<.8.#.P Y r.d.9.U L L $.d.k.i.Q L L L O.,.<...E E ` ` n 8 > > > > > , > ",
"z.z.z.z.z.z.z.z.z.> > > > > > , 0 %.+.w i E 5.7.a.a.a.9.<.8.5.| L / e.<.Q L W e.g.k.;.P L L / <.<.,.6.6.5.E t , : , , : , , , : ",
"z.z.z.z.z.z.z.z.z.z.> , > , > > , 1 9 3 5 u I X.6.6.6.6.<.8.5.5.I ^ w.s.r.U Q e.d.i.Q L L Q :.<.:.^ X.| d < , , : , , , : : , z.",
"z.z.z.z.z.z.z.z.z.z.z.z.: : > > > > , , < 4 6 j  .5.X.Y ^ o.X.T i x @.u.k.{ Q :.w.O.L L L O.<.4.<.Q u 4 > > > > , : - z.z.z.z.z.",
"z.z.z.z.z.z.z.z.z.z.z.z.z.z.; > > > , : , , 1 4 g T Y L L P l u 6 w p ) k.p.A W { P z L Q <.w.<.<.C , > , > > > , : : - z.z.z.z.",
"z.z.z.z.z.z.z.z.z.z.z.z.z.z.z.z.* : > , , , , , 3 i L L L j 7 6 6 6 w i y.k.) u 7 u a h ^ <.:.<.@.e : , , , , > > > > > : z.z.z.",
"z.z.z.z.z.z.z.z.z.z.z.z.z.z.z.z.z.z.* ; : , : , , 4 i L L i 5 6 6 w 5 7 ! 0.Z 6 6 6 6 7 f ! P Q Q u , , , , , : > > , > , - z.z.",
"z.z.z.z.z.z.z.z.z.z.z.z.z.z.z.z.z.z.z.o % : : , , 2 u i g 7 6 6 6 6 6 6 u d w 6 6 6 6 6 6 6 7 u a i 4 1 , , , , > > , > > z.z.z.",
"z.z.z.z.z.z.z.z.z.z.z.z.z.z.z.z.z.z.z.z.z.+ : , , < 5 6 7 6 6 6 6 6 6 6 6 5 6 6 6 6 6 6 6 6 6 6 6 4 1 < , : : , > > : ; $ z.z.z.",
"z.z.z.z.z.z.z.z.z.z.z.z.z.z.z.z.z.z.z.z.z.O : , > 1 6 6 6 6 6 6 6 6 6 6 6 6 6 6 7 6 6 6 6 6 6 6 6 2 > > > > > > ; = @ z.z.z.z.z.",
"z.z.z.z.z.z.z.z.z.z.z.z.z.z.z.z.z.z.z.z.z.* > > , 1 4 4 4 4 4 4 4 5 5 6 6 6 6 6 6 6 6 6 6 6 6 6 6 1 > > > > > ; O z.z.z.z.z.z.z.",
"z.z.z.z.z.z.z.z.z.z.z.z.z.z.z.z.z.z.z.z.O : > > > , , < , , , , < , < < 1 2 2 4 4 5 5 5 5 6 4 4 4 1 > > > > > : % z.z.z.z.z.z.z.",
"z.z.z.z.z.z.z.z.z.z.z.z.z.z.z.z.z.z.z.z.$ > > > > > > > , > , > , , , , > , , > , , , , , , , , > , > > > > > > : X z.z.z.z.z.z.",
"z.z.z.z.z.z.z.z.z.z.z.z.z.z.z.z.z.z.z.z.@ : > > , > > > > > > > , , , > > > > > , : > > , > > > > > > > > > > > ; z.z.z.z.z.z.z.",
"z.z.z.z.z.z.z.z.z.z.z.z.z.z.z.z.z.z.z.z.z.+ & = - - - = % % & - * - ; : : > > > , , , , > > > > > > : > : > : - @ z.z.z.z.z.z.z.",
"z.z.z.z.z.z.z.z.z.z.z.z.z.z.z.z.z.z.z.z.z.z.z.z..                 . . . o @ $ % * * * - ; - = - = % % # O X X z.z.z.z.z.z.z.z.z.",
"z.z.z.z.z.z.z.z.z.z.z.z.z.z.z.z.z.z.z.z.z.z.z.z.z.z.z.z.z.z.z.z.                          z.z.z.z.z.z.z.z.z.z.z.z.z.z.z.z.z.z.z.",
"z.z.z.z.z.z.z.z.z.z.z.z.z.z.z.z.z.z.z.z.z.z.z.z.z.z.z.z.z.z.z.z.z.z.z.z.z.z.z.z.z.z.z.z.z.z.z.z.z.z.z.z.z.z.z.z.z.z.z.z.z.z.z.z.",
"z.z.z.z.z.z.z.z.z.z.z.z.z.z.z.z.z.z.z.z.z.z.z.z.z.z.z.z.z.z.z.z.z.z.z.z.z.z.z.z.z.z.z.z.z.z.z.z.z.z.z.z.z.z.z.z.z.z.z.z.z.z.z.z.",
"z.z.z.z.z.z.z.z.z.z.z.z.z.z.z.z.z.z.z.z.z.z.z.z.z.z.z.z.z.z.z.z.z.z.z.z.z.z.z.z.z.z.z.z.z.z.z.z.z.z.z.z.z.z.z.z.z.z.z.z.z.z.z.z.",
"z.z.z.z.z.z.z.z.z.z.z.z.z.z.z.z.z.z.z.z.z.z.z.z.z.z.z.z.z.z.z.z.z.z.z.z.z.z.z.z.z.z.z.z.z.z.z.z.z.z.z.z.z.z.z.z.z.z.z.z.z.z.z.z.",
"z.z.z.z.z.z.z.z.z.z.z.z.z.z.z.z.z.z.z.z.z.z.z.z.z.z.z.z.z.z.z.z.z.z.z.z.z.z.z.z.z.z.z.z.z.z.z.z.z.z.z.z.z.z.z.z.z.z.z.z.z.z.z.z.",
"z.z.z.z.z.z.z.z.z.z.z.z.z.z.z.z.z.z.z.z.z.z.z.z.z.z.z.z.z.z.z.z.z.z.z.z.z.z.z.z.z.z.z.z.z.z.z.z.z.z.z.z.z.z.z.z.z.z.z.z.z.z.z.z.",
"z.z.z.z.z.z.z.z.z.z.z.z.z.z.z.z.z.z.z.z.z.z.z.z.z.z.z.z.z.z.z.z.z.z.z.z.z.z.z.z.z.z.z.z.z.z.z.z.z.z.z.z.z.z.z.z.z.z.z.z.z.z.z.z.",
"z.z.z.z.z.z.z.z.z.z.z.z.z.z.z.z.z.z.z.z.z.z.z.z.z.z.z.z.z.z.z.z.z.z.z.z.z.z.z.z.z.z.z.z.z.z.z.z.z.z.z.z.z.z.z.z.z.z.z.z.z.z.z.z."
};
